<svg width="415" height="200" viewBox="0 0 415 489" fill="none" xmlns="http://www.w3.org/2000/svg">
<g clip-path="url(#clip0_108_1049)">
<path d="M375.093 406.646H0V489H375.093V406.646Z" fill="#D18915"/>
<path d="M116.433 406.646H38.6627V489H116.433V406.646Z" fill="#E1EAEF" fill-opacity="0.5"/>
<path d="M143.639 406.646H127.668V489H143.639V406.646Z" fill="#E1EAEF" fill-opacity="0.5"/>
<path d="M415.008 324.292H39.9143V406.646H415.008V324.292Z" fill="#359E2A"/>
<path d="M156.348 324.292H78.577V406.646H156.348V324.292Z" fill="white" fill-opacity="0.48"/>
<path d="M183.554 324.292H167.582V406.646H183.554V324.292Z" fill="white" fill-opacity="0.48"/>
<path d="M400.679 241.938H25.5857V324.292H400.679V241.938Z" fill="#016BA6"/>
<path d="M142.027 241.938H64.2561V324.292H142.027V241.938Z" fill="#D1DCE4" fill-opacity="0.5"/>
<path d="M169.225 241.938H153.253V324.292H169.225V241.938Z" fill="#D1DCE4" fill-opacity="0.5"/>
<path d="M273.572 51.0906C251.887 70.2045 215.613 69.215 215.613 69.215C215.613 69.215 214.492 37.246 236.184 18.1321C257.861 -0.974101 294.136 0.00767204 294.136 0.00767204C294.136 0.00767204 295.257 31.9843 273.572 51.0906Z" fill="#359E2A"/>
<path d="M284.714 8.3144C284.714 8.3144 281.681 12.2185 276.59 17.5876C271.522 22.9873 264.419 29.8674 256.971 36.456C249.499 43.0216 241.69 49.2881 235.562 53.7521C229.473 58.2468 225.035 60.9083 225.035 60.9083C225.035 60.9083 228.06 56.9966 233.159 51.6275C238.227 46.2277 245.33 39.3476 252.786 32.759C260.265 26.2011 268.074 19.9346 274.202 15.4706C280.291 10.9836 284.722 8.30672 284.722 8.30672L284.714 8.3144Z" fill="#112A35"/>
<path d="M215.605 67.9571C131.338 46.2201 92.8365 101.782 108.378 162.184C120.611 209.731 163.174 252.776 215.605 239.499C268.036 252.776 310.599 209.731 322.832 162.184C338.373 101.782 299.872 46.2201 215.605 67.9571Z" fill="#D81259"/>
<path opacity="0.2" d="M0 406.646H375.093V424.809L0 406.646Z" fill="black"/>
<path opacity="0.2" d="M39.9143 324.292H415V342.455L39.9143 324.292Z" fill="black"/>
<path opacity="0.3" d="M168.45 236.354C168.004 231.561 167.728 226.721 167.728 221.804C167.728 150.94 211.812 90.4459 274.056 65.9629C258.069 61.8824 238.549 62.0358 215.597 67.9571C131.33 46.2201 92.8289 101.782 108.371 162.184C116.641 194.322 138.786 224.328 168.45 236.354Z" fill="white"/>
</g>
<defs>
<clipPath id="clip0_108_1049">
<rect width="415" height="489" fill="white"/>
</clipPath>
</defs>
</svg>
