<svg width="987" height="425" viewBox="0 0 887 425" fill="none" xmlns="http://www.w3.org/2000/svg">
<g clip-path="url(#clip0_105_900)">
<path opacity="0.5" d="M886.615 399.646C890.072 353.715 870.056 306.63 834.571 277.22C792.768 242.574 734.285 234.026 680.413 240.952C626.542 247.878 575.579 268.535 524.438 286.814C473.297 305.094 420.029 321.341 365.769 318.862C300.206 315.866 238.287 285.752 172.773 281.835C130.532 279.31 86.5651 288.517 52.5141 313.614C18.4636 338.711 -4.02328 381.05 0.601443 423.069C0.672481 423.714 0.750778 424.357 0.835816 425H882.305C884.509 416.706 885.969 408.217 886.614 399.646H886.615Z" fill="#B6C6CE"/>
<path d="M606.905 200.552C596.166 194.107 589.43 181.382 590.144 168.887L593.406 169.073C592.759 180.391 598.861 191.917 608.588 197.755L606.906 200.553L606.905 200.552Z" fill="#0096FF"/>
<path d="M565.774 388.559L550.524 388.505C551.499 395.107 555.664 420.045 556.399 425H571.643C570.903 419.98 566.744 395.08 565.775 388.559H565.774Z" fill="#2A53AD"/>
<path d="M638.377 207.196C634.506 205.782 630.744 204.096 627.161 202.122C621.063 198.777 615.493 194.6 610.822 189.525C613.103 189.819 615.444 189.493 617.399 188.313C619.849 186.828 621.423 184.168 622.103 181.383C622.783 178.604 622.669 175.689 622.375 172.839C621.842 167.694 620.704 162.516 618.134 158.023C615.564 153.531 611.41 149.767 606.379 148.522C602.035 147.445 597.668 149.332 594.63 152.307C593.857 147.08 593.471 141.783 593.334 136.539C593.09 127.054 593.579 117.557 593.835 108.067C593.982 102.557 594.053 97.0472 593.846 91.5482C595.469 91.456 597.08 91.2814 598.676 91.0204C610.229 89.1115 620.742 83.4167 629.954 76.0523C631.424 77.8197 633.112 79.4136 634.963 80.7568C642.781 86.4568 652.886 88.2843 662.556 87.8C676.374 87.1038 689.887 81.8062 700.63 73.1147C700.357 80.5604 701.631 88.0015 704.931 94.6531C706.645 98.0957 708.938 101.25 711.665 103.965C713.026 105.319 714.497 106.564 716.065 107.68C718.16 109.17 719.865 110.372 720.567 112.934C721.357 115.789 722.298 118.568 723.567 121.25C724.851 123.959 726.392 126.542 728.173 128.947L728.586 129.066C727.449 132.977 726.849 137.078 726.594 141.141C726.153 148.076 726.665 155.255 729.637 161.532C732.115 166.753 736.547 171.262 741.936 173.138L741.931 173.154C738.343 178.675 734.227 183.875 729.637 188.574C722.483 195.922 714.169 202.057 704.919 206.305C704.353 206.571 703.787 206.822 703.21 207.072C701.304 207.888 699.355 208.627 697.373 209.28C686.228 212.952 674.315 213.816 662.61 212.652C659.676 212.359 656.757 211.939 653.866 211.401C648.634 210.433 643.413 209.04 638.377 207.196ZM721.145 175.808C724.547 171.701 726.508 166.192 725.533 160.949C724.564 155.706 720.426 150.223 714.562 149.587C709.411 149.027 704.212 151.132 700.254 154.471C696.296 157.805 693.448 162.276 691.172 166.932C689.915 169.505 688.804 172.202 688.488 175.047C688.173 177.891 688.728 180.932 690.525 183.167C692.501 185.625 695.751 186.822 698.909 186.876C702.067 186.936 705.154 185.979 708.078 184.782C713.01 182.753 717.736 179.914 721.145 175.808ZM677.567 177.027C682.766 172.931 685.461 165.882 684.318 159.366C673.734 161.303 647.774 164.979 647.774 164.979C647.965 166.801 649.364 170.288 650.279 171.838C652.25 175.166 655.239 177.913 658.8 179.457C664.876 182.09 672.367 181.122 677.567 177.027ZM642.101 132.481C642.101 128.348 638.747 125.003 634.615 125.003C630.482 125.003 627.128 128.347 627.128 132.481C627.128 136.615 630.477 139.96 634.615 139.96C638.752 139.96 642.101 136.61 642.101 132.481Z" fill="#EDA78C"/>
<path d="M241.357 206.544C235.167 208.344 229.358 211.395 224.583 215.708C217.772 221.865 213.346 230.301 210.623 239.063C208.152 246.999 206.981 255.26 205.947 263.516L176.378 263.653C176.362 263.332 176.34 263.016 176.323 262.695C175.883 255.26 175.441 247.82 175.001 240.379L173.384 213.081L171.604 183.074C171.005 172.931 170.406 162.782 169.802 152.638C169.241 143.103 168.675 133.569 168.109 124.034C167.625 115.876 167.146 107.712 166.661 99.5533C166.46 96.1754 165.382 91.8191 168.359 89.3441C171.022 87.1307 175.094 87.5166 178.29 87.5006C181.856 87.4897 185.417 87.4788 188.978 87.4622C192.914 87.4456 196.845 87.4353 200.776 87.4187L213.532 87.3695C218.056 87.3529 222.586 87.3369 227.11 87.3208C231.863 87.3042 236.611 87.2882 241.364 87.2664C246.291 87.2498 251.224 87.2338 256.151 87.212C261.209 87.196 266.267 87.1742 271.325 87.1576C276.465 87.1359 281.609 87.1193 286.749 87.0981C291.921 87.0815 297.094 87.0597 302.271 87.0437C307.433 87.0219 312.588 87.0059 317.75 86.9841C322.851 86.9623 327.947 86.9463 333.049 86.9297C338.036 86.908 343.023 86.8914 348.01 86.8696C352.845 86.8536 357.674 86.837 362.509 86.8152C367.131 86.7987 371.759 86.7826 376.387 86.766C380.758 86.7495 385.13 86.7334 389.502 86.7168C393.575 86.7008 397.647 86.6842 401.72 86.6681C405.438 86.6572 409.162 86.6412 412.886 86.6298C416.212 86.6189 419.539 86.6029 422.86 86.5915C425.735 86.5806 428.637 86.6837 431.506 86.5588C433.14 86.4879 434.19 88.0652 434.425 89.5068C434.756 91.5627 434.708 93.744 434.833 95.8211C435.094 100.211 435.35 104.6 435.611 108.989C435.633 109.381 435.66 109.778 435.681 110.17C435.932 114.428 436.188 118.681 436.438 122.935C436.71 127.585 436.988 132.235 437.266 136.886C437.554 141.83 437.848 146.774 438.142 151.718C438.447 156.857 438.752 161.992 439.057 167.132C439.367 172.353 439.672 177.58 439.982 182.807C440.292 188.017 440.603 193.233 440.908 198.444C441.213 203.546 441.512 208.642 441.817 213.738C442.105 218.623 442.394 223.501 442.682 228.385C442.954 232.948 443.221 237.507 443.493 242.07C443.738 246.209 443.983 250.354 444.228 254.492C444.385 257.141 444.544 259.79 444.696 262.439L351.731 262.858C353.158 257.674 354.491 252.464 355.722 247.226C357.018 241.75 358.21 236.245 359.299 230.719C359.778 228.272 360.235 225.824 360.676 223.371C360.735 223.056 360.796 222.735 360.85 222.42C361.329 219.706 361.612 216.904 362.233 214.218C362.423 213.407 362.941 212.94 363.529 212.406C364.155 211.841 364.71 211.204 365.195 210.519C366.164 209.121 366.828 207.5 367.068 205.814C369.06 205.346 370.928 203.53 371.401 201.343C371.875 199.162 370.922 196.736 369.093 195.453C370.53 193.984 371.407 191.727 370.906 189.747C370.4 187.767 368.554 186.201 366.512 186.032C367.519 184.477 367.781 182.399 366.991 180.784C366.196 179.163 364.395 178.097 362.598 178.179C365.995 174.344 368.962 170.749 371.766 167.04C372.85 165.609 373.933 163.646 372.932 162.161C372.3 161.226 371.021 160.915 369.915 161.122C368.81 161.334 367.836 161.976 366.916 162.623C361.166 166.681 356.157 171.674 351.285 176.759C346.532 179.135 342.634 183.225 340.597 188.142C338.458 193.304 338.409 199.27 340.364 204.497C340.608 205.15 341.044 205.819 341.213 206.488C341.556 207.831 340.881 209.349 340.467 210.6C339.955 212.161 339.439 213.722 338.921 215.283L338.611 216.23C337.685 219.036 336.755 221.843 335.829 224.649C333.766 230.898 331.702 237.142 329.639 243.386C328.626 246.465 327.608 249.538 326.596 252.611L292.508 213.232C290.112 211.285 287.428 209.599 284.554 208.25C283.002 207.516 281.396 206.88 279.752 206.352C277.356 205.586 274.884 205.042 272.375 204.753L272.233 204.769C272.206 204.601 272.168 204.432 272.119 204.264C272.086 203.676 272.048 203.035 272.005 202.371C271.983 202.023 271.961 201.669 271.939 201.316H277.765C282.132 201.316 286.182 201.604 290.325 199.858C296.75 197.15 301.535 190.743 301.982 183.792C302.2 180.376 301.318 176.922 299.614 173.958C298.759 172.468 297.686 171.092 296.434 169.911C295.857 169.367 295.09 168.943 294.578 168.372C294.001 167.725 293.718 166.67 293.647 165.832C293.577 165.011 293.914 164.511 294.186 163.76C294.485 162.928 294.719 162.068 294.877 161.192C294.98 160.616 294.893 159.806 295.078 159.273C295.546 157.935 297.719 157.238 298.829 156.608C300.288 155.781 301.671 154.808 302.929 153.698C305.427 151.506 307.458 148.759 308.656 145.648C311.139 139.193 309.593 131.126 304.257 126.726C300.675 123.768 295.824 122.669 291.185 122.914C289.699 122.996 287.935 123.061 286.519 123.556C285.365 123.958 284.418 124.29 283.144 124.328C280.552 124.404 277.928 123.686 275.75 122.272C272.505 120.173 269.369 118.378 265.585 117.382C259.531 115.788 253.085 116.006 246.982 117.393C235.271 120.042 224.502 127.162 218.077 137.294C214.418 143.059 212.262 149.771 211.833 156.581C211.495 161.954 212.219 167.681 209.682 172.653C207.183 177.542 203.508 180.915 202.996 186.751C202.365 193.919 206.334 201.382 212.813 204.536C218.959 207.528 226.995 206.206 231.716 201.316H250.913C251.022 202.453 251.136 203.584 251.245 204.721L251.164 204.743C249.683 204.863 248.208 205.048 246.743 205.303C244.924 205.614 243.128 206.027 241.358 206.544H241.357Z" fill="#FFFFFD"/>
<path d="M441.016 195.23L326.959 195.156L316.994 86.9204L303.359 86.7375L314.384 207.326L441.585 207.602L441.016 195.23Z" fill="#99E7FF"/>
<path d="M761.728 345.346C759.202 343.035 757.666 339.755 757.976 336.1C758.069 335.001 758.178 333.908 758.308 332.815C765.305 337.786 772.415 342.703 780.146 346.33C778.659 347.162 777.086 347.826 775.458 348.272C773.547 348.789 771.571 349.006 769.594 348.821C766.617 348.549 763.829 347.282 761.727 345.345L761.728 345.346Z" fill="#359E2A"/>
<path d="M574.469 370.371V377.017L450.557 377.268L450.52 359.46C450.672 359.471 450.824 359.487 450.977 359.499C460.483 348.936 475.995 344.275 489.791 347.566C494.887 349.883 500.054 352.042 505.281 354.054C517.297 358.694 529.59 362.593 541.982 366.112C545.2 367.026 548.428 367.918 551.663 368.783C558.811 370.703 566.374 372.536 573.533 370.643C573.849 370.561 574.159 370.469 574.469 370.371Z" fill="#EBEBEB"/>
<path d="M271.422 175.645C272.282 176.439 272.108 177.859 271.612 178.919C270.442 181.41 267.812 183.151 265.063 183.26C262.308 183.363 259.553 181.824 258.203 179.431C257.854 178.816 257.593 178.136 257.604 177.435C257.62 176.733 257.952 176.004 258.567 175.662C259.607 175.08 261.316 175.531 262.433 175.618C264.393 175.776 266.386 175.738 268.313 175.319C269.374 175.09 270.621 174.911 271.421 175.645H271.422Z" fill="#E1EAEF"/>
<path d="M250.297 194.964C245.49 193.98 240.802 192.37 236.409 190.189C236.577 188.432 236.544 186.659 236.354 184.918C236.033 182.014 235.298 179.175 234.383 176.406C233.937 175.041 233.316 173.709 232.919 172.333C232.587 171.185 232.494 169.331 233.022 168.232C233.343 167.568 233.959 166.959 234.361 166.334C234.808 165.643 235.227 164.936 235.614 164.208C237.116 161.379 238.145 158.295 238.613 155.125L238.592 155.032C239.893 154.744 241.188 154.434 242.473 154.097C242.593 157.518 242.484 161.194 243.595 164.611C244.765 168.211 247.613 171.518 251.359 172.095C255.115 172.682 258.91 170.306 260.821 167.015C262.721 163.746 263.021 159.759 262.59 156.001C264.529 154.973 266.94 154.886 268.944 155.773C268.514 159.531 268.824 163.496 270.719 166.764C272.624 170.055 276.419 172.427 280.181 171.844C283.922 171.263 286.774 167.956 287.945 164.36C287.983 164.246 288.022 164.126 288.048 164.012C288.075 164.801 288.092 165.59 288.108 166.384C292.747 173.052 290.482 182.864 284.613 188.471C281.003 191.914 276.397 194.008 271.497 195.118C268.426 195.819 265.231 196.129 262.1 196.145C258.136 196.167 254.173 195.77 250.296 194.965L250.297 194.964ZM271.612 178.919C272.107 177.859 272.282 176.439 271.422 175.645C270.622 174.911 269.375 175.09 268.313 175.319C266.386 175.738 264.393 175.776 262.433 175.618C261.317 175.531 259.608 175.08 258.568 175.662C257.953 176.005 257.62 176.733 257.604 177.435C257.593 178.136 257.855 178.816 258.203 179.431C259.553 181.824 262.308 183.363 265.063 183.26C267.813 183.151 270.442 181.41 271.612 178.919Z" fill="#FFAE84"/>
<path d="M725.533 160.949C726.507 166.192 724.547 171.702 721.145 175.808C717.736 179.914 713.01 182.754 708.078 184.783C705.154 185.979 702.067 186.936 698.909 186.876C695.751 186.822 692.501 185.625 690.525 183.167C688.728 180.932 688.173 177.891 688.488 175.047C688.804 172.202 689.915 169.505 691.172 166.932C693.448 162.276 696.296 157.805 700.254 154.471C704.212 151.132 709.411 149.027 714.562 149.587C720.426 150.223 724.564 155.706 725.533 160.949Z" fill="#EDA78C"/>
<path d="M449.861 338.727C449.512 338.869 449.153 338.994 448.793 339.108C446.659 339.76 444.068 339.63 442.325 338.395C441.787 338.02 441.329 337.536 440.992 336.943C440.6 336.258 440.409 335.485 440.388 334.697C439.108 336.312 436.517 336.851 434.589 335.921C432.287 334.817 431.018 332.168 430.98 329.617C430.942 327.066 431.943 324.613 433.196 322.389C437.715 314.383 445.86 308.509 454.892 306.741C460.505 305.643 466.396 306.143 471.775 308.047C477.459 310.054 483.105 312.055 489.001 313.257C492.383 313.948 496.259 313.6 499.705 313.742C503.369 313.894 507.028 314.057 510.692 314.231C525.284 314.916 539.875 315.749 554.461 316.586C555.484 316.641 556.502 316.7 557.52 316.76C561.963 311.006 565.508 306.361 568.573 302.271C580.676 317.435 592.779 332.588 604.882 347.752C599.922 351.972 594.962 356.187 590.002 360.408C585.287 364.422 580.354 368.545 574.468 370.373C574.158 370.47 573.848 370.563 573.532 370.645C566.373 372.537 558.81 370.704 551.662 368.784C548.428 367.92 545.199 367.028 541.981 366.114C529.589 362.595 517.296 358.695 505.28 354.056C500.053 352.043 494.886 349.884 489.79 347.567C489.039 347.224 488.287 346.877 487.542 346.528C484.629 345.168 481.749 343.754 478.896 342.281C476.609 341.095 473.571 339.953 470.963 339.92C469.281 339.898 467.664 339.887 465.992 339.577C464.893 339.37 463.804 339.088 462.742 338.729C460.614 338.011 458.588 336.983 456.77 335.65C454.331 336.319 452.207 337.793 449.861 338.729L449.861 338.727Z" fill="#EDA78C"/>
<path d="M272.375 204.754C274.885 205.042 277.357 205.586 279.752 206.353C280.128 208.747 280.035 211.248 279.083 213.468C278.026 215.931 275.778 217.976 273.116 218.308C269.577 218.754 266.12 215.921 265.303 212.45L265.292 212.401C267.29 212.075 269.261 211.237 270.628 209.741C271.852 208.414 272.522 206.527 272.234 204.77L272.375 204.754V204.754Z" fill="#99E7FF"/>
<path d="M271.939 201.317C271.961 201.67 271.983 202.024 272.005 202.372C264.524 203.291 256.727 201.398 250.51 197.145C250.439 196.416 250.368 195.693 250.298 194.964C254.174 195.769 258.138 196.165 262.101 196.144C265.232 196.128 268.428 195.817 271.499 195.116C271.558 195.899 271.76 198.652 271.939 201.317Z" fill="#FF9566"/>
<path d="M453.791 258.573C453.868 259.845 453.938 261.124 454.014 262.397L444.699 262.44C444.547 259.792 444.389 257.143 444.231 254.494C443.986 250.355 443.741 246.21 443.496 242.071C443.224 237.508 442.957 232.949 442.685 228.386C442.397 223.502 442.108 218.624 441.82 213.74C441.515 208.644 441.216 203.547 440.911 198.445C440.606 193.235 440.296 188.018 439.985 182.808C439.675 177.581 439.37 172.354 439.06 167.133C438.755 161.993 438.45 156.859 438.145 151.719C437.851 146.775 437.557 141.831 437.269 136.887C436.991 132.236 436.713 127.586 436.441 122.936C436.191 118.682 435.935 114.429 435.685 110.171C435.663 109.779 435.636 109.382 435.614 108.99C435.353 104.601 435.097 100.212 434.836 95.8222C434.711 93.7445 434.76 91.5637 434.428 89.5078C434.194 88.0662 433.143 86.4889 431.509 86.5599C428.64 86.6847 425.738 86.5816 422.864 86.5925C419.542 86.6034 416.216 86.62 412.889 86.6308C409.165 86.6417 405.441 86.6578 401.723 86.6692C397.65 86.6852 393.578 86.7018 389.505 86.7179C385.134 86.7344 380.761 86.7505 376.39 86.7671C371.762 86.7836 367.134 86.7997 362.512 86.8163C357.677 86.838 352.848 86.8546 348.013 86.8707C343.026 86.8924 338.039 86.909 333.052 86.9308C327.951 86.9473 322.855 86.9634 317.753 86.9851C312.591 87.0069 307.436 87.0235 302.274 87.0447C297.097 87.0613 291.924 87.083 286.752 87.0991C281.613 87.1209 276.468 87.1369 271.328 87.1587C266.27 87.1753 261.212 87.197 256.155 87.2131C251.228 87.2348 246.295 87.2514 241.367 87.2674C236.614 87.2892 231.867 87.3053 227.114 87.3218C222.589 87.3379 218.06 87.3545 213.535 87.3705L200.779 87.4197C196.848 87.4363 192.917 87.4467 188.981 87.4633C185.42 87.4798 181.859 87.4902 178.293 87.5016C175.098 87.5182 171.025 87.1317 168.363 89.3451C165.385 91.8201 166.463 96.1765 166.664 99.5543C167.148 107.713 167.627 115.877 168.112 124.035C168.678 133.57 169.245 143.104 169.805 152.639C170.409 162.783 171.008 172.932 171.607 183.075L173.387 213.082L175.004 240.38C175.445 247.821 175.886 255.261 176.327 262.697C176.343 263.017 176.364 263.333 176.381 263.654L166.788 263.697C166.293 255.115 165.792 246.526 165.285 237.944C164.725 228.268 164.158 218.592 163.592 208.922C163.004 198.799 162.416 188.684 161.823 178.567C161.246 168.624 160.663 158.682 160.086 148.744C159.553 139.602 159.019 130.464 158.486 121.327C158.034 113.609 157.588 105.891 157.135 98.1728C157.021 96.2039 156.493 93.9304 156.76 92.0211C157.239 88.6707 158.883 85.4835 161.371 83.1773C166.581 78.3584 173.452 79.2882 179.991 79.2665C185.735 79.2447 191.479 79.223 197.229 79.2012C203.767 79.1743 210.312 79.152 216.856 79.1251C224.015 79.0981 231.18 79.0707 238.345 79.0489C245.951 79.0163 253.562 78.9893 261.169 78.9619C269.047 78.9349 276.925 78.9023 284.809 78.8749C292.78 78.8422 300.755 78.8153 308.726 78.7827C316.621 78.7557 324.515 78.7283 332.41 78.6956C340.048 78.6687 347.682 78.6412 355.32 78.6086C362.529 78.5869 369.732 78.5594 376.94 78.5325C383.539 78.5055 390.143 78.4838 396.742 78.4563C402.557 78.4346 408.376 78.4128 414.197 78.3911C419.059 78.3745 423.915 78.3527 428.777 78.3367C430.128 78.331 431.548 78.1896 432.872 78.2714C435.79 78.4454 438.795 80.289 440.673 82.4428C443.619 85.815 443.923 90.3019 444.174 94.5608C444.326 97.1716 444.479 99.7766 444.631 102.382C444.991 108.544 445.355 114.712 445.714 120.875L446.972 142.331C447.429 150.136 447.892 157.936 448.349 165.74C448.822 173.85 449.302 181.965 449.775 190.08L451.196 214.344C451.654 222.067 452.105 229.79 452.557 237.514C452.971 244.536 453.379 251.552 453.793 258.573L453.791 258.573Z" fill="#112A35"/>
<path d="M268.945 155.771C268.95 155.744 268.95 155.717 268.956 155.689C271.569 152.676 275.054 150.963 278.696 150.598C281.717 150.294 284.826 150.919 287.51 152.344C287.733 156.195 287.935 160.062 288.049 164.011C288.022 164.125 287.984 164.245 287.946 164.359C286.775 167.954 283.923 171.261 280.182 171.843C276.42 172.425 272.625 170.054 270.719 166.763C268.825 163.494 268.515 159.529 268.945 155.771Z" fill="#E1EAEF"/>
<path d="M232.543 263.397L205.947 263.517C206.981 255.261 208.152 246.999 210.623 239.063C213.346 230.301 217.772 221.865 224.583 215.708C229.358 211.396 235.167 208.344 241.357 206.544C239.697 209.122 239.866 212.712 241.183 215.551C242.669 218.743 245.337 221.213 248.326 223.421C251.876 236.398 253.667 249.854 253.629 263.305L232.543 263.397Z" fill="#00BFFB"/>
<path d="M262.591 156C263.021 159.758 262.722 163.745 260.822 167.013C258.911 170.303 255.116 172.681 251.359 172.093C247.613 171.517 244.766 168.21 243.595 164.609C242.485 161.193 242.594 157.517 242.474 154.095C245.708 153.247 248.876 152.203 251.893 150.788C252.209 150.794 252.53 150.815 252.845 150.848C256.482 151.212 259.972 152.926 262.585 155.944C262.585 155.961 262.59 155.982 262.59 155.998L262.591 156Z" fill="#E1EAEF"/>
<path d="M287.391 150.31C287.429 150.99 287.472 151.664 287.511 152.344C284.827 150.919 281.718 150.294 278.696 150.599C275.054 150.964 271.57 152.677 268.956 155.69C268.951 155.717 268.951 155.744 268.945 155.772C266.942 154.885 264.53 154.972 262.592 156C262.592 155.983 262.587 155.962 262.587 155.946C259.973 152.927 256.484 151.214 252.847 150.85C252.531 150.817 252.21 150.795 251.894 150.79C252.477 150.518 253.054 150.23 253.626 149.931C260.388 146.363 266.273 140.341 267.797 132.868L267.835 132.879C272.686 132.237 277.788 133.826 281.414 137.106C285.045 140.385 287.131 145.302 287.392 150.311L287.391 150.31Z" fill="#FFAE84"/>
<path d="M242.452 153.563C245.179 151.648 248.555 150.664 251.893 150.789C248.877 152.203 245.708 153.247 242.474 154.096C242.469 153.917 242.458 153.743 242.452 153.563Z" fill="#E1EAEF"/>
<path d="M289.09 153.313C288.932 156.772 289.106 160.514 288.05 164.011C287.936 160.063 287.734 156.196 287.511 152.344C288.056 152.632 288.583 152.959 289.09 153.313Z" fill="#E1EAEF"/>
<path d="M238.592 155.031L238.613 155.124C238.145 158.295 237.116 161.378 235.614 164.207C235.227 164.935 234.808 165.643 234.361 166.333C233.959 166.959 233.344 167.567 233.022 168.231C232.494 169.33 232.587 171.185 232.919 172.332C233.316 173.708 233.937 175.041 234.383 176.405C235.298 179.174 236.033 182.013 236.354 184.917C236.544 186.658 236.577 188.431 236.409 190.188C236.071 193.957 234.846 197.612 232.451 200.5C232.217 200.783 231.972 201.055 231.716 201.316C226.996 206.206 218.96 207.527 212.813 204.536C206.334 201.381 202.365 193.919 202.996 186.75C203.508 180.915 207.183 177.542 209.682 172.653C212.219 167.681 211.495 161.954 211.833 156.58C212.262 149.771 214.418 143.059 218.077 137.294C224.502 127.161 235.271 120.041 246.982 117.393C253.085 116.006 259.531 115.788 265.585 117.382C269.369 118.377 272.505 120.172 275.75 122.272C277.928 123.686 280.552 124.404 283.144 124.328C284.418 124.29 285.365 123.958 286.519 123.555C287.935 123.06 289.699 122.995 291.185 122.913C295.824 122.669 300.675 123.768 304.257 126.726C309.593 131.126 311.139 139.192 308.656 145.648C307.458 148.759 305.428 151.506 302.929 153.698C301.671 154.807 300.288 155.78 298.829 156.607C297.719 157.238 295.546 157.934 295.078 159.272C294.893 159.805 294.98 160.615 294.877 161.192C294.719 162.068 294.485 162.927 294.186 163.759C293.914 164.51 293.576 165.01 293.647 165.832C293.718 166.669 294.001 167.724 294.578 168.372C295.09 168.943 295.857 169.367 296.434 169.911C297.686 171.091 298.759 172.467 299.614 173.957C301.318 176.921 302.2 180.375 301.982 183.791C301.535 190.742 296.75 197.149 290.325 199.858C286.182 201.603 282.132 201.315 277.765 201.315H271.939C271.76 198.65 271.558 195.898 271.499 195.115C276.399 194.005 281.005 191.911 284.614 188.469C290.484 182.861 292.748 173.049 288.11 166.381C288.094 165.587 288.077 164.798 288.05 164.01C289.106 160.512 288.932 156.771 289.09 153.311C288.584 152.958 288.055 152.631 287.511 152.343C287.473 151.663 287.429 150.989 287.391 150.309C287.13 145.299 285.045 140.382 281.413 137.103C277.787 133.823 272.686 132.235 267.834 132.877L267.796 132.866C266.272 140.339 260.387 146.36 253.625 149.928C253.053 150.227 252.476 150.515 251.893 150.787C248.556 150.662 245.18 151.647 242.453 153.561C242.458 153.741 242.469 153.915 242.474 154.094C241.189 154.432 239.894 154.741 238.593 155.03L238.592 155.031Z" fill="#112A35"/>
<path d="M351.288 176.76C356.16 171.674 361.169 166.681 366.919 162.624C367.839 161.977 368.814 161.335 369.919 161.123C371.023 160.916 372.303 161.226 372.935 162.162C373.937 163.647 372.853 165.61 371.77 167.041C368.966 170.75 365.998 174.345 362.601 178.18C364.398 178.098 366.2 179.164 366.995 180.785C367.784 182.4 367.522 184.478 366.515 186.034C368.557 186.202 370.403 187.769 370.909 189.748C371.41 191.728 370.533 193.985 369.096 195.454C370.925 196.737 371.878 199.163 371.405 201.344C370.931 203.531 369.063 205.348 367.071 205.815C366.831 207.501 366.167 209.122 365.198 210.52C364.714 211.205 364.158 211.842 363.532 212.407C362.944 212.94 362.427 213.408 362.236 214.219C361.615 216.906 361.332 219.707 360.853 222.421C360.799 222.736 360.739 223.057 360.679 223.372L338.613 216.231L338.923 215.285C339.44 213.724 339.957 212.163 340.469 210.602C340.883 209.351 341.558 207.833 341.214 206.49C341.046 205.82 340.61 205.152 340.365 204.499C338.411 199.272 338.46 193.306 340.599 188.144C342.635 183.227 346.534 179.137 351.286 176.76L351.288 176.76Z" fill="#FFAE84"/>
<path d="M250.51 197.145C250.646 198.537 250.776 199.924 250.913 201.316H231.715C231.971 201.055 232.216 200.783 232.45 200.501C234.846 197.613 236.07 193.957 236.408 190.188C240.801 192.37 245.489 193.98 250.297 194.964C250.367 195.693 250.438 196.416 250.509 197.145H250.51Z" fill="#112A35"/>
<path d="M250.913 201.317C250.777 199.925 250.646 198.538 250.51 197.146C256.728 201.399 264.524 203.292 272.005 202.373C272.048 203.036 272.086 203.678 272.119 204.265C272.168 204.434 272.206 204.603 272.233 204.771C272.521 206.528 271.852 208.415 270.627 209.742C269.261 211.238 267.29 212.076 265.291 212.402C265.215 212.419 265.139 212.43 265.063 212.44C259.444 213.256 253.483 209.96 251.19 204.777L251.163 204.745L251.245 204.723C251.136 203.586 251.022 202.454 250.913 201.318V201.317Z" fill="#FFAE84"/>
<path d="M265.063 212.439C265.139 212.428 265.215 212.418 265.292 212.401L265.302 212.45C265.101 215.812 262.063 218.955 258.54 219.57C255.017 220.184 251.305 218.477 249.127 215.643C246.955 212.809 246.236 209.018 246.775 205.488L246.742 205.303C248.207 205.047 249.682 204.862 251.163 204.742L251.19 204.775C253.482 209.958 259.444 213.254 265.063 212.438V212.439Z" fill="#99E7FF"/>
<path d="M284.554 208.251C285.322 210.732 284.897 213.532 283.835 215.931C282.616 218.689 280.634 221.027 279.442 222.866C279.012 236.311 279.431 249.789 280.683 263.179L253.63 263.305C253.668 249.854 251.877 236.398 248.327 223.42C245.338 221.212 242.67 218.743 241.184 215.55C239.866 212.711 239.698 209.122 241.358 206.544C243.127 206.027 244.924 205.613 246.742 205.303L246.775 205.488C246.236 209.019 246.954 212.809 249.127 215.643C251.305 218.477 255.018 220.184 258.54 219.57C262.063 218.956 265.101 215.812 265.302 212.451C266.119 215.921 269.576 218.754 273.115 218.309C275.777 217.977 278.026 215.932 279.082 213.468C280.035 211.249 280.127 208.747 279.752 206.354C281.396 206.882 283.002 207.518 284.554 208.252L284.554 208.251Z" fill="#FFFBFF"/>
<path d="M301.302 263.087L280.683 263.179C279.431 249.789 279.012 236.311 279.442 222.866C280.634 221.027 282.616 218.689 283.836 215.931C284.897 213.532 285.322 210.732 284.554 208.251C287.429 209.6 290.113 211.286 292.508 213.233L326.596 252.612C327.609 249.539 328.627 246.466 329.639 243.387C331.703 237.143 333.766 230.899 335.83 224.65C336.755 221.844 337.686 219.037 338.612 216.231L360.678 223.372C360.237 225.825 359.78 228.272 359.301 230.72C358.212 236.246 357.02 241.75 355.724 247.227C354.493 252.465 353.16 257.676 351.733 262.859L301.302 263.087Z" fill="#00BFFB"/>
<path d="M232.543 263.397L253.629 263.305L280.683 263.18L301.301 263.088L351.733 262.859L444.698 262.44L454.013 262.397C454.291 267.101 454.569 271.806 454.841 276.516C454.841 281.721 456.926 287.307 453.338 291.827C448.558 297.853 439.754 297.206 432.84 297.233C427.199 297.255 421.565 297.276 415.924 297.298C409.293 297.32 402.667 297.347 396.036 297.369C388.631 297.396 381.221 297.429 373.817 297.456C365.841 297.483 357.864 297.511 349.894 297.543C342.103 297.576 334.322 297.598 326.537 297.63C325.992 297.63 325.442 297.635 324.898 297.635C316.421 297.668 307.944 297.701 299.467 297.728C293.282 297.749 287.103 297.777 280.918 297.799C278.691 297.809 276.459 297.815 274.232 297.826C266.098 297.852 257.964 297.885 249.83 297.913C242.18 297.945 234.536 297.972 226.886 298C219.939 298.027 212.987 298.054 206.04 298.076C200.002 298.103 193.958 298.124 187.92 298.146C181.071 298.174 175.512 296.406 171.462 290.32C166.829 283.358 166.79 271.816 166.79 263.761C166.79 263.739 166.79 263.717 166.785 263.696L176.378 263.652L205.947 263.516L232.543 263.396L232.543 263.397Z" fill="#112A35"/>
<path d="M703.172 207.903C702.987 211.928 702.802 215.958 702.611 219.983C698.244 226.347 691.08 230.736 683.408 231.699C675.481 232.688 663.274 229.593 661.45 223.774C661.456 223.763 661.456 223.752 661.456 223.741C676.652 223.671 691.766 217.928 703.172 207.903Z" fill="#EDA78C"/>
<path d="M638.377 207.196C632.296 216.11 627.624 226.004 624.613 236.371C622.065 238.079 619.583 239.928 617.138 241.919C614.378 244.17 611.748 246.564 609.233 249.065C611.683 232.363 617.857 216.208 627.162 202.121C630.744 204.096 634.506 205.782 638.378 207.196L638.377 207.196Z" fill="#0096FF"/>
<path d="M281.2 376.615C276.72 376.615 272.348 373.885 270.241 369.908C267.992 365.661 268.303 360.26 270.774 356.137C273.05 352.335 277.139 349.327 281.489 348.332C290.723 348.37 299.99 348.441 309.3 348.549C320.505 348.685 331.764 348.876 343.083 349.137L342.936 369.756L342.881 377.485L281.201 377.61V376.615H281.2Z" fill="#E1EAEF"/>
<path d="M123.854 284.44L125.438 287.987C124.632 288.085 123.826 288.188 123.021 288.291L123.853 284.44H123.854Z" fill="#016BA6"/>
<path d="M125.439 287.987L127.878 293.437L121.812 293.904L123.021 288.291C123.827 288.188 124.633 288.085 125.439 287.987Z" fill="#99E6FD"/>
<path d="M450.52 359.46C422.693 357.056 391.915 356.953 364.605 358.22C364.6 358.106 364.6 357.992 364.594 357.883C370.948 346.021 384.369 338.755 398.159 336.166C411.95 333.577 426.188 335.165 439.984 337.721C440.888 337.889 441.361 338.298 442.254 338.499L442.325 338.396C444.067 339.63 446.659 339.761 448.793 339.108C449.152 338.994 449.512 338.869 449.86 338.728H462.742C463.803 339.087 464.892 339.369 465.992 339.576C467.663 339.886 469.28 339.897 470.962 339.919C473.57 339.952 476.609 341.094 478.895 342.28C481.748 343.754 484.628 345.167 487.541 346.527C488.287 346.875 489.039 347.223 489.79 347.566C475.993 344.276 460.481 348.937 450.975 359.499C450.823 359.488 450.67 359.472 450.518 359.461L450.52 359.46Z" fill="#E1EAEF"/>
<path d="M164.574 284.941L165.265 288.427L162.777 288.003L164.574 284.941Z" fill="#016BA6"/>
<path d="M294.931 390.381C293.962 396.902 292.999 403.423 292.03 409.945H97.6606C98.5971 403.652 99.5279 397.354 100.459 391.061L294.931 390.381Z" fill="#016BA6"/>
<path d="M97.6606 409.945C96.9202 414.965 96.1745 419.98 95.4341 425H80.1895C81.8607 413.703 83.5376 402.412 85.2093 391.115L100.459 391.061C99.5284 397.354 98.5971 403.652 97.6606 409.945Z" fill="#2A53AD"/>
<path d="M264.605 348.3C270.218 348.3 275.848 348.305 281.489 348.332C277.139 349.328 273.05 352.335 270.774 356.138C268.302 360.26 267.992 365.661 270.24 369.909C272.347 373.885 276.719 376.615 281.2 376.615V377.611L218.354 377.736V376.615C213.873 376.615 209.496 373.885 207.394 369.909C205.146 365.661 205.456 360.26 207.922 356.138C210.388 352.02 214.859 349.236 219.611 348.528C234.513 348.392 249.513 348.305 264.605 348.3Z" fill="#D81259"/>
<path d="M165.265 288.428L166.207 293.149L160.299 292.218L162.777 288.003L165.265 288.428Z" fill="#99E6FD"/>
<path d="M107.145 290.01C109.116 298.837 111.092 307.66 113.069 316.487H106.835C104.962 308.106 103.084 299.724 101.211 291.343L107.145 290.01Z" fill="#59D9FD"/>
<path d="M364.747 377.442L342.881 377.485L342.936 369.757H364.725C364.725 372.329 364.725 374.912 364.747 377.442Z" fill="#D18915"/>
<path d="M127.878 293.437C128.455 301.122 129.032 308.802 129.614 316.487H123.511L121.812 293.904L127.878 293.437Z" fill="#0A81D1"/>
<path d="M292.03 409.945C292.999 403.423 293.962 396.902 294.931 390.381L310.181 390.326C309.207 396.929 308.227 403.526 307.247 410.129C306.517 415.084 305.783 420.044 305.047 424.999H289.803C290.543 419.979 291.289 414.964 292.029 409.944L292.03 409.945Z" fill="#2A53AD"/>
<path d="M134.002 316.438C134.824 292.518 135.543 264.431 136.436 243.518H148.125C147.472 258.904 146.905 278.169 146.328 296.803L146.323 296.933L143.955 296.841C143.688 303.384 143.421 309.922 143.155 316.465V316.487H134.003V316.438H134.002Z" fill="#58D7FC"/>
<path d="M150.031 297.081C149.77 303.548 149.498 310.014 149.236 316.487H143.155V316.465C143.421 309.922 143.688 303.384 143.955 296.841L146.323 296.934L150.031 297.08L150.031 297.081Z" fill="#0A81D1"/>
<path d="M364.725 369.756C364.72 365.802 364.709 361.875 364.605 358.22C391.915 356.953 422.692 357.056 450.52 359.46L450.557 377.267L364.747 377.441C364.725 374.912 364.725 372.329 364.725 369.756Z" fill="#EBEBEB"/>
<path d="M166.207 293.148C164.791 300.888 163.382 308.633 161.966 316.373L161.971 316.438C161.683 316.46 161.416 316.487 161.215 316.487H155.879V316.438C157.349 308.367 158.824 300.29 160.3 292.218L166.207 293.148Z" fill="#59D9FD"/>
<path d="M113.069 316.487H161.214C161.415 316.487 161.682 316.46 161.971 316.438C162.766 316.384 163.729 316.384 163.909 317.183C164.023 317.673 163.773 318.456 163.719 318.956C163.561 320.311 163.403 321.665 163.245 323.014C162.859 326.391 162.467 329.769 162.08 333.146C161.628 337.04 161.176 340.929 160.73 344.823C160.273 348.772 159.815 352.726 159.364 356.675C158.95 360.227 158.542 363.784 158.133 367.335C157.817 370.033 157.507 372.731 157.197 375.429C157.099 376.239 157.006 377.05 156.919 377.86L111.964 377.947L111.883 377.229C111.61 374.895 111.338 372.557 111.072 370.223C110.685 366.89 110.299 363.555 109.918 360.221C109.471 356.344 109.019 352.465 108.573 348.593C108.116 344.628 107.658 340.668 107.201 336.709C106.787 333.119 106.373 329.529 105.96 325.945C105.639 323.182 105.334 320.425 105.001 317.667C104.871 316.546 105.502 316.486 106.406 316.486H113.07L113.069 316.487Z" fill="#00BFFB"/>
<path d="M622.375 172.839C622.669 175.689 622.784 178.604 622.103 181.383C621.423 184.168 619.849 186.828 617.399 188.312C615.444 189.492 613.104 189.818 610.822 189.525C609.494 188.089 608.241 186.583 607.071 185.005C603.815 180.616 601.283 175.813 599.328 170.755C597.053 164.875 595.561 158.648 594.63 152.306C597.668 149.331 602.035 147.444 606.379 148.521C611.41 149.766 615.564 153.53 618.134 158.022C620.704 162.515 621.842 167.693 622.375 172.838V172.839Z" fill="#EDA78C"/>
<path d="M703.21 207.071C703.199 207.349 703.183 207.626 703.172 207.903C691.766 217.927 676.652 223.671 661.457 223.742C661.833 220.119 662.224 216.377 662.611 212.652C674.317 213.816 686.229 212.951 697.374 209.28C699.356 208.627 701.305 207.887 703.21 207.071Z" fill="#FF8570"/>
<path d="M844.789 162.999L853.925 181.312C851.617 182.569 849.456 184.113 847.582 185.952L837.831 166.426L837.815 166.154C840.14 165.3 842.41 164.277 844.588 163.102L844.789 162.999Z" fill="#FDC242"/>
<path d="M783.571 268.548C773.21 260.428 762.85 252.302 752.488 244.181C737.935 232.77 721.232 219.776 702.731 220.081L702.611 219.994V219.984C698.245 226.347 691.08 230.736 683.409 231.699C675.482 232.689 663.275 229.594 661.451 223.775C661.451 223.764 661.445 223.753 661.445 223.742C660.983 223.748 660.514 223.748 660.051 223.736C645.983 225.189 634.767 229.594 624.613 236.371C622.065 238.079 619.583 239.928 617.138 241.919C614.378 244.171 611.748 246.564 609.233 249.066C600.353 257.893 592.834 268.108 585.674 278.415C579.43 287.411 575.079 293.589 568.573 302.27C580.676 317.434 592.779 332.587 604.882 347.751C605.514 348.534 606.14 349.323 606.766 350.106C607.011 348.572 607.256 347.044 607.507 345.515C609.417 333.778 611.449 322.057 613.605 310.363C617.53 280.563 634.353 252.221 658.99 234.218C665.077 239.591 673.249 242.594 681.378 242.338C686.273 242.185 691.107 240.853 695.43 238.563C704.239 280.454 730.297 315.427 749.984 334.898C754.285 339.151 758.281 342.665 761.727 345.346C759.201 343.035 757.666 339.755 757.976 336.1C758.069 335.001 758.178 333.908 758.308 332.815C759.566 322.046 762.599 311.45 767.749 301.916C773.411 291.413 782.444 281.802 792.712 275.716C789.664 273.328 786.62 270.935 783.571 268.548Z" fill="#359E2A"/>
<path d="M878.006 201.295C878.561 203.085 878.529 204.999 878.382 206.865C878.153 206.821 877.92 206.794 877.674 206.794C876.526 206.783 875.409 207.164 874.353 207.61C869.736 209.557 865.734 212.935 863.039 217.161C862.952 217.297 862.87 217.433 862.789 217.574C860.851 218.27 858.482 217.433 857.203 215.779C855.815 213.985 855.597 211.472 856.229 209.296C856.392 208.736 856.605 208.198 856.86 207.675C857.595 206.169 858.668 204.82 859.844 203.613C862.316 201.078 865.321 199.061 868.604 197.733C870.079 197.135 871.702 196.678 873.249 196.869C873.625 196.918 873.995 196.999 874.354 197.13C876.156 197.777 877.435 199.469 878.007 201.296L878.006 201.295Z" fill="#FFC3A8"/>
<path d="M847.582 185.952C849.455 184.113 851.617 182.569 853.925 181.312C854.671 180.909 855.434 180.529 856.206 180.186C858.079 179.349 860.067 178.691 862.119 178.642C864.166 178.587 866.295 179.202 867.77 180.627C869.24 182.052 869.921 184.353 869.142 186.245L869.148 186.311C868.076 186.381 866.97 186.675 865.963 187.039C861.553 188.617 857.513 191.217 854.252 194.578C853.24 195.617 852.298 196.748 851.585 198.004C851.111 197.917 850.653 197.727 850.251 197.46C850.844 197.004 851.416 196.519 851.96 195.997C853.447 194.572 854.726 192.772 854.9 190.716C855.074 188.665 853.811 186.403 851.786 186.017C850.289 185.734 848.819 186.474 847.452 187.142C846.94 187.393 846.423 187.638 845.906 187.871L845.878 187.806C846.412 187.159 846.984 186.538 847.583 185.951L847.582 185.952Z" fill="#FFC3A8"/>
<path d="M742.433 25.0996C742.248 24.7136 742.019 24.3055 741.758 23.8812C753.839 27.716 759.18 35.2269 761.75 41.014C762.768 43.304 763.35 45.3165 763.742 46.7358C769.764 68.4699 769.802 91.1556 768.158 113.782C767.875 117.687 767.543 121.593 767.183 125.487C764.526 148.602 754.846 143.435 753.73 140.308C752.613 137.175 752.853 133.748 753.049 130.431C753.447 123.702 753.61 116.964 753.561 110.23C753.561 109.518 753.55 108.811 753.539 108.103C753.213 83.3017 750.077 58.5275 745.384 34.1391C744.806 30.9736 743.799 27.9496 742.433 25.0996Z" fill="#0096FF"/>
<path d="M594.63 152.306C595.561 158.648 597.053 164.875 599.328 170.755L599.1 170.842C593.318 171.925 586.942 170.092 582.924 165.751C578.792 161.286 577.311 154.993 576.707 148.945C576.282 144.67 576.217 140.362 576.505 136.076C576.766 132.242 577.311 128.429 578.138 124.676C579.179 119.955 580.779 115.136 584.198 111.721C586.703 109.224 590.41 107.712 593.835 108.066C593.579 117.557 593.089 127.053 593.334 136.538C593.471 141.782 593.857 147.079 594.63 152.306Z" fill="#016BA6"/>
<path d="M634.615 139.96C638.749 139.96 642.101 136.612 642.101 132.481C642.101 128.351 638.749 125.003 634.615 125.003C630.48 125.003 627.129 128.351 627.129 132.481C627.129 136.612 630.48 139.96 634.615 139.96Z" fill="black"/>
<path d="M761.635 168.096C759.321 170.206 756.61 171.903 753.708 172.942H753.702C746.837 173.796 741.61 168.003 738.909 162.303C735.931 156.021 735.425 148.847 735.866 141.912C736.394 133.618 738.343 125.122 743.401 118.519C746.14 114.951 749.641 111.938 753.561 110.23C753.609 116.964 753.446 123.702 753.049 130.431C752.853 133.748 752.613 137.175 753.729 140.308C754.846 143.435 764.526 148.602 767.182 125.487C767.542 121.593 767.874 117.687 768.157 113.782L768.26 113.787C770.209 115.653 771.603 117.818 772.605 119.988C773.814 122.609 774.45 125.242 774.788 127.369C775.844 133.939 774.581 140.662 772.801 147.074C771.897 150.337 770.835 153.606 769.458 156.707C767.993 160.019 766.175 163.135 763.812 165.871C763.137 166.655 762.407 167.4 761.634 168.096H761.635Z" fill="#0096FF"/>
<path d="M661.456 223.742C661.456 223.752 661.456 223.763 661.45 223.774C661.45 223.763 661.445 223.752 661.445 223.742C661.448 223.745 661.452 223.745 661.455 223.742H661.456Z" fill="#A66E6E"/>
<path d="M851.584 198.004C852.298 196.748 853.239 195.617 854.252 194.578C857.513 191.217 861.553 188.617 865.963 187.039C866.97 186.675 868.075 186.381 869.148 186.311C870.356 186.229 871.532 186.43 872.507 187.137C873.879 188.127 874.478 189.922 874.451 191.608C874.424 193.3 873.857 194.926 873.296 196.525L873.248 196.868C871.701 196.677 870.079 197.134 868.603 197.732C865.32 199.06 862.315 201.077 859.843 203.612C858.667 204.819 857.595 206.168 856.859 207.674C855.002 208.496 852.634 207.647 851.436 205.988C850.189 204.253 850.081 201.887 850.745 199.864C850.957 199.217 851.24 198.596 851.583 198.004L851.584 198.004Z" fill="#FFC3A8"/>
<path d="M764.227 172.055C765.386 174.111 766.138 176.309 765.484 178.506C764.755 180.981 762.261 182.694 759.691 182.949C757.121 183.205 754.546 182.188 752.728 180.436C752.102 185.386 747.283 188.954 742.362 189.802C738.169 190.526 733.912 189.721 729.757 188.687L729.638 188.573C734.227 183.873 738.343 178.674 741.931 173.153L741.936 173.137C743.025 173.518 744.153 173.79 745.312 173.937C748.165 174.301 751.013 173.904 753.702 172.941H753.708C756.61 171.902 759.321 170.205 761.635 168.095C761.831 168.4 762.032 168.693 762.234 168.976C762.92 169.95 763.628 170.983 764.227 172.055V172.055Z" fill="#112A35"/>
<path d="M684.318 159.366C685.461 165.882 682.766 172.931 677.567 177.026C672.367 181.121 664.876 182.089 658.8 179.457C655.239 177.912 652.25 175.166 650.279 171.837C649.364 170.287 647.965 166.801 647.774 164.979C647.774 164.979 673.734 161.302 684.318 159.366Z" fill="#E1EAEF"/>
<path d="M775.459 348.272L775.481 348.343L769.013 424.999H743.07C745.237 395.591 747.844 364.186 749.984 334.897C754.286 339.151 758.282 342.664 761.729 345.345C763.83 347.282 766.618 348.549 769.596 348.821C771.572 349.006 773.548 348.789 775.46 348.272L775.459 348.272Z" fill="#016BA6"/>
<path d="M789.544 349.899L782.836 425H769.013L775.481 348.343L775.459 348.273C777.087 347.827 778.66 347.163 780.146 346.331C781.9 347.153 783.685 347.909 785.51 348.583C786.832 349.072 788.177 349.513 789.544 349.899L789.544 349.899Z" fill="#0096FF"/>
<path d="M704.92 206.304C704.348 206.854 703.766 207.387 703.172 207.903C703.183 207.626 703.199 207.349 703.21 207.071C703.787 206.821 704.354 206.571 704.92 206.304Z" fill="#A66E6E"/>
<path d="M685.004 140.193C689.138 140.193 692.49 136.845 692.49 132.715C692.49 128.585 689.138 125.237 685.004 125.237C680.87 125.237 677.518 128.585 677.518 132.715C677.518 136.845 680.87 140.193 685.004 140.193Z" fill="black"/>
<path d="M661.445 223.742C660.983 223.747 660.514 223.747 660.051 223.736C660.498 223.682 660.95 223.638 661.402 223.601C661.413 223.649 661.429 223.693 661.445 223.742V223.742Z" fill="#A66E6E"/>
<path d="M753.539 108.104C753.55 108.811 753.561 109.518 753.561 110.231C749.641 111.939 746.14 114.952 743.402 118.52C738.344 125.123 736.395 133.618 735.867 141.913C735.425 148.847 735.932 156.021 738.91 162.303C741.61 168.004 746.837 173.796 753.703 172.942C751.013 173.905 748.166 174.302 745.313 173.938C744.153 173.791 743.026 173.519 741.937 173.138C736.547 171.262 732.115 166.753 729.638 161.532C726.665 155.255 726.154 148.076 726.594 141.141C726.85 137.078 727.449 132.977 728.587 129.066C729.774 124.987 731.549 121.12 734.13 117.747C738.894 111.536 745.977 107.006 753.539 108.104Z" fill="#016BA6"/>
<path d="M584.198 111.721C580.779 115.136 579.179 119.955 578.138 124.676C577.311 128.429 576.766 132.242 576.505 136.076L576.467 136.071C577.529 120.613 581.737 105.384 588.733 91.5581C590.438 91.6503 592.147 91.6451 593.846 91.5472C594.053 97.0457 593.982 102.556 593.835 108.066C590.411 107.712 586.703 109.224 584.198 111.721Z" fill="#0096FF"/>
<path d="M660.051 223.736C645.983 225.188 634.767 229.594 624.613 236.371C627.624 226.004 632.296 216.11 638.377 207.196C643.413 209.04 648.634 210.433 653.866 211.401C656.758 211.939 659.676 212.358 662.61 212.652C662.223 216.378 661.832 220.12 661.456 223.742C661.452 223.745 661.449 223.745 661.445 223.742C661.429 223.693 661.412 223.649 661.402 223.6C660.949 223.638 660.498 223.681 660.051 223.736V223.736Z" fill="#016BA6"/>
<path d="M752.488 244.181C737.935 232.77 721.232 219.776 702.731 220.081L702.611 219.994V219.983C702.802 215.959 702.987 211.928 703.172 207.904C703.766 207.387 704.348 206.854 704.92 206.305C714.17 202.057 722.484 195.922 729.638 188.574L729.758 188.688C733.912 189.722 738.169 190.527 742.362 189.803C747.284 188.955 752.102 185.387 752.728 180.438C754.547 182.189 757.122 183.206 759.692 182.95C762.261 182.694 764.755 180.981 765.485 178.507C766.138 176.31 765.387 174.112 764.227 172.056C769.334 171.056 774.49 170.457 779.635 171.066C787.393 171.991 795.239 176.25 798.228 183.462C801.315 190.924 798.647 199.366 796.295 207.089C790.176 227.154 786.332 247.751 783.571 268.549C773.211 260.429 762.849 252.303 752.489 244.183L752.488 244.181Z" fill="#016BA6"/>
<path d="M780.146 346.331C772.415 342.703 765.305 337.786 758.309 332.815C759.566 322.046 762.599 311.451 767.75 301.916C773.412 291.414 782.445 281.803 792.712 275.717C794.1 276.805 795.494 277.898 796.883 278.985C798.446 280.209 800.008 281.438 801.571 282.662L801.68 282.722C812.58 262.701 823.572 242.55 835.076 221.643C832.196 214.621 829.512 206.685 832.322 199.637C833.552 196.547 835.741 193.98 838.283 191.881C839.562 190.825 840.406 190.091 841.98 189.498C843.303 189.003 844.615 188.459 845.905 187.872C846.422 187.638 846.94 187.393 847.452 187.143C848.818 186.474 850.288 185.734 851.785 186.017C853.811 186.403 855.074 188.666 854.9 190.717C854.725 192.773 853.446 194.573 851.96 195.998C851.415 196.52 850.843 197.004 850.25 197.461C850.653 197.727 851.11 197.918 851.584 198.005C851.241 198.598 850.958 199.218 850.746 199.865C850.082 201.888 850.19 204.255 851.437 205.989C852.635 207.648 855.003 208.496 856.86 207.675C856.605 208.198 856.392 208.736 856.229 209.296C855.597 211.472 855.815 213.985 857.203 215.779C858.483 217.433 860.851 218.27 862.789 217.574C862.87 217.433 862.952 217.297 863.039 217.161C865.734 212.935 869.736 209.557 874.353 207.61C875.409 207.164 876.526 206.783 877.674 206.794C877.92 206.794 878.153 206.821 878.382 206.865C880.543 207.316 881.692 209.758 881.725 211.901C881.758 213.511 881.279 215.088 880.74 216.611C878.366 223.312 874.598 230.22 869.807 235.501C866.927 238.672 865.348 242.283 864.515 246.488C863.818 250.007 863.11 253.521 862.37 257.023C860.906 263.953 859.337 270.86 857.552 277.713C853.479 293.377 848.274 308.818 840.854 323.237C835.573 333.495 828.669 343.671 818.232 348.61C809.379 352.793 799.029 352.607 789.545 349.899C788.178 349.513 786.833 349.072 785.51 348.583C783.686 347.909 781.9 347.153 780.147 346.331L780.146 346.331Z" fill="#EDA78C"/>
<path d="M792.712 275.716C789.663 273.328 786.62 270.935 783.571 268.548C786.331 247.749 790.175 227.152 796.295 207.087C798.647 199.364 801.315 190.923 798.228 183.461C795.239 176.249 787.393 171.99 779.635 171.065C774.489 170.456 769.334 171.054 764.227 172.055C763.628 170.983 762.92 169.95 762.234 168.976C762.033 168.694 761.831 168.4 761.635 168.095C762.408 167.399 763.138 166.654 763.813 165.871C766.176 163.135 767.994 160.019 769.459 156.706L769.715 156.815C776.684 156.004 783.669 155.787 790.535 157.07C801.865 159.186 812.988 166.284 816.565 177.227C820.159 188.241 815.552 200.032 811.768 210.986C804.216 232.813 799.725 256.059 796.883 278.984C795.495 277.897 794.101 276.804 792.712 275.716Z" fill="#0096FF"/>
<path d="M695.43 238.563C691.107 240.853 686.272 242.185 681.378 242.338C673.249 242.594 665.077 239.591 658.99 234.218C634.353 252.221 617.53 280.563 613.605 310.363C611.449 322.057 609.417 333.778 607.507 345.515C607.256 347.043 607.011 348.572 606.766 350.106C605.334 359.048 603.973 367.995 602.689 376.958C602.095 381.075 601.518 385.192 600.962 389.31C600.015 396.244 599.111 403.185 598.256 410.13C597.641 415.086 597.048 420.04 596.481 425H714.711C719.522 386.9 724.334 348.8 729.145 310.7C714.904 291.447 701.316 266.553 695.43 238.563Z" fill="#FFFBFF"/>
<path d="M749.984 334.898C743.451 328.437 736.218 320.26 729.145 310.699C724.334 348.8 719.523 386.9 714.711 425H743.069C745.236 395.591 747.844 364.187 749.984 334.898Z" fill="#FFE8E8"/>
<path d="M781.686 75.755C781.682 75.6928 781.68 75.6307 781.676 75.568C780.788 61.7204 773.678 47.4268 761.749 41.014C762.768 43.3035 763.35 45.3159 763.742 46.7358C766.574 56.9579 768.082 67.3909 768.715 77.929C769.426 89.7963 769.028 101.798 768.158 113.782L768.261 113.787C770.21 115.653 771.604 117.817 772.606 119.988C777.703 105.671 782.614 90.8805 781.686 75.7545V75.755Z" fill="#112A35"/>
<path d="M745.384 34.1391C744.806 30.9736 743.799 27.9496 742.433 25.0996C742.248 24.7136 742.019 24.3055 741.758 23.8812C734.937 13.0245 701.472 -9.38662 644.268 4.29835C637.134 6.00515 629.633 8.27035 621.766 11.1919C616.741 13.0577 611.492 14.2542 606.156 14.7924C596.046 15.8202 585.892 16.6904 576.669 20.7862C566.7 25.2135 558.364 33.4968 554.532 43.7003C550.693 53.909 551.613 65.9348 557.543 75.0832C564.207 85.368 576.37 90.9049 588.735 91.5575C590.439 91.6503 592.148 91.6446 593.847 91.5467C595.47 91.4545 597.081 91.2799 598.676 91.0188C610.229 89.11 620.743 83.4151 629.955 76.0508C631.425 77.8187 633.112 79.4121 634.964 80.7557C642.782 86.4558 652.887 88.2833 662.556 87.7989C676.375 87.1028 689.888 81.8052 700.63 73.1137C700.358 80.5594 701.632 88.0005 704.931 94.6521C706.646 98.0947 708.938 101.249 711.666 103.964C713.027 105.318 714.497 106.563 716.065 107.679C718.161 109.169 719.865 110.371 720.567 112.933C721.357 115.788 722.299 118.567 723.568 121.249C724.853 123.958 726.393 126.541 728.174 128.945L728.587 129.065C729.774 124.985 731.549 121.118 734.13 117.746C738.894 111.535 745.977 107.004 753.539 108.103C753.382 96.1708 752.569 84.245 751.251 72.3652C749.829 59.5526 747.819 46.7933 745.384 34.1381V34.1391Z" fill="#112A35"/>
<path d="M844.713 162.847L840.729 159.038L837.429 160.523L837.815 166.154C840.14 165.3 842.41 164.277 844.588 163.102L844.789 162.999L844.713 162.847Z" fill="#FD7D42"/>
<path d="M837.096 155.564L837.429 160.514L837.429 160.524L840.729 159.038L837.096 155.564Z" fill="#112A35"/>
<path d="M326.537 297.755V297.63C325.993 297.63 325.443 297.635 324.898 297.635C316.421 297.668 307.944 297.701 299.466 297.728C293.282 297.749 287.102 297.777 280.917 297.799V298.065L275.542 314.62H320.814C322.721 308.998 324.629 303.376 326.537 297.755Z" fill="#112A35"/>
<path d="M275.542 314.621L264.605 348.3C270.219 348.3 275.848 348.305 281.489 348.332C290.723 348.371 299.989 348.441 309.299 348.55C313.136 337.24 316.975 325.931 320.813 314.621H275.541H275.542Z" fill="#112A35"/>
<path d="M310.182 390.326C309.207 396.929 308.227 403.526 307.247 410.129H569.217L565.906 389.395L310.182 390.326Z" fill="#016BA6"/>
<path d="M576.371 377.013L574.469 377.017L450.557 377.268L364.747 377.442L342.881 377.485L281.2 377.61L218.355 377.735L156.919 377.86L111.963 377.947L64.4215 378.045V391.186L85.2087 391.115L100.459 391.061L294.931 390.381L310.182 390.326L576.371 389.395V377.013Z" fill="#0096FF"/>
<path d="M760.574 41.8521C761.189 42.1707 761.88 42.5302 762.54 42.3209C763.67 41.963 763.702 40.3826 763.42 39.2326C761.257 30.4158 753.448 23.2607 744.468 21.8678C743.255 21.6798 741.695 21.7761 741.233 22.9115C740.754 24.0879 741.871 25.2337 742.648 26.2381C744.092 28.1024 744.548 30.524 744.96 32.8447C745.246 34.4505 745.18 37.6796 746.052 39.0207C746.904 40.3302 748.571 39.4932 750.256 39.461C753.821 39.3942 757.406 40.2106 760.574 41.8521Z" fill="#00BFFB"/>
<path d="M604.074 200.641C605.9 203.743 608.843 206.172 612.236 207.377C613.501 207.827 614.888 208.11 616.181 207.75C617.474 207.39 618.617 206.232 618.587 204.892C618.561 203.712 617.673 202.715 616.677 202.081C615.68 201.448 614.541 201.065 613.547 200.429C611.092 198.858 609.389 195.249 606.281 194.76C602.723 194.2 602.809 198.493 604.074 200.641Z" fill="#0096FF"/>
<path d="M284.46 76.66V76.7688H285.857C285.379 76.7688 284.914 76.7325 284.46 76.66Z" fill="#7964FF"/>
<path d="M285.857 61.0636C282.285 61.0636 279.359 63.9861 279.359 67.5541C279.359 69.3355 280.09 70.9594 281.269 72.1368C282.447 73.3142 284.073 74.0446 285.856 74.0446H302.592C306.164 74.0446 309.09 71.1221 309.09 67.5541C309.09 65.7727 308.359 64.1488 307.18 62.9714C306.001 61.794 304.381 61.0636 302.593 61.0636H285.857Z" fill="#E1EAEF"/>
<path d="M276.633 58.3348C271.544 58.3348 267.404 62.471 267.404 67.5546C267.404 72.6382 271.544 76.7687 276.633 76.7687H284.46V76.66C280.03 75.9897 276.633 72.1617 276.633 67.5546C276.633 62.4705 280.767 58.3348 285.857 58.3348H276.633Z" fill="#0096FF"/>
<path d="M309.09 67.5546C309.09 65.7732 308.359 64.1493 307.181 62.9719C306.002 61.7945 304.382 61.0641 302.593 61.0641H285.857C282.285 61.0641 279.36 63.9866 279.36 67.5546C279.36 69.336 280.091 70.9599 281.269 72.1373C282.448 73.3147 284.074 74.0451 285.857 74.0451H302.593C306.165 74.0451 309.09 71.1226 309.09 67.5546ZM289.779 76.7687H285.857C285.379 76.7687 284.914 76.7325 284.46 76.66C280.03 75.9897 276.633 72.1617 276.633 67.5546C276.633 62.4705 280.767 58.3348 285.857 58.3348H302.593C307.682 58.3348 311.822 62.471 311.822 67.5546C311.822 72.6382 307.682 76.7687 302.593 76.7687H289.779Z" fill="#00BFFB"/>
<path d="M284.46 76.7682V79.0686H295.364V76.7682H284.46Z" fill="#0096FF"/>
<path d="M300.439 67.5473C300.439 68.544 301.248 69.3515 302.245 69.3515C303.243 69.3515 304.051 68.5435 304.051 67.5473C304.051 66.5512 303.242 65.7432 302.245 65.7432C301.248 65.7432 300.439 66.5512 300.439 67.5473Z" fill="#0096FF"/>
<path d="M293.074 70.6019C294.763 68.6054 294.512 65.6191 292.513 63.9319C290.515 62.2448 287.526 62.4955 285.837 64.492C284.148 66.4886 284.399 69.4748 286.397 71.162C288.396 72.8491 291.385 72.5984 293.074 70.6019Z" fill="#00BFFB"/>
<path d="M287.662 67.5473C287.662 68.5372 288.465 69.3396 289.456 69.3396C290.447 69.3396 291.25 68.5372 291.25 67.5473C291.25 66.5574 290.447 65.7551 289.456 65.7551C288.465 65.7551 287.662 66.5574 287.662 67.5473Z" fill="#0096FF"/>
<path d="M692.869 106.931C692.38 106.931 691.889 106.767 691.483 106.432C688.413 103.897 683.648 100.955 678.41 101.36C677.189 101.45 676.164 100.554 676.072 99.3565C675.98 98.1584 676.878 97.1131 678.077 97.0214C684.774 96.5065 690.572 100.033 694.259 103.079C695.186 103.845 695.315 105.217 694.549 106.142C694.118 106.662 693.496 106.931 692.87 106.931H692.869Z" fill="#112A35"/>
<path d="M619.769 108.979C619.248 108.979 618.724 108.794 618.308 108.417C617.416 107.61 617.347 106.234 618.155 105.344C621.594 101.548 626.495 99.1083 631.6 98.651C632.788 98.537 633.857 99.4264 633.964 100.623C634.072 101.821 633.188 102.877 631.99 102.985C627.963 103.346 624.097 105.269 621.384 108.263C620.955 108.738 620.362 108.979 619.769 108.979Z" fill="#112A35"/>
<path d="M646.27 157.744C646.076 157.744 645.88 157.692 645.702 157.584C643.776 156.404 641.019 154.511 639.331 151.695C637.577 148.775 637.361 145.354 638.768 142.767C639.897 140.69 642.122 139.098 644.873 138.398C647.157 137.818 649.442 137.856 651.981 137.962C652.582 137.987 653.049 138.493 653.024 139.094C652.999 139.693 652.505 140.157 651.891 140.136C649.528 140.037 647.41 139.999 645.41 140.507C643.246 141.058 641.522 142.26 640.682 143.806C639.657 145.69 639.86 148.348 641.198 150.577C642.641 152.982 645.11 154.669 646.84 155.729C647.353 156.043 647.514 156.713 647.199 157.225C646.994 157.56 646.636 157.744 646.27 157.744Z" fill="#CE7B6F"/>
<path d="M848.086 218.397C847.961 218.397 847.835 218.375 847.711 218.33C847.146 218.123 846.856 217.498 847.063 216.934C848.387 213.329 848.236 209.164 846.651 205.507C846.265 204.616 845.796 203.767 845.259 202.983C845.15 202.823 845.043 202.682 844.947 202.553C844.57 202.054 844.144 201.486 844.292 200.729C844.434 200.003 845.048 199.552 845.567 199.24C847.609 198.013 849.577 196.781 851.207 195.215C852.812 193.674 853.69 192.13 853.817 190.626C853.939 189.175 853.052 187.365 851.583 187.087C850.469 186.877 849.215 187.491 848.002 188.085L847.928 188.122C847.386 188.385 846.735 188.162 846.471 187.623C846.206 187.083 846.43 186.432 846.97 186.167L847.043 186.131C848.505 185.416 850.163 184.602 851.988 184.95C854.72 185.467 856.19 188.394 855.987 190.809C855.814 192.855 854.713 194.865 852.716 196.784C850.923 198.507 848.842 199.811 846.69 201.105C846.663 201.121 846.638 201.136 846.615 201.151C846.64 201.184 846.665 201.218 846.688 201.248C846.801 201.399 846.927 201.567 847.057 201.755C847.672 202.653 848.208 203.625 848.649 204.644C850.454 208.807 850.621 213.56 849.108 217.684C848.947 218.125 848.53 218.398 848.086 218.398V218.397Z" fill="#CE7B6F"/>
<path d="M855.335 209.068C853.541 209.068 851.676 208.179 850.553 206.623C849.188 204.73 848.873 202.076 849.712 199.525C850.337 197.628 851.531 195.815 853.469 193.819C856.842 190.345 861.035 187.648 865.596 186.016C866.994 185.515 868.222 185.253 869.349 185.213C869.973 185.186 870.455 185.661 870.477 186.261C870.498 186.862 870.028 187.366 869.427 187.387C868.539 187.419 867.498 187.646 866.331 188.064C862.081 189.584 858.174 192.098 855.032 195.334C853.331 197.084 852.298 198.632 851.78 200.204C851.168 202.068 851.375 204.04 852.321 205.351C853.311 206.725 855.261 207.299 856.582 206.606C857.114 206.325 857.773 206.531 858.052 207.062C858.332 207.593 858.129 208.251 857.596 208.531C856.903 208.895 856.125 209.068 855.335 209.068Z" fill="#CE7B6F"/>
<path d="M865.804 224.6C863.807 224.6 861.831 223.799 861.069 221.972C860.433 220.453 860.778 218.689 862.122 216.579C864.926 212.177 869.12 208.636 873.931 206.607C874.99 206.16 876.258 205.704 877.643 205.704H877.68C878.281 205.708 878.766 206.198 878.762 206.798C878.759 207.399 878.285 207.887 877.667 207.88H877.644C876.647 207.88 875.636 208.249 874.778 208.611C870.371 210.469 866.529 213.714 863.959 217.746C863.027 219.212 862.738 220.32 863.078 221.133C863.592 222.363 865.498 222.644 867.03 222.283C870.699 221.42 873.633 218.292 875.992 215.778C876.403 215.339 877.091 215.317 877.53 215.728C877.969 216.139 877.992 216.827 877.58 217.266C875.022 219.993 871.838 223.387 867.529 224.402C866.972 224.533 866.387 224.601 865.804 224.601V224.6Z" fill="#CE7B6F"/>
<path d="M230.781 233.546C228.714 230.223 225.195 227.749 221.366 226.93L221.707 225.335C225.962 226.246 229.873 228.993 232.168 232.685L230.781 233.546Z" fill="#0057C2"/>
<path d="M234.802 245.317L232.189 262.983L233.805 263.222L236.418 245.555L234.802 245.317Z" fill="#0057C2"/>
<path d="M298.054 236.084L296.442 236.347L300.733 262.624L302.345 262.362L298.054 236.084Z" fill="#0057C2"/>
<path d="M350.551 196.973C350.377 196.973 350.201 196.931 350.038 196.844C349.508 196.56 349.308 195.901 349.592 195.371C351.111 192.539 351.319 189.061 350.149 186.068C349.955 185.569 350.152 185.003 350.614 184.733C353.273 183.18 355.497 180.878 357.045 178.075C357.559 177.144 357.542 176.713 357.438 176.516C357.205 176.074 356.167 176.107 355.26 176.368C354.149 176.688 353.047 177.112 351.987 177.627C351.448 177.89 350.796 177.666 350.532 177.125C350.268 176.585 350.494 175.935 351.034 175.671C352.207 175.101 353.426 174.632 354.657 174.277C356.867 173.642 358.627 174.099 359.365 175.502C360.14 176.972 359.246 178.593 358.952 179.126C357.364 182 355.138 184.409 352.48 186.138C353.527 189.509 353.184 193.281 351.512 196.399C351.315 196.765 350.939 196.973 350.551 196.973H350.551Z" fill="#FF8570"/>
<path d="M279.06 172.745C275.579 172.745 271.992 170.584 270.011 167.172C268.23 164.106 267.601 160.211 268.142 155.596L268.171 155.347L268.336 155.158C270.99 152.093 274.641 150.185 278.613 149.786C282.43 149.402 286.417 150.444 289.558 152.644L289.925 152.902L289.905 153.349C289.872 154.084 289.854 154.831 289.835 155.587C289.762 158.566 289.686 161.647 288.721 164.611C287.318 168.92 284.015 172.075 280.307 172.65C279.896 172.714 279.478 172.745 279.06 172.745ZM269.736 156.038C269.288 160.184 269.855 163.653 271.423 166.353C273.313 169.607 276.863 171.535 280.057 171.037C283.162 170.556 285.953 167.835 287.168 164.106C288.059 161.369 288.132 158.409 288.202 155.546C288.217 154.936 288.232 154.33 288.254 153.732C285.49 151.922 282.061 151.077 278.777 151.409C275.302 151.758 272.101 153.399 269.736 156.037L269.736 156.038Z" fill="#112A35"/>
<path d="M252.478 172.997C252.06 172.997 251.643 172.965 251.231 172.902C247.523 172.327 244.22 169.171 242.818 164.863C241.852 161.898 241.777 158.818 241.704 155.839C241.685 155.083 241.667 154.336 241.634 153.601L241.614 153.154L241.981 152.896C245.121 150.696 249.111 149.655 252.925 150.038C256.899 150.438 260.549 152.345 263.203 155.409L263.367 155.599L263.396 155.848C263.937 160.464 263.309 164.358 261.528 167.423C259.547 170.835 255.96 172.996 252.478 172.996L252.478 172.997ZM243.284 153.984C243.306 154.583 243.321 155.188 243.336 155.799C243.406 158.661 243.479 161.621 244.37 164.359C245.584 168.087 248.376 170.808 251.481 171.29C254.677 171.787 258.226 169.859 260.114 166.605C261.683 163.906 262.25 160.437 261.802 156.29C259.437 153.652 256.236 152.011 252.761 151.662C249.479 151.331 246.048 152.176 243.284 153.984Z" fill="#112A35"/>
<path d="M262.799 156.812L261.99 155.394C264.211 154.13 267.036 154.002 269.361 155.061L268.684 156.546C266.828 155.702 264.572 155.803 262.799 156.812Z" fill="#112A35"/>
<path d="M861.338 218.904C859.481 218.904 857.562 218.019 856.342 216.443C854.829 214.484 854.395 211.7 855.183 208.993C855.788 206.916 857.057 204.908 859.062 202.853C861.631 200.222 864.788 198.103 868.195 196.723C869.857 196.051 872.342 195.253 874.719 196.104C875.286 196.306 875.58 196.929 875.377 197.495C875.175 198.06 874.552 198.356 873.986 198.153C872.708 197.696 871.13 197.883 869.014 198.74C865.883 200.008 862.981 201.956 860.622 204.373C858.872 206.165 857.777 207.876 857.275 209.601C856.689 211.613 856.992 213.725 858.066 215.113C859.199 216.578 861.309 217.156 862.77 216.4C863.305 216.122 863.961 216.332 864.238 216.864C864.515 217.398 864.307 218.054 863.773 218.331C863.023 218.719 862.187 218.905 861.339 218.905L861.338 218.904Z" fill="#CE7B6F"/>
<path d="M451.595 359.792L449.417 359.807L449.537 377.189L451.715 377.174L451.595 359.792Z" fill="#9E9E9E"/>
<path d="M440.383 335.538H440.37C439.769 335.531 439.287 335.038 439.294 334.438C439.305 333.44 439.535 332.409 439.958 331.457C440.831 329.491 442.397 327.99 443.499 327.033C448.907 322.338 456.111 319.772 463.274 319.998C463.875 320.017 464.348 320.518 464.328 321.119C464.31 321.719 463.816 322.187 463.206 322.172C456.591 321.972 449.926 324.335 444.928 328.674C443.405 329.997 442.486 331.127 441.948 332.339C441.644 333.023 441.48 333.757 441.472 334.462C441.465 335.058 440.979 335.537 440.383 335.537L440.383 335.538Z" fill="#CE7B6F"/>
<path d="M357.793 140.078C357.391 140.078 357.014 139.856 356.825 139.488L350.403 127.026C350.128 126.492 350.338 125.836 350.873 125.561C351.409 125.286 352.064 125.496 352.34 126.03L357.006 135.085L358.183 120.001C358.227 119.441 358.69 119.006 359.252 118.997L389.948 118.53C390.537 118.525 391.044 119.001 391.053 119.601C391.062 120.202 390.582 120.696 389.981 120.706L360.278 121.158L358.879 139.074C358.841 139.559 358.485 139.96 358.008 140.056C357.936 140.071 357.864 140.077 357.793 140.077L357.793 140.078Z" fill="#99E7FF"/>
<path d="M371.551 138.27C371.255 138.27 370.959 138.15 370.744 137.913C367.944 134.828 365.511 131.41 363.515 127.754C363.227 127.227 363.421 126.566 363.949 126.278C364.478 125.991 365.139 126.185 365.426 126.712C367.341 130.218 369.673 133.495 372.358 136.452C372.762 136.897 372.728 137.585 372.282 137.988C372.074 138.177 371.812 138.27 371.551 138.27Z" fill="#99E7FF"/>
<path d="M364.468 140.169C364.255 140.169 364.04 140.107 363.851 139.977C363.356 139.636 363.232 138.958 363.573 138.464C364.72 136.8 366.039 134.539 367.314 132.352C368.609 130.13 369.948 127.832 371.144 126.1C371.484 125.606 372.163 125.48 372.658 125.822C373.154 126.163 373.278 126.84 372.937 127.335C371.789 128.999 370.471 131.26 369.196 133.447C367.9 135.669 366.561 137.967 365.366 139.699C365.155 140.005 364.815 140.169 364.468 140.169Z" fill="#99E7FF"/>
<path d="M382.022 132.7C382.011 132.7 382.001 132.7 381.991 132.7L375.639 132.519C375.038 132.502 374.564 132.001 374.582 131.4C374.599 130.8 375.103 130.336 375.701 130.344L382.053 130.525C382.654 130.542 383.127 131.043 383.11 131.644C383.094 132.234 382.609 132.7 382.022 132.7Z" fill="#99E7FF"/>
<path d="M390.495 138.463C388.006 138.463 385.503 137.16 384.261 134.965C382.545 131.931 383.533 127.714 386.418 125.757C389.303 123.798 393.592 124.435 395.782 127.148C396.623 128.19 397.083 129.409 397.077 130.581C397.069 132.01 396.326 133.368 395.182 134.038C394.238 134.592 393.097 134.639 392.157 134.238C391.87 134.484 391.522 134.674 391.133 134.791C390.172 135.08 389.136 134.879 388.432 134.265C387.84 133.749 387.483 133.002 387.428 132.16C387.369 131.25 387.67 130.35 388.253 129.692C389.236 128.582 390.937 128.149 392.487 128.613C393.062 128.786 393.389 129.393 393.216 129.969C393.043 130.544 392.436 130.87 391.86 130.697C391.12 130.476 390.308 130.655 389.884 131.135C389.689 131.355 389.581 131.694 389.602 132.019C389.611 132.169 389.658 132.446 389.863 132.625C390.002 132.746 390.266 132.779 390.505 132.707C390.643 132.665 390.804 132.576 390.839 132.448C390.946 132.062 391.256 131.765 391.647 131.676C392.038 131.587 392.446 131.72 392.71 132.023C392.999 132.354 393.64 132.42 394.08 132.162C394.567 131.876 394.896 131.237 394.899 130.569C394.903 129.897 394.615 129.167 394.087 128.514C392.605 126.679 389.594 126.232 387.643 127.556C385.69 128.881 384.997 131.842 386.158 133.894C387.319 135.947 390.217 136.881 392.359 135.893C392.905 135.64 393.551 135.879 393.803 136.425C394.055 136.97 393.817 137.617 393.271 137.869C392.395 138.272 391.445 138.463 390.495 138.463Z" fill="#99E7FF"/>
<path d="M406.886 158.92H387.598C386.996 158.92 386.509 158.433 386.509 157.832C386.509 157.231 386.996 156.744 387.598 156.744H406.886C407.487 156.744 407.975 157.231 407.975 157.832C407.975 158.433 407.487 158.92 406.886 158.92Z" fill="#99E7FF"/>
<path d="M393.388 150.857C392.995 150.857 392.631 150.645 392.439 150.301C392.245 149.956 392.254 149.532 392.463 149.196L396.663 142.439C396.981 141.929 397.652 141.772 398.162 142.089C398.673 142.406 398.83 143.076 398.514 143.587L395.356 148.667L400.54 148.627H400.549C401.146 148.627 401.633 149.109 401.637 149.707C401.642 150.308 401.158 150.798 400.556 150.803L393.397 150.858H393.389L393.388 150.857Z" fill="#99E7FF"/>
<path d="M401.122 154.033C400.52 154.033 400.033 153.546 400.033 152.945V146.621C400.033 146.02 400.52 145.533 401.122 145.533C401.723 145.533 402.211 146.02 402.211 146.621V152.945C402.211 153.546 401.723 154.033 401.122 154.033Z" fill="#99E7FF"/>
<path d="M397.676 173.749C397.542 173.749 397.412 173.748 397.285 173.748C394.789 173.729 393.266 172.965 392.755 171.477C392.56 170.908 392.864 170.289 393.433 170.095C394.002 169.9 394.62 170.204 394.815 170.772C395.049 171.454 396.473 171.566 397.3 171.572C398.245 171.581 399.221 171.586 399.982 171.221C400.51 170.968 400.994 170.369 400.874 169.88C400.789 169.533 400.393 169.204 399.888 169.06C399.267 168.883 398.518 168.937 397.794 168.99C397.265 169.025 396.795 168.688 396.662 168.182C396.529 167.675 396.775 167.145 397.249 166.921C398.08 166.529 398.938 166.124 399.465 165.493C399.88 164.996 400.01 164.289 399.754 163.919C399.527 163.59 398.948 163.427 398.373 163.53C397.662 163.66 396.954 164.105 396.27 164.536C395.762 164.857 395.089 164.703 394.768 164.195C394.448 163.687 394.6 163.015 395.109 162.695C395.928 162.179 396.857 161.594 397.984 161.39C399.426 161.127 400.824 161.636 401.547 162.684C402.373 163.882 402.205 165.61 401.137 166.887C401.069 166.968 400.999 167.046 400.928 167.121C401.977 167.552 402.75 168.381 402.99 169.363C403.397 171.026 402.259 172.543 400.924 173.183C399.852 173.697 398.679 173.75 397.676 173.75V173.749Z" fill="#99E7FF"/>
<path d="M347.775 158.172C347.661 158.172 347.546 158.155 347.432 158.117C343.742 156.893 340.411 154.726 337.799 151.849C337.395 151.404 337.429 150.716 337.875 150.313C338.321 149.91 339.009 149.943 339.413 150.388C341.773 152.988 344.783 154.946 348.118 156.052C348.688 156.241 348.998 156.857 348.808 157.427C348.656 157.883 348.231 158.172 347.775 158.172Z" fill="#99E7FF"/>
<path d="M338.551 161.123C338.341 161.123 338.128 161.062 337.941 160.935C337.443 160.598 337.314 159.922 337.651 159.424L344.426 149.444C344.764 148.947 345.44 148.816 345.939 149.154C346.437 149.491 346.566 150.167 346.229 150.665L339.454 160.645C339.244 160.956 338.901 161.122 338.552 161.122L338.551 161.123Z" fill="#99E7FF"/>
</g>
<defs>
<clipPath id="clip0_105_900">
<rect width="887" height="425" fill="white"/>
</clipPath>
</defs>
</svg>
