<svg width="84" height="34pt" viewBox="0 0 84 84" fill="none" xmlns="http://www.w3.org/2000/svg">
<mask id="mask0_132_2650" style="mask-type:alpha" maskUnits="userSpaceOnUse" x="0" y="0" width="84" height="84">
<circle cx="42" cy="42" r="42" fill="#D9D9D9"/>
</mask>
<g mask="url(#mask0_132_2650)">
<circle cx="42" cy="42" r="42" fill="#D5E0E6"/>
<path d="M41.5602 17.6L34.7459 29.5604H20.7998L27.7729 41.5206L20.7998 53.7188H34.6665L41.6393 65.6L48.5333 53.7188H62.3998L55.5855 41.5999L62.3207 29.7187H48.5333L41.5602 17.6Z" fill="#0096FF"/>
<path d="M41.6002 24.8L39.2002 29.6H44.0002L41.6002 24.8L39.2002 29.6H44.0002L41.6002 24.8Z" fill="#D5E0E6"/>
<path d="M56.0002 33.6L51.2002 33.6308L53.5343 37.6L56.0002 33.6L51.2002 33.6308L53.5343 37.6L56.0002 33.6Z" fill="#D5E0E6"/>
<path d="M27.2002 33.6L32.8002 33.6309L30.0769 37.6L27.2002 33.6L32.8002 33.6309L30.0769 37.6L27.2002 33.6Z" fill="#D5E0E6"/>
<path d="M41.6002 57.6L39.2002 53.6H44.0002L41.6002 57.6L39.2002 53.6H44.0002L41.6002 57.6Z" fill="#D5E0E6"/>
<path d="M56.0002 49.6L51.2002 49.5691L53.5343 45.6L56.0002 49.6L51.2002 49.5691L53.5343 45.6L56.0002 49.6Z" fill="#D5E0E6"/>
<path d="M27.2002 49.6L32.8002 49.5691L30.0769 45.6L27.2002 49.6L32.8002 49.5691L30.0769 45.6L27.2002 49.6Z" fill="#D5E0E6"/>
<path d="M36.8002 33.6H46.4828L51.2 41.6801L46.4828 49.6H36.8829L32 41.7601L36.8002 33.6Z" fill="#D5E0E6"/>
<rect x="-8" y="6.40002" width="99.2" height="7.2" fill="#0096FF"/>
<rect x="-8" y="69.6" width="99.2" height="7.2" fill="#0096FF"/>
</g>
</svg>
