<svg width="192" height="128" viewBox="0 0 192 128" fill="none" xmlns="http://www.w3.org/2000/svg">
<path d="M191.76 13.3552H0V114.684H191.76V13.3552Z" fill="#0096FF"/>
<path d="M191.829 32.8777H0.00154114V95.9253H191.829V32.8777Z" fill="#D5E0E6"/>
<path d="M95.9182 37.7889L88.3462 51.1278H72.8494L80.5979 64.4665L72.8494 78.0706H88.258L96.006 91.3213L103.667 78.0706H119.075L111.503 64.555L118.987 51.3044H103.667L95.9182 37.7889Z" fill="#0096FF"/>
<path d="M96.05 46.2255L93.2742 51.1774H98.8258L96.05 46.2255L93.2742 51.1774H98.8258L96.05 46.2255Z" fill="#D5E0E6"/>
<path d="M111.933 55.4091L106.27 55.4466L109.024 60.2833L111.933 55.4091L106.27 55.4466L109.024 60.2833L111.933 55.4091Z" fill="#D5E0E6"/>
<path d="M80.1618 55.4734L85.8248 55.5112L83.0708 60.3478L80.1618 55.4734L85.8248 55.5112L83.0708 60.3478L80.1618 55.4734Z" fill="#D5E0E6"/>
<path d="M96.05 82.9288L93.2742 77.9769H98.8258L96.05 82.9288L93.2742 77.9769H98.8258L96.05 82.9288Z" fill="white"/>
<path d="M111.933 73.7453L106.27 73.7077L109.024 68.8711L111.933 73.7453L106.27 73.7077L109.024 68.8711L111.933 73.7453Z" fill="#D5E0E6"/>
<path d="M80.1618 73.6808L85.8248 73.6432L83.0708 68.8066L80.1618 73.6808L85.8248 73.6432L83.0708 68.8066L80.1618 73.6808Z" fill="#D5E0E6"/>
<path d="M90.714 55.5262H101.311L106.474 64.7042L101.311 73.7001H90.8045L85.4606 64.7951L90.714 55.5262Z" fill="#D5E0E6"/>
<path d="M191.829 0H0V13.3552H191.829V0Z" fill="#D5E0E6"/>
<path d="M191.829 114.126H0V127.481H191.829V114.126Z" fill="#D5E0E6"/>
</svg>
