<svg width="987" height="425" viewBox="0 0 653 305" fill="none" xmlns="http://www.w3.org/2000/svg">
<g clip-path="url(#clip0_108_1311)">
<path opacity="0.5" d="M64.3122 304.655C33.2927 302.386 5.14832 270.092 1.7508 236.603C-1.64709 203.114 14.8742 169.371 39.8918 149.368C64.9095 129.366 97.213 122.029 128.247 124.042C176.382 127.163 221.875 151.164 270.045 153.551C309.91 155.527 349.047 142.579 386.621 128.01C424.195 113.441 461.637 96.9784 501.218 91.4586C540.798 85.9387 583.767 92.7516 614.479 120.364C640.55 143.803 655.257 181.329 652.717 217.935C650.177 254.541 628.946 285.788 599.933 304.739L64.3122 304.655Z" fill="#B6C6CE"/>
<path d="M513.976 200.548H379.279C379.27 200.596 379.261 200.644 379.253 200.692L379.296 200.739L361.086 216.825L331.948 242.565L322.576 250.84C320.044 253.073 321.626 257.256 325.003 257.256H445.44C446.5 257.256 447.55 257.165 448.584 256.996C452.202 256.407 455.606 254.812 458.384 252.358L495.538 219.543L516.886 200.687C516.895 200.64 516.904 200.596 516.912 200.548H513.976ZM408.79 247.667H379.513L396.132 233.653C395.634 233.155 425.409 233.653 425.409 233.653L408.79 247.667ZM441.557 230.458H354.605L360.427 225.547L365.828 220.991L371.225 216.439L376.621 211.888L382.018 207.336H497.956L492.56 211.888L487.163 216.439L481.766 220.991L476.365 225.547L470.543 230.458H441.557Z" fill="#112A35"/>
<path d="M413.225 173.135C413.563 173.772 414.031 174.332 414.382 174.965L414.356 174.978C414.026 174.709 413.597 174.588 413.168 174.557C412.158 174.484 410.988 174.717 410.381 175.61C409.921 176.278 409.874 177.201 410.242 177.921L410.095 178.003C409.414 178.021 408.755 178.424 408.426 179.022C408.148 179.529 408.118 180.162 408.331 180.695C407.498 182.048 407.347 183.794 407.936 185.264C408.513 186.712 409.791 187.856 411.291 188.281C411.621 189.126 411.898 189.993 412.124 190.873C412.531 192.43 412.778 194.033 412.861 195.642H387.047C387.129 195.183 387.207 194.723 387.29 194.259C387.711 191.871 388.127 189.482 388.547 187.089C389.076 184.081 389.6 181.073 390.129 178.064C390.731 174.631 391.334 171.198 391.937 167.761C392.578 164.098 393.22 160.43 393.861 156.763C394.511 153.061 395.162 149.36 395.812 145.657C396.432 142.112 397.052 138.566 397.676 135.02C398.235 131.825 398.794 128.63 399.353 125.436C399.583 124.14 399.808 122.839 400.038 121.543C400.233 120.425 400.116 118.899 401.143 118.162C401.815 117.681 402.552 117.798 403.337 117.798H520.384C521.373 117.798 522.556 117.607 523.475 118.071C524.52 118.6 524.182 119.657 524.017 120.594C523.675 122.553 523.332 124.512 522.99 126.472C522.162 131.17 521.338 135.874 520.514 140.577C519.591 145.84 518.667 151.106 517.744 156.369C516.826 161.618 515.907 166.868 514.988 172.117C514.168 176.772 513.354 181.428 512.539 186.084C511.979 189.27 511.424 192.451 510.861 195.642H488.71C483.651 186.725 474.302 180.383 464.193 178.78C463.382 178.654 462.567 178.554 461.748 178.489C461.093 178.437 460.43 178.402 459.771 178.389C459.542 177.691 459.308 176.998 459.078 176.304C458.918 175.823 458.761 175.346 458.601 174.87C463.244 172.724 466.989 168.966 469.377 164.427C470.877 165.368 472.78 165.667 474.497 165.199C476.777 164.579 478.511 162.715 479.04 160.43C479.49 158.493 478.84 156.269 477.245 155.081C477.18 155.034 477.115 154.99 477.05 154.947C479.404 150.643 480.57 145.697 480.358 140.79C480.284 139.082 480.037 137.34 479.226 135.835C478.42 134.327 476.963 133.087 475.264 132.901L474.753 132.944C474.493 129.428 472.152 126.273 469.187 124.335C466.127 122.337 462.473 121.461 458.853 120.919C452.03 119.905 445.047 119.979 438.241 121.11C434.279 121.765 430.191 122.874 427.265 125.623C423.628 129.034 422.458 134.665 423.979 139.416C425.388 143.798 428.882 147.344 433.078 149.247C433.148 150.123 433.225 150.998 433.247 151.878C433.273 152.857 433.295 153.833 433.329 154.812C432.155 154.561 430.85 154.808 429.879 155.532C428.284 156.72 427.633 158.944 428.084 160.881C428.617 163.161 430.347 165.025 432.631 165.649C433.36 165.845 434.127 165.905 434.877 165.836C435.224 166.98 435.653 168.099 436.181 169.182C436.992 170.851 437.69 172.19 439.116 173.426C440.776 174.865 442.8 176.126 444.981 176.525C446.884 176.876 448.834 176.985 450.768 176.85C450.872 177.214 450.98 177.574 451.084 177.938C451.21 178.372 451.375 178.818 451.379 179.26C451.384 179.377 451.371 179.49 451.345 179.603L451.271 179.585C450.677 179.724 450.088 179.867 449.498 180.019C448.77 180.197 448.041 180.392 447.322 180.595C444.019 181.532 440.811 182.732 437.898 184.531C433.784 187.072 430.303 191.012 429.146 195.641H426.194C425.917 193.305 425.479 190.986 424.89 188.71C424.63 187.7 424.339 186.69 424.018 185.693C424.811 184.245 425.158 182.546 424.963 180.903C424.794 179.473 424.187 178.034 423.039 177.171C422.232 176.564 421.127 176.317 420.16 176.551C419.22 174.796 418.14 173.109 416.935 171.523C415.743 169.941 414.738 168.333 413.212 167.015C412.83 166.69 412.423 166.373 411.95 166.208C411.478 166.039 410.923 166.035 410.498 166.308C409.991 166.638 409.783 167.297 409.813 167.899C409.874 169.039 410.632 170.019 411.408 170.855C412.076 171.571 412.761 172.26 413.224 173.135H413.225Z" fill="#E1EAEF"/>
<path d="M409.205 128.189H441.573" stroke="#99E7FF" stroke-width="3" stroke-linecap="round" stroke-linejoin="round"/>
<path d="M408.335 134.28H418.277" stroke="#99E7FF" stroke-width="3" stroke-linecap="round" stroke-linejoin="round"/>
<path d="M421.033 140.37H439.833" stroke="#99E7FF" stroke-width="3" stroke-linecap="round" stroke-linejoin="round"/>
<path d="M407.465 140.37H413.347" stroke="#99E7FF" stroke-width="3" stroke-linecap="round" stroke-linejoin="round"/>
<path d="M426.978 146.461H438.963" stroke="#99E7FF" stroke-width="3" stroke-linecap="round" stroke-linejoin="round"/>
<path d="M406.595 146.461H418.132" stroke="#99E7FF" stroke-width="3" stroke-linecap="round" stroke-linejoin="round"/>
<path d="M421.178 152.551H430.023" stroke="#99E7FF" stroke-width="3" stroke-linecap="round" stroke-linejoin="round"/>
<path d="M405.724 152.551H414.072" stroke="#99E7FF" stroke-width="3" stroke-linecap="round" stroke-linejoin="round"/>
<path d="M404.855 158.642H437.223" stroke="#99E7FF" stroke-width="3" stroke-linecap="round" stroke-linejoin="round"/>
<path d="M492.676 175.18H388.687V171.279H489.478L500.785 114.776L504.61 115.541L492.676 175.18Z" fill="#99E7FF"/>
<path d="M572.541 202.408L572.493 202.66C570.477 205.612 567.439 207.853 564.023 208.897C560.603 209.946 556.832 209.79 553.511 208.468L553.494 208.451C558.297 203.435 565.722 201.077 572.541 202.408L572.541 202.408Z" fill="#359E2A"/>
<path d="M566.277 185.134C566.259 185.139 566.246 185.143 566.229 185.147C564.348 185.533 562.389 185 560.659 184.155C561.318 183.353 561.712 182.325 561.712 181.203C561.712 180.097 561.327 179.079 560.685 178.281C562.406 177.444 564.357 176.92 566.229 177.302C566.359 177.328 566.485 177.362 566.615 177.397C568.704 178.017 570.815 180.167 569.779 182.443C569.567 182.911 569.264 183.331 568.908 183.695C568.202 184.415 567.265 184.926 566.277 185.135L566.277 185.134Z" fill="#D81259"/>
<path d="M566.637 177.336L566.615 177.396C566.485 177.362 566.359 177.327 566.229 177.301C564.357 176.92 562.406 177.444 560.685 178.281C560.49 178.038 560.273 177.822 560.039 177.622C560.867 175.897 561.396 173.955 561.014 172.086C561.01 172.069 561.006 172.052 561.001 172.034C562.904 170.86 566.203 170.82 567.079 173.309C567.248 173.79 567.326 174.301 567.317 174.813C567.309 175.689 567.07 176.569 566.637 177.336Z" fill="#D18915"/>
<path d="M566.277 185.134C567.456 187.037 567.494 190.336 565.007 191.216C564.525 191.385 564.014 191.459 563.502 191.454C562.622 191.446 561.738 191.203 560.971 190.765L560.919 190.748C560.953 190.618 560.988 190.492 561.014 190.362C561.4 188.481 560.862 186.526 560.022 184.796C560.255 184.601 560.468 184.389 560.659 184.155C562.388 185 564.347 185.533 566.229 185.147C566.246 185.143 566.259 185.139 566.277 185.134Z" fill="#D18915"/>
<path d="M553.26 171.718C553.503 170.847 553.979 170.04 554.621 169.407C554.985 169.048 555.405 168.748 555.869 168.536C558.271 167.444 560.529 169.845 561.002 172.034C561.006 172.052 561.01 172.069 561.015 172.086C561.396 173.955 560.867 175.897 560.039 177.622C559.233 176.946 558.188 176.538 557.052 176.538C555.943 176.538 554.924 176.928 554.122 177.578C553.303 175.866 552.791 173.941 553.169 172.086C553.195 171.965 553.225 171.839 553.26 171.718Z" fill="#D81259"/>
<path d="M556.246 194.055C556.121 194.016 555.995 193.968 555.869 193.912C555.479 193.734 555.119 193.491 554.798 193.201C554.738 193.153 554.677 193.097 554.621 193.04C553.901 192.334 553.39 191.402 553.182 190.409C553.177 190.392 553.173 190.379 553.169 190.362C552.787 188.498 553.307 186.56 554.135 184.839C554.933 185.481 555.947 185.862 557.052 185.862C558.18 185.862 559.215 185.464 560.022 184.796C560.863 186.526 561.4 188.481 561.014 190.362C560.988 190.492 560.954 190.618 560.919 190.748C560.334 192.72 558.383 194.714 556.246 194.055Z" fill="#D81259"/>
<path d="M560.022 184.796C559.215 185.463 558.179 185.862 557.052 185.862C555.947 185.862 554.932 185.48 554.135 184.839C553.888 184.64 553.666 184.423 553.467 184.18C552.795 183.374 552.388 182.333 552.388 181.202C552.388 180.084 552.782 179.056 553.441 178.254C553.641 178.003 553.871 177.778 554.122 177.578C554.924 176.928 555.943 176.538 557.052 176.538C558.188 176.538 559.233 176.946 560.039 177.622C560.273 177.821 560.49 178.038 560.685 178.281C561.326 179.079 561.712 180.097 561.712 181.202C561.712 182.325 561.318 183.352 560.659 184.154C560.468 184.388 560.255 184.601 560.022 184.796Z" fill="#E1EAEF"/>
<path d="M553.342 208.611L550.923 220.744H549.302L554.798 193.201C555.119 193.492 555.479 193.734 555.869 193.912C555.994 193.969 556.12 194.016 556.246 194.055L553.341 208.612L553.342 208.611Z" fill="#359E2A"/>
<path d="M553.468 184.18C553.667 184.423 553.888 184.64 554.135 184.839C553.307 186.56 552.787 188.498 553.169 190.362C553.173 190.379 553.177 190.392 553.182 190.409C552.323 190.947 551.3 191.224 550.282 191.194C549.774 191.181 549.263 191.086 548.79 190.9C546.458 189.976 546.497 186.946 547.585 185.056C547.707 185.091 547.828 185.121 547.95 185.147C549.813 185.529 551.751 185.008 553.468 184.18Z" fill="#D18915"/>
<path d="M547.585 185.056C546.714 184.813 545.907 184.337 545.27 183.695C544.915 183.331 544.611 182.91 544.399 182.442C543.307 180.05 545.699 177.795 547.884 177.314C547.906 177.31 547.928 177.306 547.949 177.301C549.804 176.924 551.729 177.431 553.441 178.255C552.782 179.057 552.388 180.084 552.388 181.202C552.388 182.334 552.795 183.374 553.467 184.18C551.751 185.008 549.813 185.528 547.949 185.147C547.828 185.121 547.706 185.091 547.585 185.056V185.056Z" fill="#D81259"/>
<path d="M550.923 220.744H555.037L551.244 231.516C558.223 244.711 561.639 259.731 554.205 266.559H535.591C528.157 259.731 531.321 244.711 538.3 231.516L534.507 220.744H550.923Z" fill="#D18915"/>
<path d="M547.876 177.275C547.36 176.421 547.091 175.416 547.117 174.418C547.134 173.907 547.225 173.4 547.416 172.923C548.339 170.591 551.365 170.63 553.259 171.718C553.225 171.839 553.194 171.965 553.168 172.087C552.791 173.942 553.302 175.867 554.122 177.579C553.87 177.778 553.64 178.003 553.441 178.255C551.729 177.431 549.804 176.924 547.949 177.301C547.927 177.306 547.905 177.31 547.884 177.314L547.876 177.275Z" fill="#D18915"/>
<path d="M454.297 162.047C455.215 162.524 455.619 163.699 455.428 164.713C455.233 165.732 454.552 166.594 453.759 167.262C452.298 168.489 450.382 169.16 448.475 169.117C446.567 169.078 444.682 168.32 443.273 167.032C442.605 166.421 442.016 165.623 441.994 164.718C441.938 162.55 444.057 163.213 445.388 163.14C447.347 163.022 449.294 162.702 451.183 162.177C452.211 161.891 453.351 161.553 454.296 162.047H454.297Z" fill="#E1EAEF"/>
<path d="M434.877 165.836C434.066 163.205 433.676 160.439 433.481 157.704C433.412 156.741 433.364 155.775 433.329 154.812C433.295 153.833 433.273 152.857 433.247 151.878C433.226 150.998 433.148 150.122 433.078 149.247C433.013 148.419 432.957 147.591 432.965 146.767C433 143.274 434.014 139.793 435.878 136.837L435.909 136.828C437.304 141.44 441.245 145.259 445.961 146.347C448.488 146.928 451.362 146.703 453.352 145.038C453.573 144.856 453.777 144.648 453.963 144.427C455.259 145.572 456.729 146.525 458.298 147.254C459.642 147.878 461.064 148.337 462.52 148.619C463.231 148.753 463.998 148.905 464.726 148.901C465.498 148.892 466.087 148.866 466.434 149.599C466.807 150.384 467.163 151.129 467.683 151.836C468.74 153.297 470.132 154.515 471.736 155.343L471.844 155.447C473.127 154.051 475.464 153.912 477.05 154.949C477.115 154.992 477.18 155.035 477.245 155.083C478.84 156.271 479.49 158.494 479.04 160.432C478.511 162.716 476.777 164.58 474.497 165.2C472.78 165.668 470.877 165.369 469.377 164.429C466.989 168.967 463.244 172.725 458.601 174.871C457.855 175.218 457.084 175.521 456.295 175.781C454.505 176.371 452.645 176.726 450.768 176.852C448.835 176.986 446.884 176.878 444.981 176.527C442.801 176.128 440.776 174.867 439.116 173.428C437.69 172.192 436.992 170.853 436.182 169.184C435.653 168.101 435.224 166.982 434.877 165.838L434.877 165.836ZM455.428 164.713C455.619 163.699 455.216 162.524 454.297 162.047C453.352 161.553 452.212 161.891 451.185 162.177C449.295 162.702 447.348 163.022 445.389 163.14C444.059 163.213 441.938 162.55 441.995 164.718C442.017 165.623 442.606 166.421 443.274 167.032C444.683 168.32 446.568 169.078 448.476 169.117C450.383 169.16 452.299 168.489 453.76 167.262C454.553 166.594 455.234 165.732 455.429 164.713H455.428Z" fill="#FFC3A8"/>
<path d="M341.974 190.11L343.521 203.57H337.513L336.048 190.804L341.974 190.11Z" fill="#00BFFB"/>
<path d="M476.217 207.337L470.821 211.888H463.577L468.974 207.337H476.217Z" fill="#00BFFB"/>
<path d="M411.005 207.337L405.608 211.888H398.36L403.757 207.337H411.005Z" fill="#00BFFB"/>
<path d="M488.71 195.641H457.062C456.819 193.921 456.65 192.191 456.771 190.462C456.936 188.177 457.651 185.858 459.195 184.163C460.148 183.114 461.371 182.351 462.415 181.393C463.196 180.674 463.898 179.781 464.193 178.779C474.302 180.383 483.651 186.725 488.71 195.641Z" fill="#0096FF"/>
<path d="M425.644 225.547L419.822 230.459H412.574L418.396 225.547H425.644Z" fill="#00BFFB"/>
<path d="M423.797 220.991L418.396 225.547H411.148L416.554 220.991H423.797Z" fill="#00BFFB"/>
<path d="M434.591 211.888L429.194 216.44H421.951L427.347 211.888H434.591Z" fill="#00BFFB"/>
<path d="M483.465 207.337L478.068 211.888H470.821L476.217 207.337H483.465Z" fill="#00BFFB"/>
<path d="M418.396 225.547L412.574 230.459H405.327L411.148 225.547H418.396Z" fill="#00BFFB"/>
<path d="M436.442 216.44L431.045 220.991H423.797L429.194 216.44H436.442Z" fill="#00BFFB"/>
<path d="M420.099 211.888L414.703 216.44H407.459L412.856 211.888H420.099Z" fill="#00BFFB"/>
<path d="M403.905 225.547L398.083 230.459H390.835L396.657 225.547H403.905Z" fill="#00BFFB"/>
<path d="M416.554 220.991L411.148 225.547H403.905L409.306 220.991H416.554Z" fill="#00BFFB"/>
<path d="M364.311 185.724L361.528 203.565H355.485L358.411 184.818L364.311 185.724Z" fill="#D18915"/>
<path d="M396.657 225.547L390.836 230.459H383.592L389.413 225.547H396.657Z" fill="#00BFFB"/>
<path d="M427.347 211.888L421.951 216.44H414.703L420.099 211.888H427.347Z" fill="#00BFFB"/>
<path d="M461.726 207.337L456.33 211.888H449.086L454.483 207.337H461.726Z" fill="#00BFFB"/>
<path d="M516.951 200.319L517.056 200.549H516.912C516.925 200.471 516.938 200.397 516.951 200.319Z" fill="#7964FF"/>
<path d="M405.608 211.888L400.211 216.44H392.964L398.36 211.888H405.608Z" fill="#00BFFB"/>
<path d="M439.988 207.337L434.591 211.888H427.347L432.744 207.337H439.988Z" fill="#00BFFB"/>
<path d="M402.063 220.991L396.657 225.547H389.413L394.815 220.991H402.063Z" fill="#00BFFB"/>
<path d="M447.378 225.547L441.557 230.459H434.313L440.135 225.547H447.378Z" fill="#00BFFB"/>
<path d="M432.744 207.337L427.347 211.888H420.099L425.496 207.337H432.744Z" fill="#00BFFB"/>
<path d="M451.336 195.641H429.146C430.303 191.012 433.784 187.072 437.898 184.531C440.811 182.733 444.019 181.532 447.322 180.595C447.343 181.146 447.604 181.697 447.942 182.147C448.397 182.754 448.999 183.244 449.468 183.842C450.734 185.45 451.111 187.947 450.937 189.95C450.777 191.84 451.063 193.743 451.336 195.641Z" fill="#0096FF"/>
<path d="M435.908 136.827L435.878 136.836C434.014 139.792 432.999 143.273 432.965 146.767C432.956 147.591 433.012 148.418 433.078 149.246C428.882 147.343 425.388 143.797 423.979 139.415C422.457 134.664 423.628 129.033 427.265 125.622C430.191 122.874 434.278 121.764 438.24 121.11C445.046 119.978 452.029 119.905 458.852 120.919C462.472 121.461 466.126 122.336 469.187 124.334C472.152 126.272 474.492 129.428 474.753 132.943L475.264 132.9C476.963 133.086 478.42 134.326 479.226 135.835C480.037 137.339 480.284 139.081 480.357 140.789C480.57 145.696 479.404 150.642 477.05 154.946C475.463 153.91 473.127 154.049 471.844 155.445L471.735 155.341C470.132 154.513 468.74 153.294 467.682 151.834C467.162 151.127 466.807 150.381 466.434 149.597C466.087 148.864 465.498 148.89 464.726 148.899C463.998 148.903 463.231 148.752 462.519 148.617C461.063 148.335 459.641 147.876 458.297 147.251C456.728 146.523 455.259 145.569 453.963 144.425C453.777 144.646 453.573 144.854 453.351 145.036C451.362 146.701 448.488 146.926 445.961 146.345C441.244 145.257 437.304 141.438 435.908 136.826V136.827Z" fill="#112A35"/>
<path d="M499.634 220.324L512.213 266.433L508.811 266.507L496.708 222.864L499.634 220.324Z" fill="#0096FF"/>
<path d="M517.055 200.548L518.555 203.899L499.634 220.324L496.708 222.864L495.902 219.955L495.537 219.544L516.886 200.687C516.895 200.64 516.904 200.596 516.912 200.549H517.055V200.548Z" fill="#0096FF"/>
<path d="M382.166 225.547L376.344 230.459H369.096L374.918 225.547H382.166Z" fill="#00BFFB"/>
<path d="M490.713 207.337L485.316 211.888H478.068L483.465 207.337H490.713Z" fill="#00BFFB"/>
<path d="M492.559 211.888L487.163 216.44H479.92L485.316 211.888H492.559Z" fill="#00BFFB"/>
<path d="M440.135 225.547L434.313 230.459H427.065L432.887 225.547H440.135Z" fill="#00BFFB"/>
<path d="M409.306 220.991L403.905 225.547H396.657L402.063 220.991H409.306Z" fill="#00BFFB"/>
<path d="M425.496 207.337L420.099 211.888H412.856L418.253 207.337H425.496Z" fill="#00BFFB"/>
<path d="M447.235 207.337L441.838 211.888H434.591L439.988 207.337H447.235Z" fill="#00BFFB"/>
<path d="M380.324 220.991L374.918 225.547H367.675L373.076 220.991H380.324Z" fill="#00BFFB"/>
<path d="M478.068 211.888L472.672 216.44H465.424L470.821 211.888H478.068Z" fill="#00BFFB"/>
<path d="M470.821 211.888L465.424 216.44H458.18L463.577 211.888H470.821Z" fill="#00BFFB"/>
<path d="M463.577 211.888L458.18 216.44H450.933L456.33 211.888H463.577Z" fill="#00BFFB"/>
<path d="M485.316 211.888L479.92 216.44H472.672L478.068 211.888H485.316Z" fill="#00BFFB"/>
<path d="M378.473 216.44L373.076 220.991H365.828L371.225 216.44H378.473Z" fill="#00BFFB"/>
<path d="M469.117 225.547L463.296 230.459H456.052L461.874 225.547H469.117Z" fill="#00BFFB"/>
<path d="M418.253 207.337L412.856 211.888H405.609L411.005 207.337H418.253Z" fill="#00BFFB"/>
<path d="M385.72 216.44L380.323 220.991H373.076L378.473 216.44H385.72Z" fill="#00BFFB"/>
<path d="M389.266 207.337L383.869 211.888H376.622L382.019 207.337H389.266Z" fill="#00BFFB"/>
<path d="M394.815 220.991L389.413 225.547H382.166L387.567 220.991H394.815Z" fill="#00BFFB"/>
<path d="M351.311 177.54L349.889 173.348L347.201 183.118L347.509 203.566L343.725 203.57L346.391 156.78L356.643 157.444L354.085 203.566H353.483L353.171 183.019L351.311 177.54Z" fill="#00BFFB"/>
<path d="M443.689 216.44L438.293 220.991H431.045L436.442 216.44H443.689Z" fill="#00BFFB"/>
<path d="M479.92 216.44L474.522 220.991H467.275L472.672 216.44H479.92Z" fill="#00BFFB"/>
<path d="M403.757 207.337L398.36 211.888H391.117L396.514 207.337H403.757Z" fill="#00BFFB"/>
<path d="M396.514 207.337L391.117 211.888H383.869L389.266 207.337H396.514Z" fill="#00BFFB"/>
<path d="M431.045 220.991L425.644 225.547H418.396L423.797 220.991H431.045Z" fill="#00BFFB"/>
<path d="M474.522 220.991L469.117 225.547H461.874L467.275 220.991H474.522Z" fill="#00BFFB"/>
<path d="M461.874 225.547L456.052 230.459H448.804L454.626 225.547H461.874Z" fill="#00BFFB"/>
<path d="M460.027 220.991L454.626 225.547H447.378L452.784 220.991H460.027Z" fill="#00BFFB"/>
<path d="M487.163 216.44L481.766 220.991H474.522L479.92 216.44H487.163Z" fill="#00BFFB"/>
<path d="M429.194 216.44L423.797 220.991H416.554L421.951 216.44H429.194Z" fill="#00BFFB"/>
<path d="M421.95 216.44L416.554 220.991H409.306L414.702 216.44H421.95Z" fill="#00BFFB"/>
<path d="M414.703 216.44L409.306 220.991H402.063L407.459 216.44H414.703Z" fill="#00BFFB"/>
<path d="M412.856 211.888L407.459 216.44H400.211L405.609 211.888H412.856Z" fill="#00BFFB"/>
<path d="M407.459 216.44L402.063 220.991H394.815L400.211 216.44H407.459Z" fill="#00BFFB"/>
<path d="M400.211 216.44L394.815 220.991H387.567L392.964 216.44H400.211Z" fill="#00BFFB"/>
<path d="M387.567 220.991L382.166 225.547H374.918L380.324 220.991H387.567Z" fill="#00BFFB"/>
<path d="M392.964 216.44L387.567 220.991H380.323L385.72 216.44H392.964Z" fill="#00BFFB"/>
<path d="M398.36 211.888L392.964 216.44H385.72L391.117 211.888H398.36Z" fill="#00BFFB"/>
<path d="M391.117 211.888L385.72 216.44H378.473L383.869 211.888H391.117Z" fill="#00BFFB"/>
<path d="M467.275 220.991L461.874 225.547H454.626L460.027 220.991H467.275Z" fill="#00BFFB"/>
<path d="M472.672 216.44L467.275 220.991H460.027L465.424 216.44H472.672Z" fill="#00BFFB"/>
<path d="M433.481 157.703C433.676 160.439 434.066 163.204 434.877 165.835C434.127 165.905 433.36 165.844 432.631 165.649C430.347 165.025 428.617 163.161 428.084 160.881C427.633 158.943 428.283 156.719 429.879 155.532C430.85 154.808 432.155 154.561 433.329 154.812C433.364 155.775 433.412 156.741 433.481 157.703Z" fill="#FF9566"/>
<path d="M452.784 220.991L447.378 225.547H440.135L445.536 220.991H452.784Z" fill="#00BFFB"/>
<path d="M468.974 207.337L463.577 211.888H456.33L461.726 207.337H468.974Z" fill="#00BFFB"/>
<path d="M425.409 233.653L408.79 247.668H379.513L396.132 233.653C395.633 233.155 425.409 233.653 425.409 233.653Z" fill="#E1EAEF"/>
<path d="M465.424 216.44L460.027 220.991H452.784L458.18 216.44H465.424Z" fill="#00BFFB"/>
<path d="M383.869 211.888L378.473 216.44H371.225L376.622 211.888H383.869Z" fill="#00BFFB"/>
<path d="M481.766 220.991L476.365 225.547H469.117L474.522 220.991H481.766Z" fill="#00BFFB"/>
<path d="M389.413 225.547L383.592 230.459H376.344L382.166 225.547H389.413Z" fill="#00BFFB"/>
<path d="M373.076 220.991L367.675 225.547H360.427L365.828 220.991H373.076Z" fill="#00BFFB"/>
<path d="M367.675 225.547L361.853 230.459H354.605L360.427 225.547H367.675Z" fill="#00BFFB"/>
<path d="M458.18 216.44L452.784 220.991H445.536L450.933 216.44H458.18Z" fill="#00BFFB"/>
<path d="M450.933 216.44L445.536 220.991H438.292L443.689 216.44H450.933Z" fill="#00BFFB"/>
<path d="M411.148 225.547L405.327 230.459H398.083L403.905 225.547H411.148Z" fill="#00BFFB"/>
<path d="M327.513 182.152L334.097 203.57H327.855L321.813 183.92L327.513 182.152Z" fill="#D18915"/>
<path d="M355.485 203.565H361.528H362.338L361.086 216.826L331.947 242.566L327.717 203.57H327.855H334.097H337.513H343.521H343.725L347.509 203.565H353.482H354.085H355.485Z" fill="#00BFFB"/>
<path d="M497.956 207.337L492.56 211.888H485.316L490.713 207.337H497.956Z" fill="#00BFFB"/>
<path d="M445.536 220.991L440.135 225.547H432.887L438.293 220.991H445.536Z" fill="#00BFFB"/>
<path d="M438.293 220.991L432.887 225.547H425.644L431.045 220.991H438.293Z" fill="#00BFFB"/>
<path d="M441.838 211.888L436.442 216.44H429.194L434.591 211.888H441.838Z" fill="#00BFFB"/>
<path d="M456.33 211.888L450.933 216.44H443.689L449.086 211.888H456.33Z" fill="#00BFFB"/>
<path d="M449.086 211.888L443.689 216.44H436.442L441.838 211.888H449.086Z" fill="#00BFFB"/>
<path d="M454.483 207.337L449.086 211.888H441.838L447.235 207.337H454.483Z" fill="#00BFFB"/>
<path d="M432.887 225.547L427.065 230.459H419.822L425.644 225.547H432.887Z" fill="#00BFFB"/>
<path d="M476.365 225.547L470.543 230.459H463.296L469.117 225.547H476.365Z" fill="#00BFFB"/>
<path d="M374.918 225.547L369.096 230.459H361.853L367.675 225.547H374.918Z" fill="#00BFFB"/>
<path d="M454.626 225.547L448.805 230.459H441.557L447.378 225.547H454.626Z" fill="#00BFFB"/>
<path d="M426.194 195.641H412.86C412.778 194.033 412.531 192.429 412.123 190.873C416.38 190.154 420.637 189.429 424.889 188.71C425.479 190.986 425.916 193.305 426.194 195.641L426.194 195.641Z" fill="#0096FF"/>
<path d="M461.748 178.489C460.976 179.945 459.568 181.042 458.007 181.605C456.303 182.225 454.431 182.264 452.641 181.983C451.939 181.874 451.232 181.71 450.621 181.341C450.118 181.038 449.689 180.569 449.498 180.019C450.087 179.867 450.677 179.724 451.271 179.585L451.344 179.603C451.371 179.49 451.383 179.377 451.379 179.26C454.158 179.031 456.858 177.986 459.077 176.304C459.307 176.998 459.541 177.691 459.771 178.389C460.43 178.402 461.093 178.437 461.748 178.489L461.748 178.489Z" fill="#FFC3A8"/>
<path d="M458.601 174.869C458.761 175.346 458.917 175.823 459.078 176.304C456.858 177.986 454.158 179.031 451.379 179.26C451.375 178.818 451.21 178.372 451.085 177.938C450.98 177.574 450.872 177.214 450.768 176.85C452.645 176.724 454.505 176.369 456.295 175.779C457.084 175.519 457.855 175.216 458.601 174.869Z" fill="#FF9566"/>
<path d="M464.193 178.779C463.898 179.781 463.196 180.674 462.415 181.393C461.371 182.351 460.148 183.114 459.195 184.163C457.651 185.858 456.936 188.177 456.771 190.461C456.65 192.191 456.819 193.921 457.062 195.641H451.336C451.063 193.743 450.776 191.84 450.937 189.95C451.11 187.947 450.733 185.45 449.467 183.842C448.999 183.244 448.397 182.754 447.941 182.147C447.603 181.697 447.343 181.146 447.321 180.595C448.041 180.392 448.769 180.197 449.498 180.019C449.688 180.569 450.118 181.038 450.62 181.341C451.232 181.71 451.938 181.874 452.64 181.983C454.431 182.264 456.304 182.225 458.007 181.605C459.567 181.042 460.976 179.945 461.748 178.489C462.567 178.554 463.382 178.653 464.193 178.779Z" fill="#00BFFB"/>
<path d="M420.16 176.551C421.127 176.317 422.232 176.564 423.039 177.171C424.187 178.034 424.794 179.473 424.963 180.903C425.158 182.546 424.811 184.245 424.018 185.693C424.339 186.69 424.629 187.7 424.889 188.71C420.637 189.43 416.38 190.154 412.123 190.873C411.898 189.994 411.621 189.127 411.291 188.281C409.791 187.856 408.512 186.712 407.936 185.264C407.347 183.795 407.498 182.048 408.331 180.695C408.118 180.162 408.149 179.529 408.426 179.022C408.755 178.424 409.414 178.02 410.095 178.003L410.242 177.921C409.874 177.201 409.921 176.278 410.381 175.61C410.988 174.717 412.158 174.483 413.168 174.557C413.597 174.588 414.026 174.709 414.356 174.978L414.382 174.965C414.031 174.332 413.563 173.772 413.225 173.135C412.761 172.26 412.076 171.571 411.408 170.855C410.633 170.019 409.874 169.039 409.813 167.899C409.783 167.297 409.991 166.638 410.498 166.308C410.923 166.035 411.478 166.039 411.951 166.208C412.423 166.373 412.83 166.69 413.212 167.015C414.738 168.332 415.743 169.941 416.936 171.523C418.141 173.109 419.22 174.796 420.161 176.551H420.16Z" fill="#FFC3A8"/>
<path d="M444.264 156.822C444.894 154.172 443.256 151.514 440.606 150.885C437.956 150.255 435.298 151.893 434.668 154.543C434.039 157.193 435.677 159.851 438.327 160.481C440.977 161.11 443.635 159.472 444.264 156.822Z" fill="#E1EAEF"/>
<path d="M447.272 155.06C447.272 157.784 449.48 159.992 452.204 159.992C454.928 159.992 457.135 157.784 457.135 155.06C457.135 152.336 454.928 150.129 452.204 150.129C449.48 150.129 447.272 152.336 447.272 155.06Z" fill="#E1EAEF"/>
<path d="M472.494 154.522L457.135 155.06C457.135 152.336 454.927 150.129 452.204 150.129C449.48 150.129 447.272 152.336 447.272 155.06C447.272 155.249 447.434 155.75 447.303 155.619C447.105 155.421 444.396 155.682 444.396 155.682C444.396 152.958 442.188 150.75 439.464 150.75C436.741 150.75 434.533 152.958 434.533 155.682H432.541" stroke="#002169" stroke-width="2" stroke-miterlimit="10"/>
<path d="M436.523 148.464C436.318 148.464 436.117 148.368 435.99 148.188C435.784 147.895 435.854 147.489 436.148 147.282C437.451 146.364 439.043 145.929 440.634 146.06C440.992 146.089 441.259 146.403 441.229 146.761C441.199 147.119 440.889 147.386 440.528 147.356C439.26 147.253 437.936 147.613 436.896 148.345C436.782 148.425 436.652 148.464 436.523 148.464Z" fill="#112A35"/>
<path d="M454.489 147.63C454.694 147.63 454.894 147.534 455.021 147.354C455.228 147.06 455.158 146.654 454.864 146.448C453.56 145.529 451.968 145.094 450.377 145.225C450.019 145.254 449.753 145.569 449.782 145.926C449.812 146.284 450.122 146.551 450.483 146.521C451.751 146.419 453.075 146.778 454.115 147.511C454.229 147.591 454.36 147.63 454.489 147.63Z" fill="#112A35"/>
<path d="M464.882 109.974V110.052H463.881C464.223 110.052 464.557 110.026 464.882 109.974Z" fill="#7964FF"/>
<path d="M463.881 98.7769C466.443 98.7769 468.54 100.875 468.54 103.437C468.54 104.715 468.016 105.882 467.171 106.727C466.325 107.572 465.16 108.097 463.881 108.097H451.878C449.316 108.097 447.218 105.998 447.218 103.437C447.218 102.158 447.742 100.992 448.587 100.147C449.433 99.3016 450.594 98.7772 451.877 98.7772H463.88L463.881 98.7769Z" fill="#E1EAEF"/>
<path d="M470.496 96.8174C474.146 96.8174 477.115 99.7865 477.115 103.437C477.115 107.087 474.145 110.051 470.496 110.051H464.882V109.973C468.06 109.492 470.496 106.744 470.496 103.436C470.496 99.7861 467.531 96.817 463.881 96.817H470.496V96.8174Z" fill="#0096FF"/>
<path d="M451.878 108.097H463.881C465.16 108.097 466.325 107.573 467.171 106.727C468.016 105.882 468.54 104.716 468.54 103.437C468.54 100.875 466.442 98.7772 463.881 98.7772H451.878C450.595 98.7772 449.433 99.3019 448.588 100.147C447.742 100.992 447.218 102.158 447.218 103.437C447.218 105.999 449.316 108.097 451.878 108.097L451.878 108.097ZM457.062 110.052H451.878C448.228 110.052 445.259 107.082 445.259 103.437C445.259 99.7921 448.228 96.8181 451.878 96.8181H463.881C467.53 96.8181 470.495 99.7872 470.495 103.437C470.495 106.745 468.059 109.493 464.882 109.974C464.557 110.026 464.223 110.052 463.88 110.052H457.061L457.062 110.052Z" fill="#00BFFB"/>
<path d="M464.882 110.052V111.703H457.062V110.052H464.882Z" fill="#0096FF"/>
<path d="M453.422 103.432C453.422 104.147 452.842 104.727 452.127 104.727C451.411 104.727 450.832 104.147 450.832 103.432C450.832 102.716 451.412 102.136 452.127 102.136C452.842 102.136 453.422 102.716 453.422 103.432Z" fill="#0096FF"/>
<path d="M464.608 104.21C465.038 102.383 463.905 100.554 462.078 100.124C460.251 99.695 458.422 100.828 457.993 102.655C457.563 104.481 458.696 106.31 460.523 106.74C462.35 107.169 464.179 106.037 464.608 104.21Z" fill="#00BFFB"/>
<path d="M461.299 104.718C462.01 104.718 462.586 104.142 462.586 103.432C462.586 102.721 462.01 102.145 461.299 102.145C460.589 102.145 460.013 102.721 460.013 103.432C460.013 104.142 460.589 104.718 461.299 104.718Z" fill="#0096FF"/>
<path d="M324.197 177.41L321.661 173.786L321.735 178.716C322.661 178.449 323.576 178.146 324.484 177.821L324.197 177.41Z" fill="#112A35"/>
<path d="M327.513 182.152L324.485 177.821C323.577 178.146 322.661 178.449 321.735 178.716L321.813 183.92L327.513 182.151V182.152Z" fill="#E1EAEF"/>
<path d="M337.747 180.812L337.096 184.641L339.36 184.363L337.747 180.812Z" fill="#00BFFB"/>
<path d="M339.36 184.363L337.096 184.641L336.048 190.804L341.974 190.11L339.577 184.839L339.36 184.363Z" fill="#0A81D1"/>
<path d="M347.201 183.118L347.509 203.566H353.482L353.17 183.019L347.201 183.118Z" fill="#E1EAEF"/>
<path d="M349.889 173.348L348.803 177.294L351.205 177.227L349.889 173.348Z" fill="#112A35"/>
<path d="M351.311 177.54L351.205 177.227L348.803 177.294L347.201 183.118L353.17 183.019L351.311 177.54Z" fill="#0A81D1"/>
<path d="M362.707 175.636L361.18 178.899L363.285 179.282L362.707 175.636Z" fill="#00BFFB"/>
<path d="M363.285 179.282L361.18 178.899L358.411 184.818L364.311 185.724L363.401 180.01L363.285 179.282Z" fill="#E1EAEF"/>
<path d="M472.087 160.22C472.293 159.353 472.906 158.591 473.709 158.204C474.512 157.817 475.489 157.812 476.296 158.191" stroke="#FF9566" stroke-width="2" stroke-linecap="round" stroke-linejoin="round"/>
<path d="M445.96 159.172C445.511 159.056 445.006 159.192 444.677 159.517C444.347 159.843 444.206 160.347 444.317 160.797" stroke="#FF9566" stroke-width="2" stroke-linecap="round" stroke-linejoin="round"/>
<path d="M118.646 263.945L121.035 304.254H110.809C110.692 290.807 110.575 277.361 110.463 263.91C113.185 263.992 115.916 263.98 118.647 263.945H118.646Z" fill="#00BFFB"/>
<path d="M91.5754 102.119C89.668 101.135 87.453 101.651 85.7234 102.951C82.7108 78.2169 84.748 63.3141 92.4943 47.4879L92.9796 47.7003C92.8799 47.9126 92.7843 48.1294 92.6936 48.3462C89.7502 55.2253 88.2853 62.6771 87.9644 70.137C87.6308 77.9224 88.5148 85.7464 90.331 93.315C90.9811 96.0416 91.7572 98.7422 92.6501 101.399C92.8234 101.92 93.0056 102.435 93.1919 102.951C92.6717 102.44 92.4247 102.557 91.575 102.119H91.5754Z" fill="#D18915"/>
<path d="M13.4845 149.294C12.0063 146.94 11.1394 144.162 12.8646 141.747C13.7705 140.477 15.2011 139.593 16.74 139.35L16.7745 139.345C16.9478 140.295 17.5072 141.136 18.0445 141.937C19.2885 143.797 20.5499 145.678 22.2189 147.165C23.4022 148.223 24.8239 149.072 26.2851 149.489C26.6361 150.785 26.4238 152.224 25.6912 153.355C24.9024 154.577 23.5283 155.405 22.0716 155.531C19.5793 155.739 17.351 154.01 15.6779 152.15C14.9408 151.33 14.152 150.355 13.4845 149.293V149.294Z" fill="#FFC3A8"/>
<path d="M584.812 278.319H573.46V304.254H584.812V278.319Z" fill="#0096FF"/>
<path d="M125.703 166.681C123.879 167.548 122.075 168.463 120.298 169.425C106.47 179.529 92.9067 189.742 79.369 199.959C79.9674 195.819 79.8502 191.558 80.1883 187.366C80.6219 181.965 82.022 176.269 86.0142 172.602C89.3217 169.564 93.8992 168.389 98.312 167.526C108.629 165.502 119.175 164.609 129.691 164.869C128.352 165.45 127.021 166.053 125.703 166.681Z" fill="#0096FF"/>
<path d="M106.318 78.893C108.671 90.5147 105.304 106.116 100.275 117.334C97.3577 112.856 94.9955 107.966 93.1922 102.951C93.0059 102.435 92.8237 101.919 92.6504 101.399C91.7575 98.7419 90.9814 96.0413 90.3313 93.3146C88.5151 85.7461 87.6307 77.922 87.9647 70.1367C88.2852 62.6767 89.7505 55.2249 92.6939 48.3459C92.785 48.129 92.8802 47.9122 92.9799 47.6999C93.0751 47.466 93.1792 47.2317 93.2919 47.0019C98.6886 35.1418 107.753 25.0203 118.793 18.1237C131.286 10.3168 145.24 5.91704 160.069 6.22904C173.021 6.49792 185.926 10.6808 196.381 18.3751C200.01 21.0452 203.365 24.1404 206.217 27.6253C208.636 30.5728 210.695 33.7982 212.247 37.279C214.202 41.6572 215.324 46.46 215.381 51.3975C215.424 55.0215 214.899 58.7188 213.712 62.3773C214.548 68.5718 215.35 74.8008 215.758 81.0384C215.775 81.2898 215.792 81.5412 215.805 81.7926L215.714 81.797C209.706 76.0273 205.488 68.368 203.941 60.184C203.113 60.2967 202.415 60.1754 201.921 59.1955C201.474 58.3156 201.535 57.2536 201.505 56.2956C201.444 54.4838 201.301 52.6716 201.08 50.8728C200.859 49.0695 200.556 47.2793 200.174 45.5065C199.979 44.5962 199.763 43.6903 199.524 42.7884C199.325 42.0387 198.883 41.1414 198.831 40.3742C199.126 44.839 199.273 49.6939 198.718 54.4667C198.514 56.2179 198.155 58.0817 196.91 59.3301C195.515 60.7217 193.377 60.9817 191.418 61.168C186.528 61.6276 181.643 62.0869 176.758 62.5466C176.302 62.5901 175.787 62.6161 175.449 62.3037C175.158 62.0393 175.097 61.6101 175.054 61.22C174.703 58.0382 174.356 54.8609 174.005 51.679C173.827 50.0881 173.654 48.4972 173.481 46.9063C173.394 46.1432 173.277 45.3719 173.225 44.6047C173.199 44.2406 173.454 43.3693 173.038 43.1916C172.072 42.7799 172.462 46.3994 172.484 46.9108C172.549 48.5667 172.644 50.2268 172.609 51.8869C172.531 55.8185 171.504 60.0795 168.383 62.4636C166.133 64.1843 163.194 64.631 160.39 65.0255C157.165 65.4807 153.393 65.7581 151.139 63.4045C151.334 61.6057 151.43 59.798 151.434 57.9862C151.439 54.3451 151.066 50.7036 150.346 47.132C150.108 45.9487 148.404 37.2965 146.943 37.7818C146.237 38.0157 146.627 39.4898 146.653 40.0227C146.701 40.9893 146.74 41.9517 146.761 42.9182C146.809 44.8126 146.809 46.707 146.761 48.601C146.666 52.4243 146.371 56.2431 145.881 60.036C145.591 62.2859 145.131 64.7176 143.415 66.1958C142.245 67.21 140.671 67.6004 139.167 67.96C136.085 68.6927 133.003 69.4253 129.921 70.1579C129.383 70.288 128.794 70.4137 128.291 70.1839C127.467 69.8068 127.302 68.7231 127.246 67.8172C127.086 65.0214 126.93 62.2252 126.639 59.438C126.514 58.2156 126.514 56.7764 126.206 55.6017C126.067 55.0684 125.803 55.0684 125.595 55.6277C125.443 56.0263 125.53 56.499 125.517 56.9192C125.491 57.6518 125.456 58.38 125.399 59.1126C125.291 60.5559 125.109 61.9951 124.806 63.4127C124.212 66.1694 123.124 68.8399 121.286 71.0072C117.58 75.381 111.793 76.8462 106.318 78.8923V78.893Z" fill="#D18915"/>
<path d="M26.285 149.489C24.8243 149.073 23.4026 148.223 22.2189 147.166C20.5499 145.679 19.2885 143.798 18.0445 141.938C17.5071 141.136 16.9478 140.295 16.7745 139.346C16.7701 139.333 16.7701 139.32 16.766 139.307C16.4841 137.699 17.4421 136.39 18.6298 135.458C19.9433 134.431 21.2349 133.724 22.9731 133.975L23.0727 133.928C24.0091 135.87 28.5952 141.098 30.0779 142.099C30.5115 142.393 30.9882 142.645 31.4825 142.831C32.0373 144.127 32.0288 145.658 31.4479 146.941C30.8239 148.328 29.5535 149.403 28.0842 149.784C27.4859 149.771 26.883 149.667 26.285 149.489Z" fill="#FFC3A8"/>
<path d="M492.381 255.815C496.41 256.193 501.848 258.428 500.696 263.423C500.392 264.733 499.575 265.917 498.459 266.667H473.045C471.956 266.555 470.923 265.929 470.35 264.993C467.345 260.111 476.653 257.324 479.873 256.651C484.041 255.426 490.123 255.603 492.381 255.815Z" fill="#359E2A"/>
<path d="M47.1534 110.975L46.923 111.044C46.9752 110.992 47.0184 110.94 47.0665 110.892L47.1534 110.974V110.975Z" fill="#7964FF"/>
<path d="M110.462 263.91C108.559 263.858 106.665 263.758 104.779 263.589C98.4983 263.026 92.1566 260.936 87.5661 256.615C83.0321 252.345 80.5784 246.259 79.6465 240.082C85.0477 239.839 90.4314 237.815 94.7401 234.195C102.023 229.952 109.14 225.43 116.076 220.641L118.646 263.945C115.915 263.979 113.184 263.992 110.462 263.91Z" fill="#0096FF"/>
<path d="M208.922 22.2029C223.201 40.7167 226.651 58.8664 228.715 77.8744C227.501 75.9671 225.711 74.4282 223.535 73.9124C222.499 73.6696 221.333 73.7131 220.258 74.0295C219.252 66.3918 217.848 58.8753 215.416 51.3975H215.381C215.325 46.4604 214.202 41.6572 212.247 37.279C210.696 33.7982 208.636 30.5732 206.218 27.6253C208.082 26.7715 209.17 24.3613 208.914 22.2025H208.922L208.922 22.2029Z" fill="#00BFFB"/>
<path d="M409.012 261.019C408.925 261.015 408.838 261.011 408.751 261.006V260.876C408.838 260.919 408.925 260.967 409.012 261.019Z" fill="#7964FF"/>
<path d="M408.751 260.876V261.006C396.436 260.442 383.236 260.33 370.995 260.78V260.694C366.656 257.17 361.74 254.959 356.608 253.879H356.591C356.526 253.316 356.296 252.796 355.897 252.445C355.143 251.829 354.363 251.253 353.552 250.711C353.37 250.446 353.179 250.186 352.984 249.935L353.101 249.844C371.853 247.342 392.378 251.729 408.751 260.876Z" fill="#E1EAEF"/>
<path d="M353.552 250.711C354.363 251.252 355.143 251.829 355.897 252.445C356.296 252.796 356.526 253.316 356.591 253.879C356.699 254.755 356.417 255.748 355.793 256.411C354.77 257.499 353.131 257.802 351.649 257.612C350.167 257.421 348.775 256.81 347.367 256.311C340.999 254.057 333.846 254.07 327.487 256.359C329.962 259.029 332.572 260.251 335.221 260.299C338.107 259.64 341.146 259.684 343.964 260.494C345.498 260.936 347.198 261.92 347.262 263.515C347.31 264.564 346.573 265.522 345.663 266.051C345.156 266.346 344.597 266.532 344.024 266.667C343.574 266.775 343.11 266.853 342.655 266.926C338.97 267.529 335.286 268.131 331.605 268.734C326.447 270.507 319.16 268.864 314.257 264.421C312.376 264.668 310.014 264.85 307.651 265.037C305.735 265.34 303.811 265.63 301.886 265.903C300.885 266.042 299.888 266.176 298.886 266.298C300.365 257.615 301.535 248.881 302.389 240.12C310.62 240.484 318.852 240.844 327.084 241.209V241.243C332.03 241.235 336.425 241.638 341.272 242.86C345.776 243.996 350.145 246.306 352.984 249.934C353.179 250.186 353.37 250.446 353.552 250.71V250.711Z" fill="#FFC3A8"/>
<path d="M215.416 51.3975C217.847 58.875 219.252 66.3915 220.257 74.0295C219.425 74.2724 218.649 74.6796 218.034 75.2389C216.586 76.5524 215.927 79.1098 215.758 81.0388C215.35 74.8012 214.548 68.5722 213.712 62.3777C214.899 58.7191 215.424 55.0215 215.381 51.3979H215.415L215.416 51.3975Z" fill="#D18915"/>
<path d="M231.099 88.1827C231.159 89.678 231.194 91.1782 231.19 92.6821C231.177 96.9171 230.852 101.148 229.872 105.257C229.148 108.3 228.026 111.33 226.006 113.723C223.986 116.116 220.947 117.798 217.822 117.594C215.542 117.447 213.318 116.116 212.16 114.2L212.065 114.165C213.916 109.063 215.06 103.666 215.603 98.2826C216.157 92.7992 216.14 87.2939 215.806 81.7933C215.793 81.542 215.776 81.2906 215.759 81.0392C215.928 79.1102 216.587 76.5528 218.035 75.2393C218.65 74.68 219.426 74.2728 220.259 74.0299C221.334 73.7134 222.499 73.6703 223.536 73.9128C225.711 74.4286 227.502 75.9674 228.715 77.8748C229.08 78.4382 229.392 79.0366 229.647 79.6476C230.766 82.3266 230.982 85.2827 231.1 88.1827H231.099Z" fill="#0096FF"/>
<path d="M51.6478 109.583L53.9237 108.881C53.7635 109.471 53.5467 110.29 53.3213 111.157C52.762 110.632 52.2027 110.108 51.6478 109.583Z" fill="#112A35"/>
<path d="M51.6478 109.583C52.2026 110.108 52.7619 110.632 53.3209 111.157C52.8006 113.138 52.2287 115.396 52.1115 115.838L47.1525 110.975L51.6478 109.583Z" fill="#5CAFFF"/>
<path d="M87.3187 44.6872C87.0588 44.3537 86.855 43.9851 86.7204 43.5861C86.3563 42.498 86.5642 41.3105 86.8505 40.2005C87.9212 36.0826 90.1145 32.6364 92.8497 29.4371C97.2234 24.3308 102.265 19.8053 107.813 16.0036C120.614 7.23049 134.923 2.32797 150.229 0.563757C157.902 -0.32058 165.709 -0.194884 173.321 1.15765C184.539 3.14313 195.341 7.83778 204.067 15.1635C206.182 16.9407 208.272 19.0389 208.839 21.7391C208.87 21.8908 208.896 22.047 208.913 22.2029C209.169 24.3616 208.081 26.7718 206.217 27.6256C203.365 24.1404 200.01 21.0456 196.381 18.3754C185.926 10.6812 173.021 6.49826 160.069 6.22939C145.24 5.91738 131.286 10.3171 118.793 18.124C107.753 25.0206 98.6886 35.1425 93.2919 47.0022C91.9959 46.8765 90.6779 46.7423 89.473 46.2521C88.6452 45.9185 87.8646 45.3853 87.3187 44.6872Z" fill="#016BA6"/>
<path d="M408.751 261.006V266.667H370.995V260.78C383.237 260.33 396.436 260.442 408.751 261.006Z" fill="#EBEBEB"/>
<path d="M79.2258 99.882C79.343 100.489 79.4337 101.104 79.5033 101.724C79.4036 101.109 79.3125 100.497 79.2258 99.882Z" fill="#7964FF"/>
<path d="M92.4946 47.4875C84.7483 63.3137 82.7111 78.2166 85.7237 102.951C84.4538 103.904 83.4437 105.279 83.006 106.787C82.2995 109.197 82.6334 111.725 83.3831 114.16L82.4296 114.451C81.1507 110.268 80.1797 106.02 79.5036 101.724C79.4345 101.104 79.3434 100.489 79.2262 99.8817C78.4936 94.5671 78.1991 89.1789 78.3118 83.752C78.5241 73.5565 80.1972 63.3874 83.3099 53.6686C84.3329 50.4652 85.3905 47.4481 87.3195 44.6869C87.8658 45.3849 88.646 45.9178 89.4738 46.2518C90.6787 46.7415 91.9967 46.8758 93.2927 47.0019C93.18 47.2317 93.0759 47.4656 92.9807 47.6999L92.4954 47.4875H92.4946Z" fill="#00BFFB"/>
<path d="M95.7151 134.976C95.1558 135.249 94.4581 135.189 93.8902 134.929C93.2659 134.647 92.759 134.161 92.2863 133.667C88.5627 129.783 86.1484 124.885 84.2756 119.891C83.5995 118.092 82.9837 116.276 82.4292 114.451L83.3827 114.161C83.7423 115.331 84.1975 116.475 84.6832 117.581C87.4489 123.896 91.1852 129.783 95.7151 134.976Z" fill="#0096FF"/>
<path d="M175.401 154.856C175.527 156.121 175.67 157.387 175.843 158.648C165.856 157.274 156.168 153.789 147.607 148.466C147.628 147.703 147.654 146.945 147.676 146.181C154.837 147.144 162.146 147.087 169.294 146.077C171.097 145.821 172.9 145.505 174.69 145.115C174.894 148.37 175.08 151.617 175.401 154.855V154.856Z" fill="#FF8570"/>
<path d="M427.343 278.319H415.99V304.254H427.343V278.319Z" fill="#0096FF"/>
<path d="M179.142 88.8933C181.955 88.8933 184.235 86.6129 184.235 83.8C184.235 80.987 181.955 78.7067 179.142 78.7067C176.329 78.7067 174.049 80.987 174.049 83.8C174.049 86.6129 176.329 88.8933 179.142 88.8933Z" fill="black"/>
<path d="M95.7151 134.976C91.1852 129.783 87.4485 123.897 84.6832 117.581C84.1979 116.475 83.7427 115.331 83.3827 114.16C82.6326 111.724 82.299 109.197 83.0056 106.787C83.4433 105.279 84.4534 103.905 85.7233 102.951C87.453 101.65 89.6679 101.135 91.5753 102.119C92.425 102.556 92.672 102.439 93.1922 102.951C94.9955 107.966 97.358 112.856 100.275 117.334C101.077 118.561 101.918 119.757 102.802 120.914C106.339 125.548 110.54 129.675 115.204 133.177L115.2 133.182C115.066 138.115 110.02 142.319 105.143 141.565C101.667 141.028 98.8705 138.479 96.5124 135.874C96.2435 135.579 95.9791 135.28 95.7147 134.976H95.7151Z" fill="#0096FF"/>
<path d="M139.088 91.0442C139.644 88.2868 137.859 85.6006 135.102 85.0445C132.344 84.4884 129.658 86.273 129.102 89.0304C128.546 91.7879 130.331 94.474 133.088 95.0301C135.846 95.5862 138.532 93.8017 139.088 91.0442Z" fill="black"/>
<path d="M139.457 127.421C139.678 130.664 138.04 134.131 135.079 135.475C132.661 136.572 129.83 136.16 127.298 135.362C123.713 134.235 120.267 132.306 117.992 129.315C115.716 126.324 114.788 122.159 116.236 118.691C117.688 115.223 121.793 112.882 125.382 114.001C129.722 115.349 132.669 116.749 135.04 118.977C137.411 121.205 139.232 124.174 139.457 127.421Z" fill="#FFA995"/>
<path d="M236.357 114.858C237.488 123.732 236.487 133.155 231.827 140.789C230.7 142.636 229.287 144.426 227.31 145.306C226.352 145.735 225.251 145.882 224.215 145.718C223.283 145.57 222.546 144.998 221.584 145.055C219.711 145.159 218.485 146.793 216.915 147.603C215.16 148.509 213.244 149.095 211.289 149.368C207.439 149.905 203.417 149.242 199.966 147.443C198.8 146.832 198.796 146.758 197.704 147.422C196.659 148.055 195.701 148.839 194.652 149.468C192.632 150.682 190.499 151.7 188.293 152.511C184.175 154.028 179.792 154.834 175.401 154.856C175.08 151.618 174.894 148.371 174.69 145.116C184.916 142.896 194.734 138.423 201.934 130.915C206.503 126.151 209.81 120.381 212.064 114.165L212.16 114.2C213.317 116.116 215.541 117.447 217.821 117.594C220.946 117.798 223.985 116.116 226.005 113.723C228.025 111.33 229.148 108.3 229.872 105.257C230.851 101.148 231.176 96.917 231.189 92.682C233.552 100.879 235.364 107.087 236.356 114.859L236.357 114.858Z" fill="#D18915"/>
<path d="M134.823 71.069C134.958 72.0184 134.299 72.8938 133.35 73.0284C130.536 73.4271 127.806 74.5282 125.452 76.2144C125.144 76.4353 124.793 76.5394 124.442 76.5394C123.904 76.5394 123.371 76.288 123.033 75.8153C122.474 75.0396 122.651 73.9555 123.432 73.3966C126.236 71.3855 129.5 70.072 132.864 69.5948C133.813 69.4606 134.689 70.1237 134.823 71.0686V71.069Z" fill="#D18915"/>
<path d="M184.643 64.4625C185.562 64.7354 186.087 65.7023 185.813 66.6168C185.588 67.371 184.899 67.8566 184.153 67.8566C183.988 67.8566 183.82 67.8351 183.655 67.7871C180.881 66.9593 177.942 66.8117 175.15 67.358C174.209 67.5443 173.299 66.9288 173.117 65.9883C172.935 65.0478 173.546 64.1375 174.486 63.9511C177.824 63.3011 181.335 63.4788 184.643 64.4625Z" fill="#D18915"/>
<path d="M203.261 101.976C206.408 104.035 207.973 108.005 207.76 111.759C207.552 115.513 205.784 119.041 203.447 121.985C201.796 124.061 199.68 125.99 197.067 126.437C193.859 126.979 190.56 125.032 188.926 122.219C187.292 119.405 187.136 115.92 187.851 112.752C188.566 109.579 190.222 106.766 193.061 103.215C195.406 100.281 200.118 99.9166 203.261 101.975V101.976Z" fill="#FFA995"/>
<path d="M184.643 64.4625C181.336 63.4785 177.825 63.3007 174.487 63.9512C173.546 64.1375 172.935 65.0478 173.117 65.9883C173.299 66.9288 174.209 67.5447 175.15 67.358C177.942 66.8117 180.88 66.9593 183.655 67.7871C183.82 67.8347 183.989 67.8567 184.153 67.8567C184.899 67.8567 185.588 67.371 185.813 66.6168C186.086 65.7024 185.562 64.7355 184.643 64.4625ZM147.676 146.182C140.008 145.159 132.513 142.97 125.573 139.554C122.924 138.25 120.367 136.762 117.918 135.115C116.999 134.495 116.093 133.849 115.204 133.178C110.54 129.675 106.339 125.549 102.802 120.915C101.918 119.757 101.077 118.561 100.275 117.334C105.303 106.116 108.671 90.5151 106.318 78.8934C111.792 76.8473 117.579 75.3821 121.285 71.0084C123.123 68.841 124.211 66.1709 124.805 63.4138C125.109 61.9962 125.291 60.5574 125.399 59.1137C125.455 58.3811 125.49 57.653 125.516 56.9203C125.529 56.4997 125.443 56.0275 125.594 55.6288C125.802 55.0695 126.067 55.0695 126.205 55.6028C126.513 56.7775 126.513 58.2167 126.639 59.4391C126.929 62.2264 127.086 65.0222 127.246 67.8184C127.302 68.7243 127.467 69.8079 128.291 70.185C128.793 70.4148 129.383 70.2891 129.921 70.159C133.003 69.4264 136.084 68.6938 139.167 67.9612C140.671 67.6016 142.244 67.2111 143.415 66.197C145.131 64.7187 145.591 62.287 145.881 60.0371C146.371 56.2443 146.666 52.4254 146.761 48.6021C146.808 46.7077 146.808 44.8133 146.761 42.9193C146.739 41.9528 146.7 40.9904 146.653 40.0239C146.627 39.4906 146.236 38.0168 146.943 37.7829C148.404 37.2976 150.107 45.9494 150.346 47.1331C151.065 50.7051 151.438 54.3462 151.434 57.9873C151.429 59.7991 151.334 61.6068 151.139 63.4056C153.393 65.7592 157.164 65.4818 160.389 65.0266C163.194 64.6321 166.133 64.1858 168.382 62.4647C171.504 60.0806 172.531 55.8196 172.609 51.888C172.643 50.2279 172.548 48.5675 172.483 46.9119C172.462 46.4005 172.072 42.781 173.038 43.1927C173.454 43.3704 173.198 44.2418 173.224 44.6058C173.276 45.373 173.394 46.1447 173.48 46.9074C173.654 48.4983 173.827 50.0892 174.005 51.6801C174.356 54.862 174.703 58.0393 175.054 61.2212C175.097 61.6113 175.158 62.0404 175.448 62.3048C175.786 62.6168 176.302 62.5908 176.757 62.5477C181.643 62.0884 186.528 61.6287 191.418 61.1691C193.377 60.9828 195.514 60.7225 196.91 59.3313C198.154 58.0828 198.514 56.219 198.718 54.4678C199.273 49.695 199.125 44.8401 198.83 40.3753C198.882 41.1425 199.325 42.0398 199.524 42.7896C199.762 43.691 199.979 44.5973 200.174 45.5076C200.555 47.2804 200.859 49.0706 201.08 50.8739C201.301 52.6727 201.444 54.4849 201.505 56.2967C201.535 57.2547 201.474 58.3168 201.921 59.1966C202.415 60.1762 203.113 60.2978 203.941 60.1851C205.488 68.3691 209.706 76.0288 215.714 81.7982L215.805 81.7937C216.139 87.2946 216.156 92.7996 215.601 98.283C215.059 103.667 213.915 109.063 212.064 114.166C209.81 120.382 206.502 126.151 201.933 130.915C194.733 138.423 184.915 142.897 174.689 145.116C172.899 145.506 171.096 145.823 169.292 146.078C162.144 147.088 154.836 147.145 147.675 146.183L147.676 146.182ZM132.864 69.5948C129.5 70.0716 126.236 71.3851 123.432 73.3966C122.651 73.9559 122.474 75.0396 123.033 75.8153C123.371 76.288 123.904 76.5394 124.442 76.5394C124.793 76.5394 125.144 76.4352 125.452 76.2144C127.805 74.5282 130.536 73.4271 133.35 73.0284C134.299 72.8942 134.958 72.0184 134.823 71.069C134.689 70.124 133.813 69.4606 132.864 69.5952V69.5948ZM207.76 111.759C207.973 108.005 206.408 104.035 203.261 101.976C200.118 99.9167 195.406 100.281 193.061 103.216C190.222 106.766 188.566 109.579 187.851 112.752C187.136 115.921 187.292 119.406 188.926 122.219C190.56 125.032 193.859 126.979 197.067 126.437C199.68 125.99 201.796 124.061 203.447 121.985C205.784 119.042 207.552 115.513 207.76 111.759ZM184.235 83.8C184.235 80.9867 181.955 78.7067 179.142 78.7067C176.329 78.7067 174.049 80.9867 174.049 83.8C174.049 86.6133 176.329 88.8933 179.142 88.8933C181.955 88.8933 184.235 86.6133 184.235 83.8ZM180.495 111.339C181.804 107.875 180.906 103.424 177.768 101.456C175.119 99.791 171.682 100.22 168.674 101.07C165.847 101.872 163.021 102.994 160.1 103.298C157.039 103.614 153.918 103.371 150.879 103.246C147.754 103.116 144.312 103.497 142.123 105.73C139.531 108.374 139.687 112.917 141.763 115.981C143.84 119.046 147.39 120.819 150.979 121.729C153.398 122.34 155.895 122.618 158.387 122.561C163.372 122.44 168.427 121.404 172.87 119.072C176.147 117.355 179.19 114.806 180.495 111.339ZM135.079 135.475C138.04 134.131 139.678 130.663 139.457 127.421C139.232 124.174 137.411 121.205 135.04 118.976C132.669 116.748 129.722 115.348 125.382 114C121.793 112.882 117.688 115.223 116.236 118.69C114.788 122.158 115.716 126.324 117.992 129.315C120.267 132.306 123.713 134.235 127.298 135.362C129.83 136.16 132.661 136.571 135.079 135.475ZM139.189 90.0376C139.189 87.2243 136.904 84.9443 134.095 84.9443C131.286 84.9443 129.002 87.2243 129.002 90.0376C129.002 92.8509 131.282 95.1309 134.095 95.1309C136.909 95.1309 139.189 92.8509 139.189 90.0376Z" fill="#FFC3A8"/>
<path d="M147.607 148.466C147.563 149.901 147.52 151.336 147.473 152.775C147.438 153.924 147.403 155.072 147.368 156.221C147.364 156.295 147.364 156.368 147.364 156.442C143.281 156.988 138.959 155.857 135.751 153.252C133.038 156.719 128.889 159.095 124.498 159.585C120.107 160.075 115.538 158.674 112.179 155.805C108.837 162.112 99.6425 164.201 92.824 161.206C86.0056 158.211 81.5408 151.306 79.6549 144.097C77.7736 136.893 78.1031 129.315 78.4716 121.877C78.7925 115.466 80.2488 108.231 79.5032 101.725C80.1793 106.02 81.1503 110.268 82.4292 114.452C82.984 116.276 83.5995 118.093 84.2756 119.892C86.148 124.886 88.5626 129.784 92.2863 133.668C92.7586 134.162 93.2658 134.647 93.8902 134.929C94.4581 135.189 95.1557 135.25 95.7151 134.977C95.9795 135.28 96.2439 135.579 96.5127 135.874C98.8708 138.479 101.667 141.028 105.143 141.566C110.02 142.32 115.066 138.116 115.2 133.183L115.205 133.178C116.093 133.85 116.999 134.496 117.918 135.116C120.368 136.763 122.925 138.25 125.573 139.554C132.514 142.97 140.008 145.159 147.677 146.182C147.655 146.945 147.629 147.704 147.608 148.467L147.607 148.466Z" fill="#D18915"/>
<path d="M30.6066 129.441C31.8245 130.308 32.8175 131.482 33.771 132.644C33.8316 132.718 33.8881 132.787 33.9402 132.857C34.4344 134.825 35.6263 136.593 37.0089 138.288H37.0045C37.7285 141.071 36.363 142.462 35.2578 142.913C34.0614 143.398 32.7089 143.299 31.482 142.831C30.9878 142.644 30.511 142.393 30.0774 142.098C28.5951 141.097 24.0087 135.869 23.0723 133.927C23.0548 133.893 23.0377 133.858 23.0247 133.827C22.4397 132.076 23.0767 129.705 24.6241 128.752C26.1715 127.798 28.2307 128.054 29.8216 128.938C30.0945 129.09 30.3552 129.259 30.6066 129.441Z" fill="#FFC3A8"/>
<path d="M35.748 127.417C34.2091 127.976 33.5936 129.874 33.7193 131.504C33.7539 131.964 33.8276 132.415 33.9406 132.857C33.8885 132.788 33.8324 132.718 33.7714 132.644C32.8179 131.483 31.825 130.308 30.6071 129.441C35.7524 123.489 42.3675 116.03 46.923 111.044L47.1529 110.975L52.1119 115.839C52.1034 115.891 52.0944 115.917 52.0944 115.917C48.1499 120.217 44.2529 124.716 40.356 129.272C40.2217 129.134 40.0871 128.999 39.9484 128.869C38.8082 127.803 37.2132 126.888 35.748 127.417V127.417Z" fill="#0096FF"/>
<path d="M437.2 278.319H427.343V304.254H437.2V278.319Z" fill="#0096FF"/>
<path d="M573.46 278.319H559.874V304.254H573.46V278.319Z" fill="#016BA6"/>
<path d="M573.46 278.319H559.874H437.2H427.343V266.667H455.103H492.421H584.812V278.319H573.46Z" fill="#0096FF"/>
<path d="M278.439 278.319H264.854V304.254H278.439V278.319Z" fill="#016BA6"/>
<path d="M370.995 260.78V266.667H344.024C344.597 266.533 345.156 266.346 345.663 266.051C346.573 265.523 347.31 264.565 347.262 263.516C347.197 261.92 345.498 260.937 343.964 260.494C341.146 259.684 338.107 259.641 335.22 260.3C332.572 260.252 329.962 259.03 327.487 256.359C333.846 254.07 340.999 254.057 347.367 256.311C348.775 256.81 350.167 257.421 351.649 257.612C353.131 257.803 354.77 257.499 355.793 256.411C356.417 255.748 356.699 254.755 356.591 253.88H356.608C361.741 254.959 366.656 257.17 370.995 260.694V260.78Z" fill="#B6C6CE"/>
<path d="M408.751 266.667H427.343V278.319H264.854V304.254H253.501V270.789C253.904 270.75 254.307 270.707 254.706 270.668C262.729 269.862 270.749 269.06 278.768 268.254C285.457 267.582 292.184 267.122 298.886 266.299C299.887 266.177 300.884 266.043 301.885 265.904C303.81 265.631 305.735 265.341 307.651 265.037C310.013 264.851 312.375 264.669 314.257 264.422C319.159 268.865 326.446 270.508 331.605 268.735C335.285 268.132 338.969 267.53 342.654 266.927C343.109 266.854 343.573 266.775 344.024 266.667H408.751L408.751 266.667Z" fill="#0096FF"/>
<path d="M40.3556 129.272C42.8699 131.812 44.4519 135.18 46.9186 137.79C48.0889 139.034 48.7654 141.362 49.2462 142.961C49.8316 144.899 50.1566 146.914 50.2302 148.934C50.3038 150.933 50.135 152.94 49.7144 154.895C49.2377 157.14 49.6583 159.299 50.8327 161.267C52.1417 163.465 53.6545 165.571 55.0982 167.695C48.4225 172.81 41.7513 177.925 35.0801 183.036C33.8923 180.708 32.7004 178.385 31.5082 176.057C30.4461 173.976 29.4966 171.471 27.4465 170.136C26.7834 169.706 26.0203 169.399 25.3483 168.978C23.9526 168.107 22.6562 167.08 21.4859 165.931C20.3111 164.782 19.2621 163.508 18.3606 162.134C17.901 161.427 17.4763 160.699 17.0992 159.945C16.9519 159.65 16.4317 157.955 16.1888 157.873C12.0535 156.434 7.83152 154.843 3.60916 153.252C2.19155 152.714 0.609559 152.016 0.128343 150.582C-0.478569 148.791 1.15139 146.862 2.99779 146.468C4.84456 146.073 6.73893 146.776 8.45963 147.564C10.0766 148.31 11.7151 149.16 13.4838 149.294C14.1513 150.356 14.9401 151.331 15.6771 152.151C17.3502 154.01 19.5785 155.74 22.0709 155.532C23.5276 155.406 24.9017 154.578 25.6904 153.356C26.423 152.225 26.6354 150.785 26.2843 149.489C26.8823 149.667 27.4851 149.771 28.0831 149.784C29.5524 149.403 30.8228 148.328 31.4468 146.941C32.0277 145.658 32.0362 144.128 31.4814 142.832C32.7082 143.3 34.0608 143.399 35.2571 142.914C36.3623 142.463 37.7279 141.071 37.0038 138.289H37.0083C35.6256 136.594 34.4334 134.825 33.9395 132.857C33.8268 132.415 33.7532 131.964 33.7183 131.505C33.5926 129.875 34.208 127.976 35.7469 127.417C37.2121 126.888 38.8071 127.803 39.9473 128.869C40.086 128.999 40.2203 129.134 40.3549 129.272L40.3556 129.272Z" fill="#FFC3A8"/>
<path d="M225.325 256.194C225.182 256.337 225.039 256.476 224.896 256.615C222.048 259.289 218.537 261.114 214.779 262.245C213.643 255.145 212.551 248.04 211.489 240.931C216.023 246.202 220.683 251.322 225.325 256.194Z" fill="#0096FF"/>
<path d="M189.468 164.921C197.036 165.198 204.583 166.07 212.009 167.526C216.421 168.388 220.999 169.563 224.306 172.602C228.997 176.91 230.609 184.462 230.609 190.565L231.55 203.474C225.312 195.355 218.935 187.34 212.433 179.425C210.379 177.613 208.233 175.896 206.014 174.288C203.799 172.688 201.505 171.193 199.147 169.81C197.413 168.792 195.645 167.838 193.846 166.945C193.2 166.624 192.554 166.312 191.899 166.008C191.093 165.636 190.282 165.272 189.467 164.92L189.468 164.921Z" fill="#0096FF"/>
<path d="M129.691 164.869C130.441 164.544 131.199 164.227 131.958 163.915C134.975 162.68 138.04 161.57 141.144 160.586C142.7 160.097 144.26 159.637 145.834 159.208C146.51 159.021 146.917 158.891 147.212 158.206C147.451 157.656 147.373 157.031 147.364 156.442C147.364 156.368 147.364 156.295 147.368 156.221C147.403 155.072 147.438 153.924 147.473 152.775C147.52 151.336 147.564 149.901 147.607 148.466C156.168 153.789 165.856 157.275 175.844 158.649C175.865 158.792 175.883 158.939 175.904 159.082C175.982 159.624 176.147 160.262 176.663 160.435C179.216 161.293 181.8 162.021 184.335 162.923C186.07 163.535 187.782 164.202 189.468 164.922C190.283 165.273 191.093 165.637 191.9 166.01C192.554 166.313 193.2 166.625 193.846 166.946C184.201 174.198 172.181 178.251 160.108 178.286C147.785 178.325 135.491 174.164 125.703 166.682C127.021 166.053 128.352 165.451 129.691 164.87L129.691 164.869Z" fill="#FFC3A8"/>
<path d="M302.389 240.121C299.843 240.008 297.296 239.896 294.75 239.783C293.696 248.881 292.643 257.979 291.59 267.077C294.023 266.847 296.457 266.597 298.886 266.298C300.364 257.616 301.535 248.881 302.389 240.121Z" fill="#0A81D1"/>
<path d="M160.685 184.404C175.013 184.048 189.186 179.21 200.782 170.796C200.241 170.462 199.696 170.133 199.147 169.811C197.413 168.792 195.645 167.838 193.846 166.945C184.201 174.198 172.181 178.251 160.108 178.285C147.784 178.324 135.491 174.163 125.703 166.681C123.878 167.548 122.075 168.462 120.298 169.425C119.445 170.048 118.597 170.672 117.746 171.296C130.165 180.1 145.464 184.781 160.685 184.404Z" fill="#0A81D1"/>
<path d="M55.6444 168.51C55.4622 168.237 55.2804 167.969 55.0981 167.696C48.4225 172.81 41.7513 177.926 35.0801 183.036C35.1842 183.231 35.2839 183.431 35.3835 183.626C36.208 185.235 37.0399 186.839 37.8662 188.447C44.6441 183.106 51.5292 177.901 58.5135 172.833C57.557 171.392 56.6005 169.952 55.6441 168.511L55.6444 168.51Z" fill="#0A81D1"/>
<path d="M177.768 101.456C177.311 101.168 176.829 100.948 176.332 100.776C173.945 99.9557 171.163 100.367 168.674 101.07C165.847 101.872 163.021 102.994 160.099 103.298C157.039 103.614 153.918 103.371 150.879 103.246C148.443 103.144 145.817 103.358 143.739 104.514C143.152 104.84 142.606 105.238 142.123 105.73C139.531 108.374 139.687 112.917 141.764 115.981C143.016 117.83 144.807 119.206 146.818 120.209C148.14 120.868 149.556 121.368 150.979 121.729C153.398 122.34 155.895 122.618 158.388 122.561C163.373 122.44 168.427 121.404 172.87 119.072C173.935 118.514 174.974 117.867 175.938 117.13C177.94 115.6 179.614 113.68 180.495 111.339C181.804 107.876 180.907 103.424 177.768 101.456L177.768 101.456Z" fill="#E1EAEF"/>
<path d="M117.746 171.296C104.801 180.789 92.0718 190.371 79.3687 199.959C78.7357 200.436 78.1072 200.912 77.4788 201.389C73.4085 195.26 69.3382 189.131 65.2676 183.006C63.0162 179.614 60.7652 176.223 58.5139 172.832C51.5295 177.9 44.6445 183.105 37.8666 188.446C39.6386 191.894 41.408 195.343 43.1908 198.784C47.2871 206.687 51.4184 214.571 55.6143 222.417C57.7125 230.203 64.0066 236.722 71.7138 239.093C74.2757 239.882 76.9633 240.203 79.6465 240.082C85.0477 239.839 90.4314 237.815 94.7401 234.195C101.983 229.974 109.063 225.479 115.963 220.717C122.288 207.218 128.612 193.719 134.937 180.22C128.838 178.039 123.031 175.042 117.747 171.296L117.746 171.296Z" fill="#D81259"/>
<path d="M294.742 239.783C288.435 239.505 260.224 239.189 258.837 238.964L258.842 238.846C257.875 238.786 257.03 238.461 256.536 237.589C255.079 235.036 253.133 232.665 251.421 230.272C249.648 227.788 247.862 225.313 246.063 222.851C242.465 217.918 238.824 213.019 235.131 208.16C233.943 206.596 232.751 205.031 231.55 203.475C225.313 195.356 218.936 187.341 212.434 179.425C210.379 177.614 208.234 175.897 206.014 174.289C204.315 173.061 202.568 171.897 200.783 170.796C197.25 173.359 193.476 175.589 189.533 177.463C195.256 185.253 200.978 193.044 206.701 200.834L212.365 241.943C216.623 246.857 220.981 251.635 225.325 256.194C227.597 258.583 229.864 260.911 232.109 263.169C234.294 265.371 237.294 267.031 240.107 268.262C241.29 268.774 242.539 268.96 243.692 269.498C245.226 270.213 246.692 270.729 248.391 270.889C250.09 271.054 251.802 270.946 253.502 270.79C253.905 270.751 254.308 270.707 254.707 270.668C262.73 269.862 270.75 269.06 278.769 268.254C283.033 267.826 287.312 267.483 291.59 267.078C292.644 257.98 293.697 248.882 294.75 239.784C294.748 239.784 294.745 239.784 294.742 239.784L294.742 239.783Z" fill="#D81259"/>
<path d="M115.963 220.717C116.001 220.692 116.038 220.666 116.076 220.641L118.646 263.945L121.035 304.254H137.703L120.608 210.803C119.06 214.108 117.511 217.413 115.963 220.717Z" fill="#FFE8E8"/>
<path d="M214.778 262.245C213.643 255.145 212.551 248.04 211.488 240.931C211.78 241.27 212.072 241.605 212.365 241.943L206.7 200.834C200.978 193.044 195.255 185.253 189.533 177.463C180.534 181.739 170.648 184.156 160.686 184.403C151.941 184.62 143.172 183.164 134.937 180.219C130.161 190.414 125.384 200.608 120.608 210.803L137.703 304.253H221.914C219.391 290.274 217.015 276.273 214.778 262.245Z" fill="#E1EAEF"/>
<path d="M527.299 111.703H401.109C400.311 111.703 399.418 111.521 398.651 111.699C397.043 112.071 395.595 113.129 394.702 114.507C394.056 115.509 393.978 116.675 393.779 117.832C393.176 121.256 392.578 124.677 391.975 128.101C391.243 132.28 390.51 136.459 389.778 140.637C388.98 145.198 388.178 149.758 387.38 154.318C386.579 158.887 385.776 163.455 384.979 168.024C384.242 172.229 383.505 176.434 382.768 180.639C382.161 184.102 381.55 187.566 380.943 191.033C380.531 193.383 380.119 195.737 379.708 198.09C379.565 198.909 379.422 199.729 379.279 200.548H514.12L529.611 112.377C528.96 111.938 528.173 111.703 527.299 111.703V111.703ZM524.017 120.594C523.675 122.553 523.332 124.512 522.99 126.472C522.162 131.17 521.338 135.874 520.515 140.577C519.591 145.84 518.668 151.106 517.745 156.369C516.826 161.618 515.907 166.868 514.988 172.117C514.169 176.772 513.354 181.428 512.539 186.084C511.98 189.27 511.425 192.451 510.861 195.642H387.047C387.129 195.182 387.207 194.723 387.29 194.259C387.711 191.871 388.126 189.482 388.547 187.089C389.076 184.081 389.6 181.073 390.129 178.064C390.732 174.631 391.335 171.198 391.937 167.761C392.579 164.098 393.22 160.43 393.862 156.763C394.512 153.061 395.162 149.36 395.812 145.657C396.432 142.112 397.052 138.566 397.676 135.02C398.235 131.825 398.794 128.63 399.354 125.436C399.583 124.14 399.809 122.839 400.039 121.543C400.233 120.425 400.117 118.899 401.144 118.162C401.816 117.681 402.552 117.798 403.337 117.798H520.385C521.373 117.798 522.557 117.607 523.476 118.071C524.52 118.6 524.182 119.657 524.017 120.594Z" fill="#112A35"/>
<path d="M531.174 114.468C530.855 113.556 530.312 112.849 529.611 112.377L514.12 200.548H516.912C516.925 200.47 516.938 200.397 516.951 200.319C517.138 199.278 517.32 198.238 517.502 197.198C518.082 193.873 518.667 190.548 519.248 187.224C520.042 182.694 520.835 178.164 521.632 173.634C522.538 168.463 523.444 163.287 524.351 158.116C525.269 152.866 526.193 147.617 527.112 142.368C527.949 137.604 528.781 132.844 529.617 128.08C529.973 126.056 530.324 124.036 530.679 122.016C531.113 119.537 532.032 116.936 531.173 114.469L531.174 114.468Z" fill="#112A35"/>
<path d="M153.015 95.9442C152.863 95.9442 152.71 95.8999 152.575 95.8073C152.219 95.5638 152.128 95.0777 152.372 94.7218C153.455 93.1409 155.254 92.0342 157.307 91.6854C159.36 91.3362 161.424 91.7873 162.969 92.9219C163.317 93.1774 163.391 93.666 163.136 94.0138C162.88 94.3618 162.392 94.4362 162.044 94.1811C160.838 93.2953 159.207 92.9483 157.568 93.225C155.93 93.5035 154.506 94.3708 153.66 95.605C153.509 95.8259 153.264 95.9446 153.015 95.9446V95.9442Z" fill="#FF8570"/>
<path d="M38.4568 154.283C38.1485 154.283 37.8566 154.1 37.7331 153.796C35.9741 149.471 35.9254 144.535 37.584 140.176C35.5111 137.795 33.7737 135.57 33.147 132.901C33.0485 132.481 33.3092 132.061 33.729 131.962C34.1508 131.864 34.5691 132.124 34.6677 132.544C35.2433 134.997 37.0031 137.148 39.0722 139.505C39.2682 139.729 39.3207 140.043 39.2076 140.318C37.523 144.41 37.5129 149.109 39.1797 153.208C39.3422 153.607 39.15 154.063 38.7506 154.226C38.6543 154.265 38.5546 154.284 38.4568 154.284V154.283Z" fill="#FF8570"/>
<path d="M33.5435 144.018C32.2452 144.018 30.8793 143.585 29.6413 142.747C27.9972 141.634 23.191 136.131 22.3111 134.143C22.1363 133.749 22.3148 133.287 22.709 133.113C23.1032 132.938 23.5647 133.116 23.7392 133.511C24.49 135.208 29.1248 140.511 30.5163 141.454C31.9671 142.435 33.6718 142.716 34.9641 142.189C35.4404 141.994 36.9417 141.151 36.2504 138.483C36.1422 138.065 36.3928 137.639 36.8104 137.531C37.2284 137.424 37.6543 137.674 37.7625 138.091C38.565 141.189 37.0749 143.013 35.555 143.634C34.9254 143.892 34.2441 144.018 33.5435 144.018V144.018Z" fill="#FF8570"/>
<path d="M28.082 150.563C28.0761 150.563 28.0701 150.563 28.0642 150.563C25.9712 150.515 23.6518 149.49 21.7013 147.75C19.9489 146.186 18.6507 144.248 17.3952 142.375C16.8344 141.537 16.1992 140.589 15.9969 139.444C15.9222 139.019 16.2056 138.614 16.6303 138.539C17.0546 138.465 17.4599 138.748 17.5351 139.173C17.6801 139.993 18.1948 140.762 18.6927 141.505C19.8939 143.298 21.136 145.152 22.7407 146.584C24.3829 148.049 26.2892 148.924 27.9894 148.998C29.1813 148.654 30.227 147.752 30.7361 146.622C31.2601 145.459 31.2259 144.03 30.6473 142.894C30.4513 142.509 30.6045 142.039 30.989 141.843C31.3732 141.647 31.8432 141.8 32.0392 142.185C32.8395 143.757 32.8849 145.656 32.1601 147.263C31.436 148.872 29.9846 150.096 28.2773 150.538C28.2133 150.555 28.1475 150.564 28.0813 150.564L28.082 150.563Z" fill="#FF8570"/>
<path d="M21.6536 156.329C19.4822 156.329 17.2795 155.1 15.0981 152.672C14.0631 151.52 13.219 150.394 12.589 149.325C12.3699 148.953 12.4938 148.475 12.8653 148.256C13.2372 148.036 13.7158 148.161 13.9348 148.532C14.512 149.511 15.2944 150.553 16.2602 151.628C18.2598 153.854 20.1925 154.905 22.008 154.751C23.2181 154.649 24.3788 153.952 25.037 152.932C25.6952 151.911 25.8526 150.566 25.4468 149.422C25.3029 149.016 25.5156 148.569 25.9221 148.426C26.3282 148.281 26.7748 148.495 26.9191 148.901C27.4825 150.491 27.2642 152.36 26.3494 153.779C25.4346 155.197 23.8213 156.166 22.1397 156.308C21.9779 156.322 21.8154 156.329 21.6536 156.329Z" fill="#FF8570"/>
<path d="M371.579 260.695H370.408V267.018H371.579V260.695Z" fill="#ADADAD"/>
<path d="M427.927 267.134H426.755V304.05H427.927V267.134Z" fill="#00BFFB"/>
<path d="M352.558 251.419C352.439 251.419 352.318 251.391 352.205 251.334C346.027 248.2 339.098 246.494 332.171 246.402C331.739 246.397 331.395 246.042 331.4 245.611C331.406 245.179 331.746 244.827 332.191 244.84C339.357 244.936 346.521 246.7 352.911 249.941C353.296 250.136 353.45 250.606 353.254 250.991C353.117 251.262 352.842 251.419 352.558 251.419Z" fill="#FF8570"/>
<path d="M492.514 211.693H376.342V212.083H492.514V211.693Z" fill="#E1EAEF"/>
<path d="M487.137 216.246H370.855V216.636H487.137V216.246Z" fill="#E1EAEF"/>
<path d="M481.838 220.798H365.303V221.189H481.838V220.798Z" fill="#E1EAEF"/>
<path d="M476.144 225.351H359.92V225.741H476.144V225.351Z" fill="#E1EAEF"/>
<path d="M389.136 207.182L361.732 230.316L361.984 230.614L389.387 207.48L389.136 207.182Z" fill="#E1EAEF"/>
<path d="M396.382 207.182L368.977 230.314L369.228 230.612L396.634 207.48L396.382 207.182Z" fill="#E1EAEF"/>
<path d="M403.627 207.183L376.225 230.319L376.476 230.617L403.878 207.481L403.627 207.183Z" fill="#E1EAEF"/>
<path d="M410.873 207.183L383.471 230.319L383.723 230.617L411.125 207.481L410.873 207.183Z" fill="#E1EAEF"/>
<path d="M418.12 207.182L390.715 230.314L390.967 230.612L418.372 207.48L418.12 207.182Z" fill="#E1EAEF"/>
<path d="M425.366 207.182L397.962 230.316L398.214 230.614L425.617 207.48L425.366 207.182Z" fill="#E1EAEF"/>
<path d="M432.612 207.182L405.208 230.316L405.46 230.614L432.864 207.48L432.612 207.182Z" fill="#E1EAEF"/>
<path d="M439.858 207.182L412.453 230.314L412.705 230.612L440.11 207.48L439.858 207.182Z" fill="#E1EAEF"/>
<path d="M447.103 207.183L419.701 230.319L419.953 230.617L447.355 207.481L447.103 207.183Z" fill="#E1EAEF"/>
<path d="M454.35 207.182L426.946 230.316L427.198 230.615L454.602 207.48L454.35 207.182Z" fill="#E1EAEF"/>
<path d="M461.597 207.182L434.192 230.314L434.443 230.612L461.848 207.48L461.597 207.182Z" fill="#E1EAEF"/>
<path d="M468.843 207.182L441.439 230.316L441.691 230.614L469.094 207.48L468.843 207.182Z" fill="#E1EAEF"/>
<path d="M476.089 207.182L448.685 230.316L448.937 230.614L476.34 207.48L476.089 207.182Z" fill="#E1EAEF"/>
<path d="M483.335 207.182L455.93 230.314L456.181 230.612L483.586 207.48L483.335 207.182Z" fill="#E1EAEF"/>
<path d="M490.581 207.182L463.176 230.314L463.428 230.612L490.833 207.48L490.581 207.182Z" fill="#E1EAEF"/>
</g>
<defs>
<clipPath id="clip0_108_1311">
<rect width="653" height="304.738" fill="white"/>
</clipPath>
</defs>
</svg>
