<?xml version="1.0" encoding="UTF-8"?>
<svg id="b" data-name="Layer 2" xmlns="http://www.w3.org/2000/svg" width="640.717" height="124.095" viewBox="0 0 640.717 124.095">
  <g id="c" data-name="Layer 1">
    <g id="d" data-name="c">
      <g>
        <path d="m640.7,62.222c.004-.025.007-.051.009-.076.002-.022.005-.044.005-.066,0-.01.003-.021.003-.031h0v-.003c0-.01-.002-.02-.003-.03,0-.023-.003-.045-.005-.067-.002-.025-.005-.05-.009-.076-.002-.011-.002-.021-.004-.032,0-.003,0-.005-.001-.008h0c-.002-.009-.005-.016-.007-.024-.005-.02-.011-.038-.017-.058-.008-.026-.015-.052-.025-.078-.003-.009-.005-.018-.009-.027-.001-.003-.002-.006-.003-.009-.004-.008-.009-.016-.012-.024-.009-.019-.02-.037-.03-.056-.009-.016-.014-.034-.023-.05-.005-.007-.01-.013-.015-.02-.004-.006-.007-.013-.011-.019-.007-.011-.015-.021-.022-.032-.014-.019-.03-.036-.045-.054-.016-.02-.031-.041-.049-.059-.005-.005-.009-.01-.014-.015,0,0,0-.001-.002-.002,0,0-.002-.002-.003-.003-.007-.007-.015-.014-.022-.021-.017-.016-.037-.03-.056-.046-.018-.015-.036-.032-.055-.046-.006-.005-.012-.009-.019-.014-.003-.002-.006-.004-.008-.006-.003-.002-.006-.005-.009-.008-.006-.004-.013-.006-.019-.01-.005-.003-.009-.008-.015-.011-7.026-4.199-6.706-13.567-6.336-24.413.449-13.139.957-28.032-12.423-36.565-.49-.312-1.142-.168-1.455.322-.312.49-.168,1.143.322,1.455,12.366,7.886,11.88,22.14,11.45,34.716-.293,8.594-.573,16.817,3.142,22.319-5.713-4.019-5.218-12.384-4.661-21.793.72-12.157,1.536-25.936-10.873-33.85-.238-.151-.52-.201-.795-.14-.275.061-.509.225-.661.462-.151.238-.201.52-.141.795.061.275.225.51.462.661,11.365,7.248,10.588,20.37,9.902,31.948-.357,6.031-.695,11.728.612,16.39.775,2.766,2.105,4.946,4.015,6.569-1.627-.57-2.928-1.389-3.913-2.472-3.567-3.922-2.875-11.206-2.143-18.919,1.096-11.544,2.339-24.628-9.415-32.123-.49-.313-1.142-.169-1.455.322-.151.238-.201.52-.141.795.061.275.225.509.462.661,10.668,6.803,9.49,19.205,8.45,30.148-.778,8.189-1.512,15.924,2.682,20.536,1.249,1.373,2.868,2.396,4.881,3.082-2.014.686-3.633,1.709-4.881,3.082-4.194,4.611-3.46,12.346-2.682,20.536,1.039,10.942,2.217,23.344-8.45,30.148-.237.151-.402.386-.462.661-.061.275-.011.557.141.795.195.305.527.487.889.487.201,0,.396-.057.566-.165,11.755-7.496,10.512-20.58,9.416-32.125-.732-7.712-1.424-14.996,2.143-18.917.985-1.083,2.285-1.903,3.913-2.472-1.91,1.622-3.239,3.802-4.015,6.569-1.307,4.662-.969,10.359-.612,16.39.686,11.577,1.463,24.7-9.902,31.948-.49.313-.634.965-.322,1.455.195.305.527.487.889.487.201,0,.396-.057.566-.165,12.41-7.914,11.594-21.693,10.874-33.85-.557-9.409-1.052-17.774,4.661-21.793-3.715,5.502-3.436,13.725-3.142,22.319.43,12.576.917,26.829-11.45,34.716-.238.151-.402.386-.462.661-.061.275-.011.557.141.795.195.305.527.487.889.487.201,0,.396-.057.566-.165,13.381-8.533,12.872-23.425,12.423-36.565-.371-10.846-.691-20.213,6.336-24.413.009-.005.016-.012.024-.018.009-.006.019-.01.028-.016.008-.005.015-.012.023-.017.013-.009.025-.019.038-.029.01-.008.019-.016.029-.025.001-.001.002-.002.004-.003.012-.011.025-.021.037-.032.006-.006.012-.011.018-.017.003-.003.005-.005.008-.008.007-.007.014-.016.021-.024.002-.002.004-.004.006-.007.009-.009.017-.018.025-.028.013-.016.027-.031.039-.048.007-.01.014-.02.021-.03.005-.007.011-.014.016-.022.003-.005.006-.01.009-.015.001-.002.003-.005.005-.007.002-.004.005-.007.007-.01.002-.003.004-.006.006-.009.009-.014.013-.03.021-.045.001-.002.002-.004.003-.007.01-.02.022-.039.031-.059.004-.01.009-.019.014-.029,0-.002.002-.003.002-.005.004-.009.006-.019.01-.029.009-.023.015-.047.022-.071.005-.018.012-.036.016-.055.002-.009.006-.017.008-.025v-.002s0-.005.001-.008c.002-.01.002-.021.004-.031h0Z" fill="#fff" stroke-width="0"/>
        <g>
          <path d="m0,91.866h15.012l-6.314-58.141h10.723l6.314,58.141h7.029c13.939,0,21.088-10.484,21.088-21.922v-36.219h10.723v37.887c0,18.705-13.225,30.977-31.811,30.977H0v-10.723Z" fill="#fff" stroke-width="0"/>
          <path d="m87.927,44.448h-5.838v-10.723h8.697c7.029,0,11.08,3.812,11.914,10.127l7.625,58.736h-10.723l-1.787-13.939-21.564,15.131-2.74-11.199,22.756-15.846-3.574-27.641c-.357-2.979-1.668-4.646-4.766-4.646Z" fill="#fff" stroke-width="0"/>
          <path d="m135.108,44.448h-23.113v-10.723h23.232c18.705,0,30.738,9.889,30.738,28.951v39.912h-10.723v-39.793c0-11.676-6.553-18.348-20.135-18.348Z" fill="#fff" stroke-width="0"/>
          <path d="m219.937,54.217v-9.77h-46.941v-27.164h10.723v16.441h46.941v17.037c0,30.857-15.965,46.584-34.432,53.494l-2.502-10.008c14.416-6.553,26.211-19.301,26.211-40.031Z" fill="#fff" stroke-width="0"/>
          <path d="m264.617,33.725h28.355c18.943,0,31.215,11.08,31.215,29.785v39.078h-59.57V33.725Zm48.848,58.141v-27.641c0-11.199-6.314-19.777-20.611-19.777h-17.514v47.418h38.125Z" fill="#fff" stroke-width="0"/>
          <path d="m342.655,44.448h-8.936v-10.723h12.986c5.838,0,9.77,3.932,9.77,9.77v33.002h-10.723v-28.951c0-1.787-1.311-3.098-3.098-3.098Z" fill="#fff" stroke-width="0"/>
          <path d="m401.511,44.21h-39.912v-10.484h61.715v10.484h-11.08v58.379h-10.723v-58.379Z" fill="#fff" stroke-width="0"/>
          <path d="m437.851,49.452v-3.455c0-.715-.477-1.072-1.311-1.072h-6.076v-11.199h9.293c3.812,0,4.885,1.787,4.885,5.004v2.383h.119c3.574-4.289,10.604-9.293,22.994-9.293,19.062,0,30.619,12.51,30.619,31.691v39.078h-35.027v-10.723h24.305v-28.117c0-11.557-6.791-21.207-20.611-21.207s-20.611,9.65-20.611,21.445v38.602h-10.723v-38.006c0-6.672.596-11.438,2.145-15.131Z" fill="#fff" stroke-width="0"/>
          <path d="m514.698,44.448h-6.791v-10.723h10.842c5.838,0,9.77,3.932,9.77,9.77v59.094h-10.723v-55.043c0-1.787-1.311-3.098-3.098-3.098Z" fill="#fff" stroke-width="0"/>
          <path d="m583.085,54.217v-9.77h-46.941v-27.164h10.723v16.441h46.941v17.037c0,30.857-15.965,46.584-34.432,53.494l-2.502-10.008c14.416-6.553,26.211-19.301,26.211-40.031Z" fill="#fff" stroke-width="0"/>
        </g>
      </g>
    </g>
  </g>
</svg>