<?xml version="1.0" encoding="UTF-8"?>
<svg id="b" data-name="Layer 2" xmlns="http://www.w3.org/2000/svg" width="90" viewBox="0 0 873.955 550.102">
  <g id="c" data-name="Layer 1">
    <g>
      <path d="m67.035,116.981H0v158.069h133.518v-93.241c0-41.38-25.104-64.828-66.483-64.828Zm49.655,141.242H16.828v-124.415h49.38c33.931,0,50.483,19.587,50.483,49.655v74.76Z" fill="#fff" stroke-width="0"/>
      <path d="m193.932,116.981h-35.862v16.827h29.518c3.862,0,6.345,2.483,6.345,6.345v72.553h16.828v-78.897c0-10.207-6.621-16.827-16.828-16.827Z" fill="#fff" stroke-width="0"/>
      <polygon points="319.451 275.05 336.278 275.05 336.278 133.256 361.934 133.256 361.934 116.981 222.898 116.981 222.898 133.256 319.451 133.256 319.451 275.05" fill="#fff" stroke-width="0"/>
      <path d="m390.624,182.912v92.139h16.828v-91.311c0-33.38,22.068-54.345,52.965-54.345,31.173,0,53.242,20.965,53.242,54.068v74.76h-62.069v16.827h78.896v-93.241c0-41.656-27.31-69.242-68.966-69.242-24.275,0-40,8.827-48.827,18.482h-.276v-3.586c0-6.896-2.758-10.482-10.482-10.482h-20.966v17.379h15.724c2.483,0,3.862,1.104,3.862,3.311v6.621c-6.345,9.655-9.931,22.62-9.931,38.62Z" fill="#fff" stroke-width="0"/>
      <path d="m582.072,140.153v134.897h16.827v-141.242c0-10.207-6.62-16.827-16.827-16.827h-27.035v16.827h20.69c3.861,0,6.345,2.483,6.345,6.345Z" fill="#fff" stroke-width="0"/>
      <path d="m730.763,159.74c0,51.862-23.448,83.035-62.621,102.069l3.862,16c46.068-20.138,75.586-56.276,75.586-122.483v-38.345h-113.38v-40.828h-16.827v57.655h113.38v25.932Z" fill="#fff" stroke-width="0"/>
      <path d="m356.141,414.333c0,30.345-17.655,52.138-51.311,52.138h-24.828l-15.172-141.242h-16.828l15.172,141.242h-35.586v16.828h78.069c41.104,0,67.311-25.104,67.311-66.207v-91.863h-16.828v89.104Z" fill="#fff" stroke-width="0"/>
      <path d="m441.658,325.228h-25.104v16.828h20.689c5.242,0,8.001,3.034,8.553,8l9.379,76.966-58.482,40.552,3.862,17.932,56.828-39.725,4.414,37.518h16.827l-16.827-141.242c-1.655-10.759-8.552-16.828-20.139-16.828Z" fill="#fff" stroke-width="0"/>
      <path d="m540.142,325.228h-56.828v16.828h55.725c33.104,0,50.207,17.104,50.207,47.725v93.518h16.827v-94.346c0-41.655-24.827-63.725-65.931-63.725Z" fill="#fff" stroke-width="0"/>
      <path d="m641.107,284.401h-16.827v57.655h113.38v25.932c0,51.862-23.448,83.034-62.621,102.069l3.862,16c46.068-20.139,75.586-56.276,75.586-122.483v-38.346h-113.38v-40.827Z" fill="#fff" stroke-width="0"/>
      <path d="m873.88,275.826c.019-.113.029-.226.039-.339.009-.098.02-.195.024-.294.001-.046.012-.092.012-.138,0-.002,0-.004,0-.005,0-.002,0-.005,0-.007,0-.044-.011-.089-.012-.133-.003-.101-.014-.199-.024-.299-.01-.112-.02-.223-.039-.335-.008-.047-.008-.095-.017-.142-.002-.012-.004-.024-.006-.036,0-.001,0-.003,0-.004-.007-.036-.024-.067-.032-.103-.02-.087-.049-.17-.075-.256-.034-.116-.067-.231-.11-.346-.015-.039-.024-.081-.04-.12-.005-.013-.008-.028-.014-.041-.016-.037-.038-.07-.054-.107-.039-.085-.089-.164-.133-.247-.039-.073-.062-.151-.104-.223-.02-.033-.046-.058-.067-.089-.017-.028-.031-.057-.049-.084-.031-.048-.065-.094-.098-.14-.06-.084-.133-.158-.198-.238-.072-.087-.138-.18-.215-.261-.021-.023-.042-.046-.063-.068-.002-.003-.004-.006-.007-.008-.004-.004-.008-.01-.012-.014-.032-.032-.066-.06-.099-.091-.077-.073-.166-.135-.249-.203-.082-.067-.158-.141-.244-.202-.028-.02-.054-.042-.083-.061-.012-.009-.025-.017-.037-.025-.015-.01-.027-.024-.042-.034-.027-.018-.058-.027-.085-.044-.023-.015-.041-.034-.065-.048-31.146-18.616-29.728-60.14-28.085-108.221,1.989-58.245,4.243-124.262-55.072-162.088-2.17-1.385-5.064-.743-6.451,1.427-1.385,2.172-.746,5.065,1.427,6.452,54.819,34.959,52.661,98.145,50.756,153.895-1.301,38.098-2.54,74.547,13.93,98.938-25.325-17.815-23.13-54.896-20.66-96.607,3.191-53.891,6.809-114.973-48.201-150.054-1.053-.671-2.303-.893-3.523-.622-1.217.27-2.257.998-2.928,2.049-.671,1.053-.893,2.304-.623,3.522.27,1.219.998,2.259,2.05,2.93,50.382,32.129,46.937,90.3,43.897,141.623-1.583,26.737-3.079,51.991,2.713,72.657,3.437,12.263,9.33,21.927,17.796,29.118-7.214-2.526-12.978-6.159-17.344-10.959-15.811-17.384-12.745-49.674-9.498-83.865,4.86-51.172,10.368-109.173-41.738-142.401-2.17-1.386-5.064-.747-6.452,1.426-.671,1.053-.893,2.304-.623,3.522.27,1.218.997,2.258,2.05,2.93,47.289,30.156,42.067,85.135,37.46,133.643-3.447,36.303-6.703,70.592,11.889,91.033,5.535,6.086,12.712,10.622,21.638,13.664-8.926,3.042-16.103,7.578-21.638,13.664-18.592,20.441-15.336,54.73-11.889,91.035,4.607,48.506,9.829,103.484-37.46,133.642-1.052.671-1.78,1.711-2.049,2.929-.27,1.219-.049,2.47.623,3.522.863,1.353,2.337,2.16,3.942,2.16.889,0,1.757-.254,2.509-.733,52.107-33.229,46.599-91.23,41.739-142.409-3.246-34.185-6.312-66.475,9.499-83.858,4.366-4.8,10.131-8.434,17.345-10.96-8.466,7.19-14.36,16.855-17.797,29.118-5.792,20.666-4.296,45.92-2.713,72.657,3.04,51.322,6.485,109.493-43.897,141.624-2.172,1.386-2.812,4.279-1.427,6.451.863,1.353,2.337,2.16,3.942,2.16.889,0,1.757-.254,2.509-.733,55.011-35.082,51.394-96.163,48.202-150.056-2.47-41.709-4.665-78.79,20.66-96.605-16.469,24.39-15.23,60.84-13.93,98.94,1.905,55.747,4.063,118.933-50.755,153.892-1.053.671-1.781,1.711-2.05,2.93-.27,1.219-.049,2.47.623,3.522.863,1.353,2.337,2.16,3.942,2.16.889,0,1.757-.254,2.509-.733,59.315-37.825,57.061-103.842,55.072-162.09-1.643-48.079-3.061-89.602,28.086-108.219.039-.023.069-.055.107-.079.04-.025.083-.044.122-.071.035-.024.066-.051.1-.076.057-.041.112-.084.167-.127.044-.035.085-.073.128-.109.006-.005.011-.01.017-.014.055-.047.113-.091.165-.141.027-.026.055-.05.081-.076.012-.012.023-.024.035-.036.033-.033.061-.071.093-.105.009-.01.017-.019.026-.029.038-.041.076-.081.112-.124.059-.07.118-.139.173-.212.033-.044.063-.089.094-.135.024-.033.049-.064.072-.098.014-.021.026-.044.04-.066.006-.01.014-.02.021-.03.01-.016.022-.03.032-.046.008-.014.019-.025.027-.039.038-.064.058-.133.093-.198.005-.01.01-.019.014-.029.046-.088.097-.173.137-.263.019-.043.042-.083.061-.127.003-.008.007-.015.011-.023.017-.041.027-.085.043-.127.039-.104.066-.21.097-.316.024-.082.053-.161.073-.245.009-.039.026-.074.034-.113,0-.002,0-.004,0-.007.002-.011.003-.023.005-.035.009-.045.009-.093.017-.139Z" fill="#fff" stroke-width="0"/>
    </g>
  </g>
</svg>