<?xml version="1.0" encoding="UTF-8"?>
<svg id="b" data-name="Layer 2" xmlns="http://www.w3.org/2000/svg" width="250"  viewBox="0 0 651.275 124.095">
  <g id="c" data-name="Layer 1">
    <g id="d" data-name="c">
      <g>
        <g>
          <path d="m312.387,34.622h-28.64v67.533h57.044v-39.836c0-17.679-10.725-27.697-28.404-27.697Zm21.215,60.344h-42.665v-53.155h21.097c14.497,0,21.568,8.368,21.568,21.215v31.94h0Z" fill="#fff" stroke-width="0"/>
          <path d="m366.602,34.622h-15.322v7.189h12.611c1.65,0,2.711,1.061,2.711,2.711v30.997h7.19v-33.708c0-4.361-2.829-7.189-7.19-7.189h0Z" fill="#fff" stroke-width="0"/>
          <polygon points="420.229 102.155 427.418 102.155 427.418 41.575 438.379 41.575 438.379 34.622 378.978 34.622 378.978 41.575 420.229 41.575 420.229 102.155" fill="#fff" stroke-width="0"/>
          <path d="m450.637,62.79v39.365h7.19v-39.012c0-14.261,9.428-23.218,22.629-23.218,13.318,0,22.747,8.957,22.747,23.1v31.94h-26.518v7.189h33.707v-39.836c0-17.797-11.668-29.583-29.465-29.583-10.371,0-17.09,3.771-20.861,7.896h-.118v-1.532c0-2.946-1.178-4.478-4.478-4.478h-8.957v7.425h6.718c1.061,0,1.65.472,1.65,1.415v2.829c-2.711,4.125-4.243,9.664-4.243,16.5Z" fill="#fff" stroke-width="0"/>
          <path d="m532.43,44.522v57.633h7.189v-60.344c0-4.361-2.828-7.189-7.189-7.189h-11.55v7.189h8.84c1.65,0,2.711,1.061,2.711,2.711Z" fill="#fff" stroke-width="0"/>
          <path d="m595.957,52.89c0,22.157-10.018,35.476-26.754,43.608l1.65,6.836c19.682-8.604,32.293-24.043,32.293-52.329v-16.382h-48.44v-17.443h-7.189v24.632h48.44s0,11.079,0,11.079Z" fill="#fff" stroke-width="0"/>
          <path d="m54.923,72.691c0,12.965-7.543,22.275-21.922,22.275h-10.607l-6.482-60.344h-7.19l6.482,60.344H0v7.19h33.354c17.561,0,28.758-10.725,28.758-28.286v-39.247h-7.19v38.069h0Z" fill="#fff" stroke-width="0"/>
          <path d="m91.459,34.622h-10.725v7.19h8.839c2.24,0,3.418,1.296,3.654,3.418l4.007,32.883-24.986,17.325,1.65,7.661,24.279-16.972,1.886,16.029h7.189l-7.189-60.344c-.707-4.597-3.654-7.19-8.604-7.19h0Z" fill="#fff" stroke-width="0"/>
          <path d="m133.535,34.622h-24.279v7.19h23.808c14.143,0,21.45,7.307,21.45,20.39v39.954h7.189v-40.308c0-17.797-10.607-27.226-28.168-27.226Z" fill="#fff" stroke-width="0"/>
          <path d="m176.671,17.179h-7.189v24.632h48.44v11.079c0,22.157-10.018,35.475-26.754,43.608l1.65,6.836c19.682-8.604,32.293-24.043,32.293-52.329v-16.383h-48.44v-17.443Z" fill="#fff" stroke-width="0"/>
        </g>
        <path d="m651.258,62.222c.004-.025.007-.051.009-.076.002-.022.005-.044.005-.066,0-.01.003-.021.003-.031h0v-.003c0-.01-.002-.02-.003-.03,0-.023-.003-.045-.005-.067-.002-.025-.005-.05-.009-.076-.002-.011-.002-.021-.004-.032,0-.003,0-.005-.001-.008h0c-.002-.009-.005-.016-.007-.024-.005-.02-.011-.038-.017-.058-.008-.026-.015-.052-.025-.078-.003-.009-.005-.018-.009-.027-.001-.003-.002-.006-.003-.009-.004-.008-.009-.016-.012-.024-.009-.019-.02-.037-.03-.056-.009-.016-.014-.034-.023-.05-.005-.007-.01-.013-.015-.02-.004-.006-.007-.013-.011-.019-.007-.011-.015-.021-.022-.032-.014-.019-.03-.036-.045-.054-.016-.02-.031-.041-.049-.059-.005-.005-.009-.01-.014-.015,0,0,0-.001-.002-.002,0,0-.002-.002-.003-.003-.007-.007-.015-.014-.022-.021-.017-.016-.037-.03-.056-.046-.018-.015-.036-.032-.055-.046-.006-.005-.012-.009-.019-.014-.003-.002-.006-.004-.008-.006-.003-.002-.006-.005-.009-.008-.006-.004-.013-.006-.019-.01-.005-.003-.009-.008-.015-.011-7.026-4.199-6.706-13.567-6.336-24.413.449-13.139.957-28.032-12.423-36.565-.49-.312-1.142-.168-1.455.322-.312.49-.168,1.143.322,1.455,12.366,7.886,11.88,22.14,11.45,34.716-.293,8.594-.573,16.817,3.142,22.319-5.713-4.019-5.218-12.384-4.661-21.793.72-12.157,1.536-25.936-10.873-33.85-.238-.151-.52-.201-.795-.14-.275.061-.509.225-.661.462-.151.238-.201.52-.141.795.061.275.225.51.462.661,11.365,7.248,10.588,20.37,9.902,31.948-.357,6.031-.695,11.728.612,16.39.775,2.766,2.105,4.946,4.015,6.569-1.627-.57-2.928-1.389-3.913-2.472-3.567-3.922-2.875-11.206-2.143-18.919,1.096-11.544,2.339-24.628-9.415-32.123-.49-.313-1.142-.169-1.455.322-.151.238-.201.52-.141.795.061.275.225.509.462.661,10.668,6.803,9.49,19.205,8.45,30.148-.778,8.189-1.512,15.924,2.682,20.536,1.249,1.373,2.868,2.396,4.881,3.082-2.014.686-3.633,1.709-4.881,3.082-4.194,4.611-3.46,12.346-2.682,20.536,1.039,10.942,2.217,23.344-8.45,30.148-.237.151-.402.386-.462.661-.061.275-.011.557.141.795.195.305.527.487.889.487.201,0,.396-.057.566-.165,11.755-7.496,10.512-20.58,9.416-32.125-.732-7.712-1.424-14.996,2.143-18.917.985-1.083,2.285-1.903,3.913-2.472-1.91,1.622-3.239,3.802-4.015,6.569-1.307,4.662-.969,10.359-.612,16.39.686,11.577,1.463,24.7-9.902,31.948-.49.313-.634.965-.322,1.455.195.305.527.487.889.487.201,0,.396-.057.566-.165,12.41-7.914,11.594-21.693,10.874-33.85-.557-9.409-1.052-17.774,4.661-21.793-3.715,5.502-3.436,13.725-3.142,22.319.43,12.576.917,26.829-11.45,34.716-.238.151-.402.386-.462.661-.061.275-.011.557.141.795.195.305.527.487.889.487.201,0,.396-.057.566-.165,13.381-8.533,12.872-23.425,12.423-36.565-.371-10.846-.691-20.213,6.336-24.413.009-.005.016-.012.024-.018.009-.006.019-.01.028-.016.008-.005.015-.012.023-.017.013-.009.025-.019.038-.029.01-.008.019-.016.029-.025.001-.001.002-.002.004-.003.012-.011.025-.021.037-.032.006-.006.012-.011.018-.017.003-.003.005-.005.008-.008.007-.007.014-.016.021-.024.002-.002.004-.004.006-.007.009-.009.017-.018.025-.028.013-.016.027-.031.039-.048.007-.01.014-.02.021-.03.005-.007.011-.014.016-.022.003-.005.006-.01.009-.015.001-.002.003-.005.005-.007.002-.004.005-.007.007-.01.002-.003.004-.006.006-.009.009-.014.013-.03.021-.045.001-.002.002-.004.003-.007.01-.02.022-.039.031-.059.004-.01.009-.019.014-.029,0-.002.002-.003.002-.005.004-.009.006-.019.01-.029.009-.023.015-.047.022-.071.005-.018.012-.036.016-.055.002-.009.006-.017.008-.025v-.002s0-.005.001-.008c.002-.01.002-.021.004-.031h0Z" fill="#fff" stroke-width="0"/>
      </g>
    </g>
  </g>
</svg>