<svg width="36" height="36" viewBox="0 0 36 36" fill="none" xmlns="http://www.w3.org/2000/svg">
<g clip-path="url(#clip0_105_877)">
<path d="M18.068 17.6595C21.4743 17.6595 24.2357 14.8982 24.2357 11.4919C24.2357 8.08557 21.4743 5.32422 18.068 5.32422C14.6617 5.32422 11.9004 8.08557 11.9004 11.4919C11.9004 14.8982 14.6617 17.6595 18.068 17.6595Z" fill="#9139E5"/>
<path d="M29.8674 24.1364C29.9009 24.2406 29.7789 24.3242 29.6929 24.2565C29.0864 23.7795 28.3216 23.4953 27.4906 23.4953C26.6595 23.4953 25.8979 23.7784 25.2922 24.254C25.2501 24.287 25.1912 24.2862 25.1507 24.2513C24.9267 24.0576 24.6442 23.9521 24.3446 23.9521C24.3069 23.9521 24.2688 23.9539 24.2307 23.9575L18.9401 24.4449C18.6253 24.4738 18.3484 24.6169 18.1488 24.8308C18.1278 24.8533 18.0991 24.8674 18.0684 24.8674C18.0681 24.8674 18.0678 24.8674 18.0674 24.8674C18.0367 24.8674 18.008 24.8533 17.987 24.8308C17.7875 24.6169 17.511 24.4738 17.1962 24.4449L11.9047 23.9575C11.8674 23.9539 11.8293 23.9521 11.7916 23.9521C11.4921 23.9521 11.2096 24.0576 10.9855 24.2513C10.9451 24.2862 10.8861 24.287 10.8441 24.254C10.2383 23.7784 9.4749 23.4953 8.64566 23.4953C7.81642 23.4953 7.04987 23.7795 6.44335 24.2565C6.35732 24.3242 6.23535 24.2406 6.26887 24.1364C7.25437 21.0739 12.1622 18.7468 18.0681 18.7468C23.974 18.7468 28.8818 21.0739 29.8673 24.1364H29.8674Z" fill="#9139E5"/>
<path d="M11.1991 27.0685C11.1991 27.5927 11.0451 28.081 10.7799 28.4907C10.4128 29.0584 9.83255 29.4753 9.15176 29.627C8.96731 29.6683 8.77479 29.6903 8.57778 29.6903C7.13004 29.6903 5.95605 28.5163 5.95605 27.0685C5.95605 26.7001 6.0319 26.3496 6.16922 26.0319C6.57132 25.0998 7.49848 24.4473 8.57778 24.4473C9.50135 24.4473 10.3132 24.9248 10.7799 25.6464C11.0451 26.0561 11.1991 26.5444 11.1991 27.0685Z" fill="#9139E5"/>
<path d="M30.0443 27.0685C30.0443 28.5163 28.8703 29.6903 27.4225 29.6903C27.261 29.6903 27.103 29.6755 26.9495 29.6476C26.3051 29.5301 25.7432 29.1773 25.356 28.6814C25.119 28.3781 24.9471 28.0208 24.8623 27.6318C24.8224 27.4504 24.8013 27.262 24.8013 27.0685C24.8013 26.8751 24.8224 26.6866 24.8623 26.5053C24.9471 26.1163 25.119 25.7595 25.356 25.4561C25.8357 24.8422 26.5829 24.4473 27.4225 24.4473C28.584 24.4473 29.5695 25.2026 29.9132 26.2491C29.9985 26.5067 30.0443 26.7822 30.0443 27.0685Z" fill="#9139E5"/>
<path d="M17.6002 25.6758V31.9371C17.6002 32.2423 17.3386 32.481 17.0348 32.4532L11.7442 31.9663C11.4776 31.9416 11.2734 31.7181 11.2734 31.4502V29.472C11.8564 28.8374 12.2118 27.991 12.2118 27.0616C12.2118 26.2143 11.9165 25.4362 11.4229 24.8245C11.5274 24.7186 11.6773 24.6576 11.8393 24.6724L17.1299 25.1597C17.3965 25.1844 17.6002 25.4079 17.6002 25.6758Z" fill="#9139E5"/>
<path d="M24.8624 29.472V31.4502C24.8624 31.7181 24.6582 31.9416 24.3916 31.9663L19.1011 32.4532C18.7972 32.481 18.5352 32.2423 18.5352 31.9371V25.6758C18.5352 25.4079 18.7393 25.1844 19.0059 25.1597L24.2965 24.6724C24.4585 24.6576 24.6084 24.7186 24.713 24.8245C24.2193 25.4362 23.924 26.2143 23.924 27.0616C23.924 27.991 24.2794 28.8374 24.8624 29.472Z" fill="#9139E5"/>
</g>
<defs>
<clipPath id="clip0_105_877">
<rect width="36" height="36" fill="white"/>
</clipPath>
</defs>
</svg>
