<svg width="36" height="36" viewBox="0 0 36 36" fill="none" xmlns="http://www.w3.org/2000/svg">
<g clip-path="url(#clip0_100_509)">
<path d="M18.0002 17.6596C21.4065 17.6596 24.1678 14.8982 24.1678 11.4919C24.1678 8.08563 21.4065 5.32428 18.0002 5.32428C14.5939 5.32428 11.8325 8.08563 11.8325 11.4919C11.8325 14.8982 14.5939 17.6596 18.0002 17.6596Z" fill="#D18915"/>
<path d="M32.5089 13.7042C32.4639 13.8215 32.4189 13.9387 32.3739 14.0559C32.2515 14.3749 32.129 14.6939 32.0066 15.0129L31.4634 16.4282L30.8007 18.1549C30.5595 18.7832 30.3184 19.4114 30.0772 20.0397C29.8331 20.6759 29.5889 21.312 29.3447 21.9482C29.1178 22.5395 28.8908 23.1308 28.6638 23.7221C28.4714 24.2235 28.279 24.7249 28.0865 25.2263C27.9481 25.5867 27.8098 25.9472 27.6714 26.3077C27.606 26.4782 27.5388 26.6482 27.475 26.8193C27.4723 26.8266 27.4695 26.8338 27.4667 26.841C27.4017 27.0101 27.4534 27.2612 27.5413 27.4116C27.6312 27.5652 27.8073 27.7117 27.9838 27.7519C28.1734 27.795 28.3862 27.7857 28.5544 27.6772L28.7043 27.5615C28.796 27.4691 28.8595 27.3601 28.8947 27.2347C28.9397 27.1175 28.9847 27.0003 29.0297 26.8831C29.1521 26.5641 29.2746 26.2451 29.397 25.926C29.5781 25.4543 29.7591 24.9825 29.9402 24.5107C30.1611 23.9352 30.382 23.3596 30.6029 22.7841C30.8441 22.1558 31.0852 21.5275 31.3263 20.8992C31.5705 20.2631 31.8147 19.6269 32.0589 18.9908C32.2858 18.3995 32.5128 17.8081 32.7398 17.2168C32.9322 16.7154 33.1246 16.214 33.3171 15.7127C33.4555 15.3522 33.5938 14.9917 33.7322 14.6313C33.7976 14.4607 33.8648 14.2908 33.9286 14.1196C33.9312 14.1123 33.9341 14.1052 33.9369 14.0979C34.0018 13.9288 33.9502 13.6777 33.8623 13.5274C33.7724 13.3738 33.5963 13.2273 33.4197 13.1871C33.2302 13.1439 33.0174 13.1532 32.8492 13.2617L32.6993 13.3775C32.6075 13.4699 32.5441 13.5788 32.5089 13.7042Z" fill="#D18915"/>
<path d="M29.9798 27.0685C29.9798 28.5163 28.8058 29.6903 27.3581 29.6903C27.1965 29.6903 27.0386 29.6755 26.8851 29.6476C26.2407 29.5301 25.6788 29.1773 25.2915 28.6814C25.0545 28.3781 24.8827 28.0208 24.7978 27.6318C24.7579 27.4504 24.7368 27.262 24.7368 27.0685C24.7368 26.8751 24.7579 26.6866 24.7978 26.5053C24.8827 26.1163 25.0545 25.7595 25.2915 25.4561C25.7712 24.8422 26.5184 24.4473 27.3581 24.4473C28.5195 24.4473 29.505 25.2026 29.8488 26.2491C29.934 26.5067 29.9798 26.7822 29.9798 27.0685Z" fill="#D18915"/>
<path d="M23.825 26.2913C23.7698 26.5417 23.7407 26.8015 23.7407 27.0685C23.7407 27.3355 23.7698 27.5954 23.825 27.8458C23.9417 28.3825 24.1791 28.8753 24.5063 29.294C24.6153 29.434 24.7347 29.5655 24.8631 29.6871C22.9194 30.1054 20.5531 30.3504 18 30.3504C14.259 30.3504 10.9188 29.824 8.72208 28.9991C7.63111 28.5899 6.7385 27.7614 6.30095 26.6808C6.23274 26.5121 6.17619 26.3406 6.13221 26.1669C6.05817 25.8739 6.02002 25.5746 6.02002 25.2703C6.02002 21.6676 11.3837 18.7469 18 18.7469C24.1307 18.7469 29.1861 21.2551 29.8947 24.4899C29.2417 23.8477 28.346 23.4514 27.3578 23.4514C26.1991 23.4514 25.1682 23.9962 24.5063 24.8435C24.1791 25.2622 23.9417 25.7545 23.825 26.2913Z" fill="#D18915"/>
</g>
<defs>
<clipPath id="clip0_100_509">
<rect width="36" height="36" fill="white"/>
</clipPath>
</defs>
</svg>
